<?xml version="1.0" encoding="UTF-8" standalone="no"?>
<!DOCTYPE svg PUBLIC "-//W3C//DTD SVG 1.1//EN"
 "http://www.w3.org/Graphics/SVG/1.1/DTD/svg11.dtd">
<!-- Generated by graphviz version 2.40.1 (0)
 -->
<!-- Title: %3 Pages: 1 -->
<svg width="511pt" height="404pt"
 viewBox="0.00 0.00 510.84 404.00" xmlns="http://www.w3.org/2000/svg" xmlns:xlink="http://www.w3.org/1999/xlink">
<g id="graph0" class="graph" transform="scale(1 1) rotate(0) translate(4 400)">
<title>%3</title>
<polygon fill="#ffffff" stroke="transparent" points="-4,4 -4,-400 506.8356,-400 506.8356,4 -4,4"/>
<!-- input -->
<g id="node1" class="node">
<title>input</title>
<ellipse fill="none" stroke="#000000" cx="325.0934" cy="-378" rx="30.5947" ry="18"/>
<text text-anchor="middle" x="325.0934" y="-374.3" font-family="Times,serif" font-size="14.00" fill="#000000">input</text>
</g>
<!-- Select([&#39;text&#39;]) -->
<g id="node2" class="node">
<title>Select([&#39;text&#39;])</title>
<ellipse fill="none" stroke="#000000" cx="236.0934" cy="-306" rx="79.0865" ry="18"/>
<text text-anchor="middle" x="236.0934" y="-302.3" font-family="Times,serif" font-size="14.00" fill="#000000">Select([&#39;text&#39;])</text>
</g>
<!-- input&#45;&gt;Select([&#39;text&#39;]) -->
<g id="edge1" class="edge">
<title>input&#45;&gt;Select([&#39;text&#39;])</title>
<path fill="none" stroke="#000000" d="M307.0829,-363.4297C295.1093,-353.7432 279.1127,-340.8021 265.3358,-329.6568"/>
<polygon fill="#000000" stroke="#000000" points="267.5038,-326.9087 257.5279,-323.3403 263.1011,-332.3509 267.5038,-326.9087"/>
</g>
<!-- Select([&#39;b&#39;, &#39;a&#39;]) -->
<g id="node5" class="node">
<title>Select([&#39;b&#39;, &#39;a&#39;])</title>
<ellipse fill="none" stroke="#000000" cx="415.0934" cy="-306" rx="81.7856" ry="18"/>
<text text-anchor="middle" x="415.0934" y="-302.3" font-family="Times,serif" font-size="14.00" fill="#000000">Select([&#39;b&#39;, &#39;a&#39;])</text>
</g>
<!-- input&#45;&gt;Select([&#39;b&#39;, &#39;a&#39;]) -->
<g id="edge4" class="edge">
<title>input&#45;&gt;Select([&#39;b&#39;, &#39;a&#39;])</title>
<path fill="none" stroke="#000000" d="M343.3063,-363.4297C355.3286,-353.8119 371.3616,-340.9855 385.2257,-329.8942"/>
<polygon fill="#000000" stroke="#000000" points="387.4691,-332.5817 393.0913,-323.6017 383.0962,-327.1156 387.4691,-332.5817"/>
</g>
<!-- TFIDFVectorizer -->
<g id="node3" class="node">
<title>TFIDFVectorizer</title>
<ellipse fill="none" stroke="#000000" cx="74.0934" cy="-234" rx="74.187" ry="18"/>
<text text-anchor="middle" x="74.0934" y="-230.3" font-family="Times,serif" font-size="14.00" fill="#000000">TFIDFVectorizer</text>
</g>
<!-- Select([&#39;text&#39;])&#45;&gt;TFIDFVectorizer -->
<g id="edge2" class="edge">
<title>Select([&#39;text&#39;])&#45;&gt;TFIDFVectorizer</title>
<path fill="none" stroke="#000000" d="M199.7375,-289.8418C175.9143,-279.2537 144.5983,-265.3355 119.1908,-254.0433"/>
<polygon fill="#000000" stroke="#000000" points="120.3299,-250.7195 109.7703,-249.8564 117.4869,-257.1162 120.3299,-250.7195"/>
</g>
<!-- CountVectorizer -->
<g id="node4" class="node">
<title>CountVectorizer</title>
<ellipse fill="none" stroke="#000000" cx="238.0934" cy="-234" rx="71.4873" ry="18"/>
<text text-anchor="middle" x="238.0934" y="-230.3" font-family="Times,serif" font-size="14.00" fill="#000000">CountVectorizer</text>
</g>
<!-- Select([&#39;text&#39;])&#45;&gt;CountVectorizer -->
<g id="edge3" class="edge">
<title>Select([&#39;text&#39;])&#45;&gt;CountVectorizer</title>
<path fill="none" stroke="#000000" d="M236.5981,-287.8314C236.812,-280.131 237.0664,-270.9743 237.3041,-262.4166"/>
<polygon fill="#000000" stroke="#000000" points="240.8028,-262.5066 237.5819,-252.4133 233.8055,-262.3122 240.8028,-262.5066"/>
</g>
<!-- StandardScaler -->
<g id="node7" class="node">
<title>StandardScaler</title>
<ellipse fill="none" stroke="#000000" cx="238.0934" cy="-162" rx="66.0889" ry="18"/>
<text text-anchor="middle" x="238.0934" y="-158.3" font-family="Times,serif" font-size="14.00" fill="#000000">StandardScaler</text>
</g>
<!-- TFIDFVectorizer&#45;&gt;StandardScaler -->
<g id="edge7" class="edge">
<title>TFIDFVectorizer&#45;&gt;StandardScaler</title>
<path fill="none" stroke="#000000" d="M110.0839,-218.1993C134.689,-207.3971 167.4657,-193.0073 193.6926,-181.493"/>
<polygon fill="#000000" stroke="#000000" points="195.2821,-184.6177 203.0316,-177.393 192.4681,-178.2082 195.2821,-184.6177"/>
</g>
<!-- CountVectorizer&#45;&gt;StandardScaler -->
<g id="edge8" class="edge">
<title>CountVectorizer&#45;&gt;StandardScaler</title>
<path fill="none" stroke="#000000" d="M238.0934,-215.8314C238.0934,-208.131 238.0934,-198.9743 238.0934,-190.4166"/>
<polygon fill="#000000" stroke="#000000" points="241.5935,-190.4132 238.0934,-180.4133 234.5935,-190.4133 241.5935,-190.4132"/>
</g>
<!-- PolynomialExtender -->
<g id="node6" class="node">
<title>PolynomialExtender</title>
<ellipse fill="none" stroke="#000000" cx="415.0934" cy="-234" rx="87.9851" ry="18"/>
<text text-anchor="middle" x="415.0934" y="-230.3" font-family="Times,serif" font-size="14.00" fill="#000000">PolynomialExtender</text>
</g>
<!-- Select([&#39;b&#39;, &#39;a&#39;])&#45;&gt;PolynomialExtender -->
<g id="edge5" class="edge">
<title>Select([&#39;b&#39;, &#39;a&#39;])&#45;&gt;PolynomialExtender</title>
<path fill="none" stroke="#000000" d="M415.0934,-287.8314C415.0934,-280.131 415.0934,-270.9743 415.0934,-262.4166"/>
<polygon fill="#000000" stroke="#000000" points="418.5935,-262.4132 415.0934,-252.4133 411.5935,-262.4133 418.5935,-262.4132"/>
</g>
<!-- PolynomialExtender&#45;&gt;StandardScaler -->
<g id="edge6" class="edge">
<title>PolynomialExtender&#45;&gt;StandardScaler</title>
<path fill="none" stroke="#000000" d="M375.3712,-217.8418C348.3571,-206.853 312.5252,-192.2773 284.2434,-180.7729"/>
<polygon fill="#000000" stroke="#000000" points="285.5471,-177.5247 274.9653,-176.9987 282.9095,-184.0088 285.5471,-177.5247"/>
</g>
<!-- LinearRegression -->
<g id="node8" class="node">
<title>LinearRegression</title>
<ellipse fill="none" stroke="#000000" cx="238.0934" cy="-90" rx="75.2868" ry="18"/>
<text text-anchor="middle" x="238.0934" y="-86.3" font-family="Times,serif" font-size="14.00" fill="#000000">LinearRegression</text>
</g>
<!-- StandardScaler&#45;&gt;LinearRegression -->
<g id="edge9" class="edge">
<title>StandardScaler&#45;&gt;LinearRegression</title>
<path fill="none" stroke="#000000" d="M238.0934,-143.8314C238.0934,-136.131 238.0934,-126.9743 238.0934,-118.4166"/>
<polygon fill="#000000" stroke="#000000" points="241.5935,-118.4132 238.0934,-108.4133 234.5935,-118.4133 241.5935,-118.4132"/>
</g>
<!-- output -->
<g id="node9" class="node">
<title>output</title>
<ellipse fill="none" stroke="#000000" cx="238.0934" cy="-18" rx="35.194" ry="18"/>
<text text-anchor="middle" x="238.0934" y="-14.3" font-family="Times,serif" font-size="14.00" fill="#000000">output</text>
</g>
<!-- LinearRegression&#45;&gt;output -->
<g id="edge10" class="edge">
<title>LinearRegression&#45;&gt;output</title>
<path fill="none" stroke="#000000" d="M238.0934,-71.8314C238.0934,-64.131 238.0934,-54.9743 238.0934,-46.4166"/>
<polygon fill="#000000" stroke="#000000" points="241.5935,-46.4132 238.0934,-36.4133 234.5935,-46.4133 241.5935,-46.4132"/>
</g>
</g>
</svg>
