<?xml version="1.0" encoding="UTF-8" standalone="no"?>
<!DOCTYPE svg PUBLIC "-//W3C//DTD SVG 1.1//EN"
 "http://www.w3.org/Graphics/SVG/1.1/DTD/svg11.dtd">
<!-- Generated by graphviz version 2.43.0 (0)
 -->
<!-- Title: %3 Pages: 1 -->
<svg width="323pt" height="212pt"
 viewBox="0.00 0.00 323.00 212.00" xmlns="http://www.w3.org/2000/svg" xmlns:xlink="http://www.w3.org/1999/xlink">
<g id="graph0" class="graph" transform="scale(1 1) rotate(0) translate(4 208)">
<title>%3</title>
<polygon fill="white" stroke="transparent" points="-4,4 -4,-208 319,-208 319,4 -4,4"/>
<!-- 0 -->
<g id="node1" class="node">
<title>0</title>
<polygon fill="#fae6d7" stroke="black" stroke-width="1.2" points="207,-204 39,-204 39,-168 207,-168 207,-204"/>
<text text-anchor="middle" x="123" y="-183.2" font-family="trebuchet" font-size="11.00">empty_server_form_handler</text>
</g>
<!-- 1 -->
<g id="node2" class="node">
<title>1</title>
<polygon fill="#68b4eb" stroke="black" stroke-width="1.2" points="120,-132 0,-132 0,-84 120,-84 120,-132"/>
<text text-anchor="middle" x="60" y="-123.2" font-family="trebuchet" font-size="11.00">Class True:</text>
<text text-anchor="middle" x="60" y="-111.2" font-family="trebuchet" font-size="11.00">	P(False) = 0.1</text>
<text text-anchor="middle" x="60" y="-99.2" font-family="trebuchet" font-size="11.00">	P(True) = 0.9</text>
<text text-anchor="middle" x="60" y="-87.2" font-family="trebuchet" font-size="11.00">samples: 503</text>
</g>
<!-- 0&#45;&gt;1 -->
<g id="edge1" class="edge">
<title>0&#45;&gt;1</title>
<path fill="none" stroke="black" stroke-width="0.6" d="M79.5,-167.91C79.5,-167.91 79.5,-142.2 79.5,-142.2"/>
<polygon fill="black" stroke="black" stroke-width="0.6" points="83,-142.2 79.5,-132.2 76,-142.2 83,-142.2"/>
<text text-anchor="middle" x="62.5" y="-157.45" font-family="Times,serif" font-size="7.00">≤ 0.5455</text>
</g>
<!-- 2 -->
<g id="node3" class="node">
<title>2</title>
<polygon fill="#eda775" stroke="black" stroke-width="1.2" points="233.5,-126 138.5,-126 138.5,-90 233.5,-90 233.5,-126"/>
<text text-anchor="middle" x="186" y="-105.2" font-family="trebuchet" font-size="11.00">popup_window</text>
</g>
<!-- 0&#45;&gt;2 -->
<g id="edge2" class="edge">
<title>0&#45;&gt;2</title>
<path fill="none" stroke="black" stroke-width="0.6" d="M172.75,-167.91C172.75,-167.91 172.75,-136.26 172.75,-136.26"/>
<polygon fill="black" stroke="black" stroke-width="0.6" points="176.25,-136.26 172.75,-126.26 169.25,-136.26 176.25,-136.26"/>
<text text-anchor="middle" x="155.75" y="-154.49" font-family="Times,serif" font-size="7.00">&gt; 0.5455</text>
</g>
<!-- 3 -->
<g id="node4" class="node">
<title>3</title>
<polygon fill="#fafdfe" stroke="black" stroke-width="1.2" points="177,-48 57,-48 57,0 177,0 177,-48"/>
<text text-anchor="middle" x="117" y="-39.2" font-family="trebuchet" font-size="11.00">Class True:</text>
<text text-anchor="middle" x="117" y="-27.2" font-family="trebuchet" font-size="11.00">	P(False) = 0.5</text>
<text text-anchor="middle" x="117" y="-15.2" font-family="trebuchet" font-size="11.00">	P(True) = 0.5</text>
<text text-anchor="middle" x="117" y="-3.2" font-family="trebuchet" font-size="11.00">samples: 64</text>
</g>
<!-- 2&#45;&gt;3 -->
<g id="edge3" class="edge">
<title>2&#45;&gt;3</title>
<path fill="none" stroke="black" stroke-width="0.6" d="M157.75,-89.77C157.75,-89.77 157.75,-58.25 157.75,-58.25"/>
<polygon fill="black" stroke="black" stroke-width="0.6" points="161.25,-58.25 157.75,-48.25 154.25,-58.25 161.25,-58.25"/>
<text text-anchor="middle" x="140.75" y="-76.41" font-family="Times,serif" font-size="7.00">≤ 0.0909</text>
</g>
<!-- 4 -->
<g id="node5" class="node">
<title>4</title>
<polygon fill="#e68742" stroke="black" stroke-width="1.2" points="315,-48 195,-48 195,0 315,0 315,-48"/>
<text text-anchor="middle" x="255" y="-39.2" font-family="trebuchet" font-size="11.00">Class False:</text>
<text text-anchor="middle" x="255" y="-27.2" font-family="trebuchet" font-size="11.00">	P(False) = 1.0</text>
<text text-anchor="middle" x="255" y="-15.2" font-family="trebuchet" font-size="11.00">	P(True) = 0.0</text>
<text text-anchor="middle" x="255" y="-3.2" font-family="trebuchet" font-size="11.00">samples: 256</text>
</g>
<!-- 2&#45;&gt;4 -->
<g id="edge4" class="edge">
<title>2&#45;&gt;4</title>
<path fill="none" stroke="black" stroke-width="0.6" d="M214.25,-89.77C214.25,-89.77 214.25,-58.25 214.25,-58.25"/>
<polygon fill="black" stroke="black" stroke-width="0.6" points="217.75,-58.25 214.25,-48.25 210.75,-58.25 217.75,-58.25"/>
<text text-anchor="middle" x="197.25" y="-76.41" font-family="Times,serif" font-size="7.00">&gt; 0.0909</text>
</g>
</g>
</svg>
