<?xml version="1.0" encoding="UTF-8" standalone="no"?>
<!DOCTYPE svg PUBLIC "-//W3C//DTD SVG 1.1//EN"
 "http://www.w3.org/Graphics/SVG/1.1/DTD/svg11.dtd">
<!-- Generated by graphviz version 2.40.1 (20161225.0304)
 -->
<!-- Title: %3 Pages: 1 -->
<svg width="707pt" height="404pt"
 viewBox="0.00 0.00 706.50 404.00" xmlns="http://www.w3.org/2000/svg" xmlns:xlink="http://www.w3.org/1999/xlink">
<g id="graph0" class="graph" transform="scale(1 1) rotate(0) translate(4 400)">
<title>%3</title>
<polygon fill="#ffffff" stroke="transparent" points="-4,4 -4,-400 702.5,-400 702.5,4 -4,4"/>
<!-- x -->
<g id="node1" class="node">
<title>x</title>
<polygon fill="none" stroke="#000000" stroke-width="1.2" points="449.5,-396 395.5,-396 395.5,-360 449.5,-360 449.5,-396"/>
<text text-anchor="middle" x="422.5" y="-375.2" font-family="trebuchet" font-size="11.00" fill="#000000">x</text>
</g>
<!-- add_time_features -->
<g id="node2" class="node">
<title>add_time_features</title>
<polygon fill="none" stroke="#000000" stroke-width="1.2" points="475.5,-324 369.5,-324 369.5,-288 475.5,-288 475.5,-324"/>
<text text-anchor="middle" x="422.5" y="-303.2" font-family="trebuchet" font-size="11.00" fill="#000000">add_time_features</text>
</g>
<!-- x&#45;&gt;add_time_features -->
<g id="edge1" class="edge">
<title>x&#45;&gt;add_time_features</title>
<path fill="none" stroke="#000000" stroke-width=".6" d="M422.5,-359.8314C422.5,-359.8314 422.5,-334.4133 422.5,-334.4133"/>
<polygon fill="#000000" stroke="#000000" stroke-width=".6" points="426.0001,-334.4132 422.5,-324.4133 419.0001,-334.4133 426.0001,-334.4132"/>
</g>
<!-- (&#39;clouds&#39;, &#39;humidity&#39;, &#39;pressure&#39;, &#39;temperature&#39;, &#39;wind&#39;) -->
<g id="node3" class="node">
<title>(&#39;clouds&#39;, &#39;humidity&#39;, &#39;pressure&#39;, &#39;temperature&#39;, &#39;wind&#39;)</title>
<polygon fill="none" stroke="#000000" stroke-width="1.2" points="305,-252 0,-252 0,-216 305,-216 305,-252"/>
<text text-anchor="middle" x="152.5" y="-231.2" font-family="trebuchet" font-size="11.00" fill="#000000">(&#39;clouds&#39;, &#39;humidity&#39;, &#39;pressure&#39;, &#39;temperature&#39;, &#39;wind&#39;)</text>
</g>
<!-- add_time_features&#45;&gt;(&#39;clouds&#39;, &#39;humidity&#39;, &#39;pressure&#39;, &#39;temperature&#39;, &#39;wind&#39;) -->
<g id="edge2" class="edge">
<title>add_time_features&#45;&gt;(&#39;clouds&#39;, &#39;humidity&#39;, &#39;pressure&#39;, &#39;temperature&#39;, &#39;wind&#39;)</title>
<path fill="none" stroke="#000000" stroke-width=".6" d="M369.4788,-306C290.8477,-306 152.5,-306 152.5,-306 152.5,-306 152.5,-262.1686 152.5,-262.1686"/>
<polygon fill="#000000" stroke="#000000" stroke-width=".6" points="156.0001,-262.1686 152.5,-252.1686 149.0001,-262.1687 156.0001,-262.1686"/>
</g>
<!-- target_mean_by_station_and_hour -->
<g id="node4" class="node">
<title>target_mean_by_station_and_hour</title>
<polygon fill="none" stroke="#000000" stroke-width="1.2" points="522,-252 323,-252 323,-216 522,-216 522,-252"/>
<text text-anchor="middle" x="422.5" y="-231.2" font-family="trebuchet" font-size="11.00" fill="#000000">target_mean_by_station_and_hour</text>
</g>
<!-- add_time_features&#45;&gt;target_mean_by_station_and_hour -->
<g id="edge3" class="edge">
<title>add_time_features&#45;&gt;target_mean_by_station_and_hour</title>
<path fill="none" stroke="#000000" stroke-width=".6" d="M422.5,-287.8314C422.5,-287.8314 422.5,-262.4133 422.5,-262.4133"/>
<polygon fill="#000000" stroke="#000000" stroke-width=".6" points="426.0001,-262.4132 422.5,-252.4133 419.0001,-262.4133 426.0001,-262.4132"/>
</g>
<!-- target_ewm_0.5_by_station -->
<g id="node5" class="node">
<title>target_ewm_0.5_by_station</title>
<polygon fill="none" stroke="#000000" stroke-width="1.2" points="698.5,-252 540.5,-252 540.5,-216 698.5,-216 698.5,-252"/>
<text text-anchor="middle" x="619.5" y="-231.2" font-family="trebuchet" font-size="11.00" fill="#000000">target_ewm_0.5_by_station</text>
</g>
<!-- add_time_features&#45;&gt;target_ewm_0.5_by_station -->
<g id="edge4" class="edge">
<title>add_time_features&#45;&gt;target_ewm_0.5_by_station</title>
<path fill="none" stroke="#000000" stroke-width=".6" d="M475.5515,-306C533.9,-306 619.5,-306 619.5,-306 619.5,-306 619.5,-262.1686 619.5,-262.1686"/>
<polygon fill="#000000" stroke="#000000" stroke-width=".6" points="623.0001,-262.1686 619.5,-252.1686 616.0001,-262.1687 623.0001,-262.1686"/>
</g>
<!-- StandardScaler -->
<g id="node6" class="node">
<title>StandardScaler</title>
<polygon fill="none" stroke="#000000" stroke-width="1.2" points="466.5,-180 378.5,-180 378.5,-144 466.5,-144 466.5,-180"/>
<text text-anchor="middle" x="422.5" y="-159.2" font-family="trebuchet" font-size="11.00" fill="#000000">StandardScaler</text>
</g>
<!-- (&#39;clouds&#39;, &#39;humidity&#39;, &#39;pressure&#39;, &#39;temperature&#39;, &#39;wind&#39;)&#45;&gt;StandardScaler -->
<g id="edge6" class="edge">
<title>(&#39;clouds&#39;, &#39;humidity&#39;, &#39;pressure&#39;, &#39;temperature&#39;, &#39;wind&#39;)&#45;&gt;StandardScaler</title>
<path fill="none" stroke="#000000" stroke-width=".6" d="M152.5,-215.8314C152.5,-194.502 152.5,-162 152.5,-162 152.5,-162 368.2173,-162 368.2173,-162"/>
<polygon fill="#000000" stroke="#000000" stroke-width=".6" points="368.2174,-165.5001 378.2173,-162 368.2173,-158.5001 368.2174,-165.5001"/>
</g>
<!-- target_mean_by_station_and_hour&#45;&gt;StandardScaler -->
<g id="edge7" class="edge">
<title>target_mean_by_station_and_hour&#45;&gt;StandardScaler</title>
<path fill="none" stroke="#000000" stroke-width=".6" d="M422.5,-215.8314C422.5,-215.8314 422.5,-190.4133 422.5,-190.4133"/>
<polygon fill="#000000" stroke="#000000" stroke-width=".6" points="426.0001,-190.4132 422.5,-180.4133 419.0001,-190.4133 426.0001,-190.4132"/>
</g>
<!-- target_ewm_0.5_by_station&#45;&gt;StandardScaler -->
<g id="edge8" class="edge">
<title>target_ewm_0.5_by_station&#45;&gt;StandardScaler</title>
<path fill="none" stroke="#000000" stroke-width=".6" d="M619.5,-215.8314C619.5,-194.502 619.5,-162 619.5,-162 619.5,-162 476.7106,-162 476.7106,-162"/>
<polygon fill="#000000" stroke="#000000" stroke-width=".6" points="476.7107,-158.5001 466.7106,-162 476.7106,-165.5001 476.7107,-158.5001"/>
</g>
<!-- LinearRegression -->
<g id="node7" class="node">
<title>LinearRegression</title>
<polygon fill="none" stroke="#000000" stroke-width="1.2" points="471,-108 374,-108 374,-72 471,-72 471,-108"/>
<text text-anchor="middle" x="422.5" y="-87.2" font-family="trebuchet" font-size="11.00" fill="#000000">LinearRegression</text>
</g>
<!-- StandardScaler&#45;&gt;LinearRegression -->
<g id="edge9" class="edge">
<title>StandardScaler&#45;&gt;LinearRegression</title>
<path fill="none" stroke="#000000" stroke-width=".6" d="M422.5,-143.8314C422.5,-143.8314 422.5,-118.4133 422.5,-118.4133"/>
<polygon fill="#000000" stroke="#000000" stroke-width=".6" points="426.0001,-118.4132 422.5,-108.4133 419.0001,-118.4133 426.0001,-118.4132"/>
</g>
<!-- y -->
<g id="node8" class="node">
<title>y</title>
<polygon fill="none" stroke="#000000" stroke-width="1.2" points="449.5,-36 395.5,-36 395.5,0 449.5,0 449.5,-36"/>
<text text-anchor="middle" x="422.5" y="-15.2" font-family="trebuchet" font-size="11.00" fill="#000000">y</text>
</g>
<!-- LinearRegression&#45;&gt;y -->
<g id="edge5" class="edge">
<title>LinearRegression&#45;&gt;y</title>
<path fill="none" stroke="#000000" stroke-width=".6" d="M422.5,-71.8314C422.5,-71.8314 422.5,-46.4133 422.5,-46.4133"/>
<polygon fill="#000000" stroke="#000000" stroke-width=".6" points="426.0001,-46.4132 422.5,-36.4133 419.0001,-46.4133 426.0001,-46.4132"/>
</g>
</g>
</svg>
