<?xml version="1.0" encoding="UTF-8" standalone="no"?>
<!DOCTYPE svg PUBLIC "-//W3C//DTD SVG 1.1//EN"
 "http://www.w3.org/Graphics/SVG/1.1/DTD/svg11.dtd">
<!-- Generated by graphviz version 2.40.1 (20161225.0304)
 -->
<!-- Title: %3 Pages: 1 -->
<svg width="885pt" height="404pt"
 viewBox="0.00 0.00 884.50 404.00" xmlns="http://www.w3.org/2000/svg" xmlns:xlink="http://www.w3.org/1999/xlink">
<g id="graph0" class="graph" transform="scale(1 1) rotate(0) translate(4 400)">
<title>%3</title>
<polygon fill="#ffffff" stroke="transparent" points="-4,4 -4,-400 880.5,-400 880.5,4 -4,4"/>
<!-- x -->
<g id="node1" class="node">
<title>x</title>
<polygon fill="none" stroke="#000000" stroke-width="1.2" points="393.5,-396 339.5,-396 339.5,-360 393.5,-360 393.5,-396"/>
<text text-anchor="middle" x="366.5" y="-375.2" font-family="trebuchet" font-size="11.00" fill="#000000">x</text>
</g>
<!-- get_date_features -->
<g id="node2" class="node">
<title>get_date_features</title>
<polygon fill="none" stroke="#000000" stroke-width="1.2" points="103,-324 0,-324 0,-288 103,-288 103,-324"/>
<text text-anchor="middle" x="51.5" y="-303.2" font-family="trebuchet" font-size="11.00" fill="#000000">get_date_features</text>
</g>
<!-- x&#45;&gt;get_date_features -->
<g id="edge1" class="edge">
<title>x&#45;&gt;get_date_features</title>
<path fill="none" stroke="#000000" stroke-width=".6" d="M339.3706,-378C262.9631,-378 51.5,-378 51.5,-378 51.5,-378 51.5,-334.1686 51.5,-334.1686"/>
<polygon fill="#000000" stroke="#000000" stroke-width=".6" points="55.0001,-334.1686 51.5,-324.1686 48.0001,-334.1687 55.0001,-334.1686"/>
</g>
<!-- target_rolling_rollingmean_7_by_store_id -->
<g id="node3" class="node">
<title>target_rolling_rollingmean_7_by_store_id</title>
<polygon fill="none" stroke="#000000" stroke-width="1.2" points="356,-324 121,-324 121,-288 356,-288 356,-324"/>
<text text-anchor="middle" x="238.5" y="-303.2" font-family="trebuchet" font-size="11.00" fill="#000000">target_rolling_rollingmean_7_by_store_id</text>
</g>
<!-- x&#45;&gt;target_rolling_rollingmean_7_by_store_id -->
<g id="edge2" class="edge">
<title>x&#45;&gt;target_rolling_rollingmean_7_by_store_id</title>
<path fill="none" stroke="#000000" stroke-width=".6" d="M347.75,-359.8314C347.75,-359.8314 347.75,-334.4133 347.75,-334.4133"/>
<polygon fill="#000000" stroke="#000000" stroke-width=".6" points="351.2501,-334.4132 347.75,-324.4133 344.2501,-334.4133 351.2501,-334.4132"/>
</g>
<!-- target_rolling_rollingmean_14_by_store_id -->
<g id="node4" class="node">
<title>target_rolling_rollingmean_14_by_store_id</title>
<polygon fill="none" stroke="#000000" stroke-width="1.2" points="616.5,-324 374.5,-324 374.5,-288 616.5,-288 616.5,-324"/>
<text text-anchor="middle" x="495.5" y="-303.2" font-family="trebuchet" font-size="11.00" fill="#000000">target_rolling_rollingmean_14_by_store_id</text>
</g>
<!-- x&#45;&gt;target_rolling_rollingmean_14_by_store_id -->
<g id="edge3" class="edge">
<title>x&#45;&gt;target_rolling_rollingmean_14_by_store_id</title>
<path fill="none" stroke="#000000" stroke-width=".6" d="M384,-359.8314C384,-359.8314 384,-334.4133 384,-334.4133"/>
<polygon fill="#000000" stroke="#000000" stroke-width=".6" points="387.5001,-334.4132 384,-324.4133 380.5001,-334.4133 387.5001,-334.4132"/>
</g>
<!-- target_rolling_rollingmean_21_by_store_id -->
<g id="node5" class="node">
<title>target_rolling_rollingmean_21_by_store_id</title>
<polygon fill="none" stroke="#000000" stroke-width="1.2" points="876.5,-324 634.5,-324 634.5,-288 876.5,-288 876.5,-324"/>
<text text-anchor="middle" x="755.5" y="-303.2" font-family="trebuchet" font-size="11.00" fill="#000000">target_rolling_rollingmean_21_by_store_id</text>
</g>
<!-- x&#45;&gt;target_rolling_rollingmean_21_by_store_id -->
<g id="edge4" class="edge">
<title>x&#45;&gt;target_rolling_rollingmean_21_by_store_id</title>
<path fill="none" stroke="#000000" stroke-width=".6" d="M393.5449,-378C481.7614,-378 755.5,-378 755.5,-378 755.5,-378 755.5,-334.1686 755.5,-334.1686"/>
<polygon fill="#000000" stroke="#000000" stroke-width=".6" points="759.0001,-334.1686 755.5,-324.1686 752.0001,-334.1687 759.0001,-334.1686"/>
</g>
<!-- ~(&#39;store_id&#39;, &#39;date&#39;, &#39;genre_name&#39;, &#39;area_name&#39;, &#39;latitude&#39;, &#39;longitude&#39;) -->
<g id="node6" class="node">
<title>~(&#39;store_id&#39;, &#39;date&#39;, &#39;genre_name&#39;, &#39;area_name&#39;, &#39;latitude&#39;, &#39;longitude&#39;)</title>
<polygon fill="none" stroke="#000000" stroke-width="1.2" points="564,-252 169,-252 169,-216 564,-216 564,-252"/>
<text text-anchor="middle" x="366.5" y="-231.2" font-family="trebuchet" font-size="11.00" fill="#000000">~(&#39;store_id&#39;, &#39;date&#39;, &#39;genre_name&#39;, &#39;area_name&#39;, &#39;latitude&#39;, &#39;longitude&#39;)</text>
</g>
<!-- get_date_features&#45;&gt;~(&#39;store_id&#39;, &#39;date&#39;, &#39;genre_name&#39;, &#39;area_name&#39;, &#39;latitude&#39;, &#39;longitude&#39;) -->
<g id="edge5" class="edge">
<title>get_date_features&#45;&gt;~(&#39;store_id&#39;, &#39;date&#39;, &#39;genre_name&#39;, &#39;area_name&#39;, &#39;latitude&#39;, &#39;longitude&#39;)</title>
<path fill="none" stroke="#000000" stroke-width=".6" d="M51.5,-287.8314C51.5,-266.502 51.5,-234 51.5,-234 51.5,-234 158.7944,-234 158.7944,-234"/>
<polygon fill="#000000" stroke="#000000" stroke-width=".6" points="158.7944,-237.5001 168.7944,-234 158.7943,-230.5001 158.7944,-237.5001"/>
</g>
<!-- target_rolling_rollingmean_7_by_store_id&#45;&gt;~(&#39;store_id&#39;, &#39;date&#39;, &#39;genre_name&#39;, &#39;area_name&#39;, &#39;latitude&#39;, &#39;longitude&#39;) -->
<g id="edge6" class="edge">
<title>target_rolling_rollingmean_7_by_store_id&#45;&gt;~(&#39;store_id&#39;, &#39;date&#39;, &#39;genre_name&#39;, &#39;area_name&#39;, &#39;latitude&#39;, &#39;longitude&#39;)</title>
<path fill="none" stroke="#000000" stroke-width=".6" d="M262.5,-287.8314C262.5,-287.8314 262.5,-262.4133 262.5,-262.4133"/>
<polygon fill="#000000" stroke="#000000" stroke-width=".6" points="266.0001,-262.4132 262.5,-252.4133 259.0001,-262.4133 266.0001,-262.4132"/>
</g>
<!-- target_rolling_rollingmean_14_by_store_id&#45;&gt;~(&#39;store_id&#39;, &#39;date&#39;, &#39;genre_name&#39;, &#39;area_name&#39;, &#39;latitude&#39;, &#39;longitude&#39;) -->
<g id="edge7" class="edge">
<title>target_rolling_rollingmean_14_by_store_id&#45;&gt;~(&#39;store_id&#39;, &#39;date&#39;, &#39;genre_name&#39;, &#39;area_name&#39;, &#39;latitude&#39;, &#39;longitude&#39;)</title>
<path fill="none" stroke="#000000" stroke-width=".6" d="M469.25,-287.8314C469.25,-287.8314 469.25,-262.4133 469.25,-262.4133"/>
<polygon fill="#000000" stroke="#000000" stroke-width=".6" points="472.7501,-262.4132 469.25,-252.4133 465.7501,-262.4133 472.7501,-262.4132"/>
</g>
<!-- target_rolling_rollingmean_21_by_store_id&#45;&gt;~(&#39;store_id&#39;, &#39;date&#39;, &#39;genre_name&#39;, &#39;area_name&#39;, &#39;latitude&#39;, &#39;longitude&#39;) -->
<g id="edge8" class="edge">
<title>target_rolling_rollingmean_21_by_store_id&#45;&gt;~(&#39;store_id&#39;, &#39;date&#39;, &#39;genre_name&#39;, &#39;area_name&#39;, &#39;latitude&#39;, &#39;longitude&#39;)</title>
<path fill="none" stroke="#000000" stroke-width=".6" d="M755.5,-287.8314C755.5,-266.502 755.5,-234 755.5,-234 755.5,-234 574.1339,-234 574.1339,-234"/>
<polygon fill="#000000" stroke="#000000" stroke-width=".6" points="574.1339,-230.5001 564.1339,-234 574.1339,-237.5001 574.1339,-230.5001"/>
</g>
<!-- StandardScaler -->
<g id="node7" class="node">
<title>StandardScaler</title>
<polygon fill="none" stroke="#000000" stroke-width="1.2" points="410.5,-180 322.5,-180 322.5,-144 410.5,-144 410.5,-180"/>
<text text-anchor="middle" x="366.5" y="-159.2" font-family="trebuchet" font-size="11.00" fill="#000000">StandardScaler</text>
</g>
<!-- ~(&#39;store_id&#39;, &#39;date&#39;, &#39;genre_name&#39;, &#39;area_name&#39;, &#39;latitude&#39;, &#39;longitude&#39;)&#45;&gt;StandardScaler -->
<g id="edge10" class="edge">
<title>~(&#39;store_id&#39;, &#39;date&#39;, &#39;genre_name&#39;, &#39;area_name&#39;, &#39;latitude&#39;, &#39;longitude&#39;)&#45;&gt;StandardScaler</title>
<path fill="none" stroke="#000000" stroke-width=".6" d="M366.5,-215.8314C366.5,-215.8314 366.5,-190.4133 366.5,-190.4133"/>
<polygon fill="#000000" stroke="#000000" stroke-width=".6" points="370.0001,-190.4132 366.5,-180.4133 363.0001,-190.4133 370.0001,-190.4132"/>
</g>
<!-- LinearRegression -->
<g id="node8" class="node">
<title>LinearRegression</title>
<polygon fill="none" stroke="#000000" stroke-width="1.2" points="415,-108 318,-108 318,-72 415,-72 415,-108"/>
<text text-anchor="middle" x="366.5" y="-87.2" font-family="trebuchet" font-size="11.00" fill="#000000">LinearRegression</text>
</g>
<!-- StandardScaler&#45;&gt;LinearRegression -->
<g id="edge11" class="edge">
<title>StandardScaler&#45;&gt;LinearRegression</title>
<path fill="none" stroke="#000000" stroke-width=".6" d="M366.5,-143.8314C366.5,-143.8314 366.5,-118.4133 366.5,-118.4133"/>
<polygon fill="#000000" stroke="#000000" stroke-width=".6" points="370.0001,-118.4132 366.5,-108.4133 363.0001,-118.4133 370.0001,-118.4132"/>
</g>
<!-- y -->
<g id="node9" class="node">
<title>y</title>
<polygon fill="none" stroke="#000000" stroke-width="1.2" points="393.5,-36 339.5,-36 339.5,0 393.5,0 393.5,-36"/>
<text text-anchor="middle" x="366.5" y="-15.2" font-family="trebuchet" font-size="11.00" fill="#000000">y</text>
</g>
<!-- LinearRegression&#45;&gt;y -->
<g id="edge9" class="edge">
<title>LinearRegression&#45;&gt;y</title>
<path fill="none" stroke="#000000" stroke-width=".6" d="M366.5,-71.8314C366.5,-71.8314 366.5,-46.4133 366.5,-46.4133"/>
<polygon fill="#000000" stroke="#000000" stroke-width=".6" points="370.0001,-46.4132 366.5,-36.4133 363.0001,-46.4133 370.0001,-46.4132"/>
</g>
</g>
</svg>
