<?xml version="1.0" encoding="UTF-8" standalone="no"?>
<!DOCTYPE svg PUBLIC "-//W3C//DTD SVG 1.1//EN"
 "http://www.w3.org/Graphics/SVG/1.1/DTD/svg11.dtd">
<!-- Generated by graphviz version 2.40.1 (20161225.0304)
 -->
<!-- Title: %3 Pages: 1 -->
<svg width="198pt" height="263pt"
 viewBox="0.00 0.00 198.00 263.00" xmlns="http://www.w3.org/2000/svg" xmlns:xlink="http://www.w3.org/1999/xlink">
<g id="graph0" class="graph" transform="scale(1 1) rotate(0) translate(4 259)">
<title>%3</title>
<polygon fill="#ffffff" stroke="transparent" points="-4,4 -4,-259 194,-259 194,4 -4,4"/>
<g id="clust1" class="cluster">
<title>cluster_RandomUnderSampler</title>
<polygon fill="none" stroke="#000000" points="8,-64 8,-139 182,-139 182,-64 8,-64"/>
<text text-anchor="middle" x="95" y="-123.8" font-family="Times,serif" font-size="14.00" fill="#000000">RandomUnderSampler</text>
</g>
<!-- x -->
<g id="node1" class="node">
<title>x</title>
<ellipse fill="none" stroke="#000000" cx="95" cy="-237" rx="27" ry="18"/>
<text text-anchor="middle" x="95" y="-233.3" font-family="Times,serif" font-size="14.00" fill="#000000">x</text>
</g>
<!-- StandardScaler -->
<g id="node2" class="node">
<title>StandardScaler</title>
<ellipse fill="none" stroke="#000000" cx="95" cy="-165" rx="63.8893" ry="18"/>
<text text-anchor="middle" x="95" y="-161.3" font-family="Times,serif" font-size="14.00" fill="#000000">StandardScaler</text>
</g>
<!-- x&#45;&gt;StandardScaler -->
<g id="edge1" class="edge">
<title>x&#45;&gt;StandardScaler</title>
<path fill="none" stroke="#000000" d="M95,-218.8314C95,-211.131 95,-201.9743 95,-193.4166"/>
<polygon fill="#000000" stroke="#000000" points="98.5001,-193.4132 95,-183.4133 91.5001,-193.4133 98.5001,-193.4132"/>
</g>
<!-- LogisticRegression -->
<g id="node3" class="node">
<title>LogisticRegression</title>
<ellipse fill="none" stroke="#000000" cx="95" cy="-90" rx="78.7863" ry="18"/>
<text text-anchor="middle" x="95" y="-86.3" font-family="Times,serif" font-size="14.00" fill="#000000">LogisticRegression</text>
</g>
<!-- StandardScaler&#45;&gt;LogisticRegression -->
<g id="edge2" class="edge">
<title>StandardScaler&#45;&gt;LogisticRegression</title>
<path fill="none" stroke="#000000" d="M95,-146.8446C95,-138.3401 95,-128.0076 95,-118.4964"/>
<polygon fill="#000000" stroke="#000000" points="98.5001,-118.2481 95,-108.2482 91.5001,-118.2482 98.5001,-118.2481"/>
</g>
<!-- y -->
<g id="node4" class="node">
<title>y</title>
<ellipse fill="none" stroke="#000000" cx="95" cy="-18" rx="27" ry="18"/>
<text text-anchor="middle" x="95" y="-14.3" font-family="Times,serif" font-size="14.00" fill="#000000">y</text>
</g>
<!-- LogisticRegression&#45;&gt;y -->
<g id="edge3" class="edge">
<title>LogisticRegression&#45;&gt;y</title>
<path fill="none" stroke="#000000" d="M95,-71.8314C95,-64.131 95,-54.9743 95,-46.4166"/>
<polygon fill="#000000" stroke="#000000" points="98.5001,-46.4132 95,-36.4133 91.5001,-46.4133 98.5001,-46.4132"/>
</g>
</g>
</svg>
