<?xml version="1.0" encoding="UTF-8" standalone="no"?>
<!DOCTYPE svg PUBLIC "-//W3C//DTD SVG 1.1//EN"
 "http://www.w3.org/Graphics/SVG/1.1/DTD/svg11.dtd">
<!-- Generated by graphviz version 2.40.1 (20161225.0304)
 -->
<!-- Title: %3 Pages: 1 -->
<svg width="306pt" height="332pt"
 viewBox="0.00 0.00 306.39 332.00" xmlns="http://www.w3.org/2000/svg" xmlns:xlink="http://www.w3.org/1999/xlink">
<g id="graph0" class="graph" transform="scale(1 1) rotate(0) translate(4 328)">
<title>%3</title>
<polygon fill="#ffffff" stroke="transparent" points="-4,4 -4,-328 302.3875,-328 302.3875,4 -4,4"/>
<!-- x -->
<g id="node1" class="node">
<title>x</title>
<ellipse fill="none" stroke="#000000" cx="162.1926" cy="-306" rx="27" ry="18"/>
<text text-anchor="middle" x="162.1926" y="-302.3" font-family="Times,serif" font-size="14.00" fill="#000000">x</text>
</g>
<!-- StandardScaler -->
<g id="node2" class="node">
<title>StandardScaler</title>
<ellipse fill="none" stroke="#000000" cx="162.1926" cy="-234" rx="63.8893" ry="18"/>
<text text-anchor="middle" x="162.1926" y="-230.3" font-family="Times,serif" font-size="14.00" fill="#000000">StandardScaler</text>
</g>
<!-- x&#45;&gt;StandardScaler -->
<g id="edge1" class="edge">
<title>x&#45;&gt;StandardScaler</title>
<path fill="none" stroke="#000000" d="M162.1926,-287.8314C162.1926,-280.131 162.1926,-270.9743 162.1926,-262.4166"/>
<polygon fill="#000000" stroke="#000000" points="165.6927,-262.4132 162.1926,-252.4133 158.6927,-262.4133 165.6927,-262.4132"/>
</g>
<!-- PolynomialExtender -->
<g id="node3" class="node">
<title>PolynomialExtender</title>
<ellipse fill="none" stroke="#000000" cx="83.1926" cy="-162" rx="83.3857" ry="18"/>
<text text-anchor="middle" x="83.1926" y="-158.3" font-family="Times,serif" font-size="14.00" fill="#000000">PolynomialExtender</text>
</g>
<!-- StandardScaler&#45;&gt;PolynomialExtender -->
<g id="edge2" class="edge">
<title>StandardScaler&#45;&gt;PolynomialExtender</title>
<path fill="none" stroke="#000000" d="M143.0689,-216.5708C133.1476,-207.5286 120.8645,-196.3338 110.0106,-186.4417"/>
<polygon fill="#000000" stroke="#000000" points="112.1626,-183.6675 102.414,-179.5182 107.4473,-188.8411 112.1626,-183.6675"/>
</g>
<!-- RBFSampler -->
<g id="node4" class="node">
<title>RBFSampler</title>
<ellipse fill="none" stroke="#000000" cx="241.1926" cy="-162" rx="57.3905" ry="18"/>
<text text-anchor="middle" x="241.1926" y="-158.3" font-family="Times,serif" font-size="14.00" fill="#000000">RBFSampler</text>
</g>
<!-- StandardScaler&#45;&gt;RBFSampler -->
<g id="edge3" class="edge">
<title>StandardScaler&#45;&gt;RBFSampler</title>
<path fill="none" stroke="#000000" d="M181.3163,-216.5708C191.3846,-207.3946 203.8852,-196.0017 214.8561,-186.0029"/>
<polygon fill="#000000" stroke="#000000" points="217.4843,-188.3431 222.5176,-179.0202 212.7691,-183.1695 217.4843,-188.3431"/>
</g>
<!-- LinearRegression -->
<g id="node5" class="node">
<title>LinearRegression</title>
<ellipse fill="none" stroke="#000000" cx="162.1926" cy="-90" rx="72.5877" ry="18"/>
<text text-anchor="middle" x="162.1926" y="-86.3" font-family="Times,serif" font-size="14.00" fill="#000000">LinearRegression</text>
</g>
<!-- PolynomialExtender&#45;&gt;LinearRegression -->
<g id="edge4" class="edge">
<title>PolynomialExtender&#45;&gt;LinearRegression</title>
<path fill="none" stroke="#000000" d="M102.7207,-144.2022C112.5744,-135.2217 124.6783,-124.1902 135.3887,-114.4289"/>
<polygon fill="#000000" stroke="#000000" points="137.8558,-116.9159 142.8892,-107.593 133.1406,-111.7423 137.8558,-116.9159"/>
</g>
<!-- RBFSampler&#45;&gt;LinearRegression -->
<g id="edge5" class="edge">
<title>RBFSampler&#45;&gt;LinearRegression</title>
<path fill="none" stroke="#000000" d="M222.4707,-144.937C212.484,-135.8352 200.02,-124.4756 189.0218,-114.4519"/>
<polygon fill="#000000" stroke="#000000" points="191.0775,-111.5899 181.3289,-107.4407 186.3622,-116.7636 191.0775,-111.5899"/>
</g>
<!-- y -->
<g id="node6" class="node">
<title>y</title>
<ellipse fill="none" stroke="#000000" cx="162.1926" cy="-18" rx="27" ry="18"/>
<text text-anchor="middle" x="162.1926" y="-14.3" font-family="Times,serif" font-size="14.00" fill="#000000">y</text>
</g>
<!-- LinearRegression&#45;&gt;y -->
<g id="edge6" class="edge">
<title>LinearRegression&#45;&gt;y</title>
<path fill="none" stroke="#000000" d="M162.1926,-71.8314C162.1926,-64.131 162.1926,-54.9743 162.1926,-46.4166"/>
<polygon fill="#000000" stroke="#000000" points="165.6927,-46.4132 162.1926,-36.4133 158.6927,-46.4133 165.6927,-46.4132"/>
</g>
</g>
</svg>
