<?xml version="1.0" encoding="UTF-8" standalone="no"?>
<svg
   xmlns:dc="http://purl.org/dc/elements/1.1/"
   xmlns:cc="http://creativecommons.org/ns#"
   xmlns:rdf="http://www.w3.org/1999/02/22-rdf-syntax-ns#"
   xmlns:svg="http://www.w3.org/2000/svg"
   xmlns="http://www.w3.org/2000/svg"
   xmlns:sodipodi="http://sodipodi.sourceforge.net/DTD/sodipodi-0.dtd"
   xmlns:inkscape="http://www.inkscape.org/namespaces/inkscape"
   version="1.1"
   id="svg2"
   xml:space="preserve"
   width="259.99966"
   height="35.049129"
   viewBox="0 0 259.99965 35.049129"
   sodipodi:docname="skmultiflow-logo-wide-250px-web.svg"
   inkscape:export-filename="/Users/jmontiel/Documents/media/skmultiflow/logo/v2.0/skmultiflow-logo-wide.png"
   inkscape:export-xdpi="96"
   inkscape:export-ydpi="96"
   inkscape:version="1.0beta2 (2b71d25, 2019-12-03)"><metadata
     id="metadata8"><rdf:RDF><cc:Work
         rdf:about=""><dc:format>image/svg+xml</dc:format><dc:type
           rdf:resource="http://purl.org/dc/dcmitype/StillImage" /><dc:title></dc:title></cc:Work></rdf:RDF></metadata><defs
     id="defs6"><radialGradient
       fx="2.2737368e-13"
       fy="4.5474735e-13"
       cx="2.2737368e-13"
       cy="4.5474735e-13"
       r="1"
       gradientUnits="userSpaceOnUse"
       gradientTransform="matrix(3.1063977,1.6492457e-7,1.6492492e-7,-3.1063977,6000,6000)"
       spreadMethod="pad"
       id="radialGradient18"><stop
         style="stop-opacity:1;stop-color:#ffffff"
         offset="0"
         id="stop14" /><stop
         style="stop-opacity:1;stop-color:#f2fbfe"
         offset="1"
         id="stop16" /></radialGradient></defs><sodipodi:namedview
     pagecolor="#ffffff"
     bordercolor="#666666"
     borderopacity="1"
     objecttolerance="10"
     gridtolerance="10"
     guidetolerance="10"
     inkscape:pageopacity="0"
     inkscape:pageshadow="2"
     inkscape:window-width="1440"
     inkscape:window-height="805"
     id="namedview4"
     showgrid="false"
     inkscape:snap-global="true"
     inkscape:zoom="1.4227197"
     inkscape:cx="205.56854"
     inkscape:cy="75.859329"
     inkscape:window-x="0"
     inkscape:window-y="23"
     inkscape:window-maximized="1"
     inkscape:current-layer="text163"
     fit-margin-top="0"
     fit-margin-left="0"
     fit-margin-right="10"
     fit-margin-bottom="0"
     inkscape:document-rotation="0" /><g
     id="g10"
     inkscape:groupmode="layer"
     inkscape:label="ink_ext_XXXXXX"
     transform="matrix(1.3333333,0,0,-1.3333333,16.290943,296.02034)"><g
       id="g12"
       transform="scale(0.1)"><g
         id="g4776"><g
           id="g868"><g
             inkscape:export-ydpi="96"
             inkscape:export-xdpi="96"
             style="opacity:1"
             transform="matrix(1.0063907,0,0,1.0063907,-5579.5181,-7739.0585)"
             id="g4891"><g
   style="font-style:normal;font-weight:normal;font-size:208.959px;line-height:1.25;font-family:sans-serif;letter-spacing:0px;word-spacing:0px;opacity:0.86;fill:#000000;fill-opacity:1;stroke:none;stroke-width:1.31434"
   id="text163"
   transform="scale(1,-1)"
   aria-label="scikit-multiflow"><g
     id="g208"><g
       inkscape:export-ydpi="96"
       inkscape:export-xdpi="96"
       transform="matrix(0.14837044,0,0,-0.14837044,5387.0052,-8211.9317)"
       id="g196"
       style="opacity:0.86"><path
         inkscape:connector-curvature="0"
         id="path22"
         style="fill:#3fb9a9;fill-opacity:1;fill-rule:nonzero;stroke:none;stroke-width:0.544185"
         d="m 2280.25,10366.975 213.3258,173.818 c 318.3588,310.996 641.2889,489.945 978.1772,475.96 297.3697,-12.342 536.1742,-249.977 531.8371,-547.575 -4.3372,-297.593 -250.0039,-537.7959 -547.5749,-531.8316 -541.0229,10.8347 -920.9236,457.2076 -1105.3097,633.0826 -350.5474,369.365 -702.7436,712.381 -1239.0104,720.201 -427.29369,6.225 -778.73359,-335.109 -784.95899,-762.403 -11.2538,-771.7295 1243.84819,-1125.591 1944.36069,50.642 -314.7401,-319.572 -829.0163,-606.722 -1178.5515,-601.623 -297.59279,4.3371 -536.17419,249.977 -531.83709,547.569 4.3372,297.599 249.9821,536.18 547.57489,531.837 897.6107,-13.082 1194.0172,-1324.0388 2344.3201,-1353.2833 427.2012,-10.8564 778.7336,335.1093 784.959,762.4023 11.0688,759.187 -1151.6687,1250.063 -1957.3122,-98.796" /><path
         inkscape:connector-curvature="0"
         id="path24"
         style="fill:#f9da06;fill-opacity:1;fill-rule:nonzero;stroke:none;stroke-width:0.544185"
         d="m 567.65201,10603.7 c 0,0 -164.5179,-481.483 293.5822,-665.9455 355.54839,-143.1695 601.35659,60.1759 866.34729,317.5425 0,0 -982.85719,-549.0441 -1159.92949,348.403" /><path
         inkscape:connector-curvature="0"
         id="path26"
         style="fill:#f9da06;fill-opacity:1;fill-rule:nonzero;stroke:none;stroke-width:0.544185"
         d="m 3109.5111,11095.959 c 0,0 212.2701,307.448 655.367,155.99 552.9949,-189.022 598.1894,-639.591 527.07,-928.814 0,0 -110.6709,870.587 -1182.437,772.824" /><path
         inkscape:connector-curvature="0"
         id="path28"
         style="fill:#f46a17;fill-opacity:1;fill-rule:nonzero;stroke:none;stroke-width:0.544185"
         d="m 2483.8457,9990.2901 c 0,0 1144.0992,-415.7897 1496.2247,94.2909 0,0 -139.0228,-571.949 -758.1416,-486.0168 -438.134,60.8127 -738.0831,391.7259 -738.0831,391.7259" /><path
         inkscape:connector-curvature="0"
         id="path30"
         style="fill:#f46a17;fill-opacity:1;fill-rule:nonzero;stroke:none;stroke-width:0.544185"
         d="m 977.73871,11209.585 c 0,0 294.05559,260.125 697.69359,72.828 403.638,-187.303 545.8879,-577.859 545.8879,-577.859 0,0 -551.2046,462.279 -1243.58149,505.031" /><path
         inkscape:connector-curvature="0"
         id="path32"
         style="fill:#f03697;fill-opacity:1;fill-rule:nonzero;stroke:none;stroke-width:0.544185"
         d="m 279.96341,10323.57 c 0,0 -275.1941965,845.778 626.9714,1006.78 0,0 -651.4271,-557.321 -626.9714,-1006.78" /><path
         inkscape:connector-curvature="0"
         id="path34"
         style="fill:#f03697;fill-opacity:1;fill-rule:nonzero;stroke:none;stroke-width:0.544185"
         d="m 2490.7133,10461.87 c 0,0 154.222,-568.3468 866.7991,-517.6778 0,0 -649.43,246.0148 -866.7991,517.6778" /><path
         inkscape:connector-curvature="0"
         id="path36"
         style="fill:#f03697;fill-opacity:1;fill-rule:nonzero;stroke:none;stroke-width:0.544185"
         d="m 4092.1126,10552.318 c 0,0 95.1452,-441.725 -159.8053,-757.3031 0,0 572.7707,341.0191 159.8053,757.3031" /><path
         inkscape:connector-curvature="0"
         id="path38"
         style="fill:#f03697;fill-opacity:1;fill-rule:nonzero;stroke:none;stroke-width:0.544185"
         d="m 2023.2316,10500.752 c 0,0 -64.1812,574.892 -823.15,529.665 0,0 545.4362,-167.005 823.15,-529.665" /><path
         inkscape:connector-curvature="0"
         id="path40"
         style="fill:#2c65ad;fill-opacity:1;fill-rule:nonzero;stroke:none;stroke-width:0.544185"
         d="m 274.45081,10255.101 c 0,0 203.2203,-343.8429 813.88789,-418.6193 0,0 -733.30499,-275.9396 -813.88789,418.6193" /><path
         inkscape:connector-curvature="0"
         id="path42"
         style="fill:#2c65ad;fill-opacity:1;fill-rule:nonzero;stroke:none;stroke-width:0.544185"
         d="m 2643.4932,10737.205 c 0,0 85.9485,420.535 577.2601,522.679 0,0 -344.7355,-252.132 -577.2601,-522.679" /><path
         inkscape:connector-curvature="0"
         id="path44"
         style="fill:#2c65ad;fill-opacity:1;fill-rule:nonzero;stroke:none;stroke-width:0.544185"
         d="m 3610.9772,10899.073 c 0,0 505.6781,-409.575 140.0296,-847.432 0,0 372.3093,177.328 276.1574,525.704 -53.4118,193.513 -278.3396,320.095 -416.187,321.728" /><path
         inkscape:connector-curvature="0"
         id="path46"
         style="fill:#2c65ad;fill-opacity:1;fill-rule:nonzero;stroke:none;stroke-width:0.544185"
         d="m 630.70131,10550.67 c 0,0 -115.2148,558.621 476.42269,574.484 0,0 -368.29329,-126.153 -476.42269,-574.484" /><path
         inkscape:connector-curvature="0"
         id="path48"
         style="fill:#f46a17;fill-opacity:1;fill-rule:nonzero;stroke:none;stroke-width:0.544185"
         d="m 1124.761,9752.4977 c 0,0 565.7996,196.8098 756.1282,441.4643 0,0 -59.2835,-582.0761 -756.1282,-441.4643" /><path
         inkscape:connector-curvature="0"
         id="path50"
         style="fill:#f9da06;fill-opacity:1;fill-rule:nonzero;stroke:none;stroke-width:0.544185"
         d="m 2191.9995,10379.703 c 0,0 82.8086,-386.36 636.9355,-361.79 0,0 -380.7334,150.587 -636.9355,361.79" /></g><path
       inkscape:connector-curvature="0"
       d="m 6126.4287,-9696.6741 c 17.5526,0 36.1499,-9.1942 36.3589,-28.8364 0,-8.3583 -3.7613,-13.7913 -8.7763,-17.7615 -4.8061,-3.7613 -10.6569,-5.8508 -16.2988,-8.1494 -5.8509,-2.2985 -12.1196,-4.806 -16.7167,-6.8956 -4.8061,-2.0896 -7.9405,-5.0151 -7.9405,-10.239 0.209,-9.8211 9.8211,-14.4182 18.5974,-14.4182 6.6867,0.209 13.1644,2.0896 20.0601,6.0598 l 5.6418,-8.9852 c -8.3583,-4.5971 -17.1346,-7.7315 -26.5377,-7.7315 -16.2988,0 -31.9708,9.6121 -31.9708,27.1647 0,8.5673 3.7613,13.7913 8.7763,17.3436 4.8061,3.7612 10.6569,5.8508 16.2988,7.9404 2.9254,0.8358 5.8509,2.0896 8.5673,3.1344 6.8957,2.7165 15.0451,5.4329 15.254,14.4182 0.418,11.4927 -11.4927,16.0898 -21.5227,16.0898 -8.1494,-0.209 -17.3436,-3.3433 -23.6124,-8.1494 l -5.4329,8.7763 c 7.9404,6.0598 18.5973,10.239 29.2542,10.239 z"
       style="font-style:normal;font-variant:normal;font-weight:normal;font-stretch:normal;font-family:Flux;-inkscape-font-specification:Flux;stroke-width:1.31434"
       id="path127" /><path
       inkscape:connector-curvature="0"
       d="m 6214.8086,-9697.301 c 13.3734,0 24.6571,-3.7613 33.6424,-9.6121 l -3.9702,-7.9405 c -8.3584,3.9703 -15.463,7.5226 -25.2841,7.3136 -17.3436,-0.209 -26.1199,-19.8511 -26.1199,-36.3589 0,-17.3436 8.1494,-38.0305 24.6572,-38.8663 7.1046,-0.418 15.6719,2.0895 21.9407,5.015 l 4.3881,-8.1494 c -14.4181,-8.9853 -33.8513,-9.6121 -46.5978,-0.8359 -12.7465,8.7763 -19.8511,25.702 -19.8511,42.8366 0,22.9855 13.7913,46.3889 37.1947,46.5979 z"
       style="font-style:normal;font-variant:normal;font-weight:normal;font-stretch:normal;font-family:Flux;-inkscape-font-specification:Flux;stroke-width:1.31434"
       id="path129" /><path
       inkscape:connector-curvature="0"
       d="m 6269.8366,-9699.1816 h 15.0451 v -93.8226 l -15.0451,5.015 z m -2.5075,-123.2859 c 0,5.433 4.3882,9.8211 9.8211,9.8211 5.6419,0 10.03,-4.3881 10.03,-9.8211 0,-5.6418 -4.3881,-10.03 -9.8211,-10.03 -5.6418,0 -10.03,4.3882 -10.03,9.8211 z"
       style="font-style:normal;font-variant:normal;font-weight:normal;font-stretch:normal;font-family:Flux;-inkscape-font-specification:Flux;stroke-width:1.31434"
       id="path131" /><path
       inkscape:connector-curvature="0"
       d="m 6385.946,-9699.1816 -38.4485,-59.7623 30.2991,-27.3736 -7.5225,-7.1046 -42.8366,38.8663 v -90.2703 l -15.254,5.224 v 140.4205 h 15.254 v -41.3739 l 8.5673,-7.7315 31.9707,49.1054 z"
       style="font-style:normal;font-variant:normal;font-weight:normal;font-stretch:normal;font-family:Flux;-inkscape-font-specification:Flux;stroke-width:1.31434"
       id="path133" /><path
       inkscape:connector-curvature="0"
       d="m 6401.6604,-9699.1816 h 15.045 v -93.8226 l -15.045,5.015 z m -2.5076,-123.2859 c 0,5.433 4.3882,9.8211 9.8211,9.8211 5.6419,0 10.0301,-4.3881 10.0301,-9.8211 0,-5.6418 -4.3882,-10.03 -9.8211,-10.03 -5.6419,0 -10.0301,4.3882 -10.0301,9.8211 z"
       style="font-style:normal;font-variant:normal;font-weight:normal;font-stretch:normal;font-family:Flux;-inkscape-font-specification:Flux;stroke-width:1.31434"
       id="path135" /><path
       inkscape:connector-curvature="0"
       d="m 6447.9774,-9780.8846 v 59.9712 c 0,15.6719 12.1196,24.8661 32.3887,22.9855 v -7.9404 c -10.6569,-0.4179 -17.1347,-3.3434 -17.1347,-15.463 v -59.5533 h 17.1347 v -9.8211 h -17.1347 v -30.9259 l -15.254,5.4329 v 25.493 h -10.4479 v 9.8211 z"
       style="font-style:normal;font-variant:normal;font-weight:normal;font-stretch:normal;font-family:Flux;-inkscape-font-specification:Flux;stroke-width:1.31434"
       id="path137" /><path
       inkscape:connector-curvature="0"
       d="m 6503.6324,-9747.0333 h 39.9111 v -15.8808 h -33.6424 -6.2687 z"
       style="font-style:normal;font-variant:normal;font-weight:normal;font-stretch:normal;font-family:Flux;-inkscape-font-specification:Flux;stroke-width:1.31434"
       id="path139" /><path
       inkscape:connector-curvature="0"
       d="m 6689.4132,-9768.1381 c 0,-15.254 -14.4181,-24.8661 -28.2094,-24.8661 -12.1197,0.2089 -20.687,3.3433 -29.8812,8.9852 -5.4329,-5.8508 -13.7913,-8.9852 -22.1496,-8.9852 -17.1347,0.2089 -25.493,5.4329 -38.8664,15.254 v 78.5686 h 15.254 v -76.688 c 2.2986,-2.5075 8.5673,-6.4777 14.2092,-6.6867 15.6719,-1.0448 22.3586,7.1046 22.3586,21.1049 v 62.2698 h 15.254 v -70.0013 c 0,-2.2986 -0.2089,-5.015 -0.8358,-6.8957 3.5523,-2.7164 10.03,-6.4777 15.463,-6.6866 15.254,-0.6269 21.9407,7.3135 21.9407,21.3138 l 0.2089,62.2698 h 15.254 z"
       style="font-style:normal;font-variant:normal;font-weight:normal;font-stretch:normal;font-family:Flux;-inkscape-font-specification:Flux;stroke-width:1.31434"
       id="path141" /><path
       inkscape:connector-curvature="0"
       d="m 6713.7472,-9787.7803 v 63.9415 c 0,18.1794 15.8808,26.3288 29.6721,26.3288 17.9705,0 32.8066,-5.8508 45.5531,-15.045 v -78.7776 h -15.254 v 76.688 c -5.015,3.3433 -12.5375,7.1046 -20.6869,7.3136 -13.3734,0.2089 -23.6124,-7.7315 -23.6124,-21.7318 v -63.9414 z"
       style="font-style:normal;font-variant:normal;font-weight:normal;font-stretch:normal;font-family:Flux;-inkscape-font-specification:Flux;stroke-width:1.31434"
       id="path143" /><path
       inkscape:connector-curvature="0"
       d="m 6845.5677,-9697.7189 v -7.9405 c -10.6569,-0.4179 -17.1347,-3.3433 -17.1347,-15.4629 v -123.7038 l -14.8361,4.8061 v 119.3156 c 0,15.6719 11.7017,24.8661 31.9708,22.9855 z"
       style="font-style:normal;font-variant:normal;font-weight:normal;font-stretch:normal;font-family:Flux;-inkscape-font-specification:Flux;stroke-width:1.31434"
       id="path145" /><path
       inkscape:connector-curvature="0"
       d="m 6864.671,-9780.8846 v 59.9712 c 0,15.6719 12.1197,24.8661 32.3887,22.9855 v -7.9404 c -10.6569,-0.4179 -17.1347,-3.3434 -17.1347,-15.463 v -59.5533 h 17.1347 v -9.8211 h -17.1347 v -30.9259 l -15.254,5.4329 v 25.493 h -10.4479 v 9.8211 z"
       style="font-style:normal;font-variant:normal;font-weight:normal;font-stretch:normal;font-family:Flux;-inkscape-font-specification:Flux;stroke-width:1.31434"
       id="path147" /><path
       inkscape:connector-curvature="0"
       d="m 6922.8335,-9699.1816 h 15.045 v -93.8226 l -15.045,5.015 z m -2.5075,-123.2859 c 0,5.433 4.3881,9.8211 9.821,9.8211 5.6419,0 10.0301,-4.3881 10.0301,-9.8211 0,-5.6418 -4.3882,-10.03 -9.8211,-10.03 -5.6419,0 -10.03,4.3882 -10.03,9.8211 z"
       style="font-style:normal;font-variant:normal;font-weight:normal;font-stretch:normal;font-family:Flux;-inkscape-font-specification:Flux;stroke-width:1.31434"
       id="path149" /><path
       inkscape:connector-curvature="0"
       d="m 7007.808,-9846.0798 c 4.3881,0 7.5225,0.8358 11.0748,2.0896 l -3.3433,9.1942 c -0.6269,-0.209 -1.2538,-0.4179 -1.8806,-0.6269 -28.2095,-4.8061 -30.717,17.5525 -30.717,33.4334 l -0.209,11.4928 h 21.1049 v 10.6569 h -21.1049 v 80.6582 h -15.254 v -80.6582 h -9.8211 v -10.6569 h 9.8211 v -10.448 c 0,-31.5528 15.6719,-45.1351 40.1201,-45.1351 z"
       style="font-style:normal;font-variant:normal;font-weight:normal;font-stretch:normal;font-family:Flux;-inkscape-font-specification:Flux;stroke-width:1.31434"
       id="path151" /><path
       inkscape:connector-curvature="0"
       d="m 7054.9347,-9697.7189 v -7.9405 c -10.6569,-0.4179 -17.1346,-3.3433 -17.1346,-15.4629 v -123.7038 l -14.8361,4.8061 v 119.3156 c 0,15.6719 11.7017,24.8661 31.9707,22.9855 z"
       style="font-style:normal;font-variant:normal;font-weight:normal;font-stretch:normal;font-family:Flux;-inkscape-font-specification:Flux;stroke-width:1.31434"
       id="path153" /><path
       inkscape:connector-curvature="0"
       d="m 7065.6798,-9746.6153 c 0,25.284 13.3734,49.1053 41.5828,49.3143 28.4185,-0.209 42.2098,-24.0303 42.2098,-49.3143 -0.209,-24.6572 -15.672,-46.18 -42.0008,-46.3889 -26.1199,0.2089 -41.7918,21.7317 -41.7918,46.3889 z m 16.5078,0 c 0,-16.5078 4.1791,-34.6872 25.075,-35.941 19.6422,1.0448 25.493,19.4332 25.493,35.941 0,17.5525 -3.7612,39.2843 -25.075,39.9111 -19.6422,-0.2089 -25.2841,-22.3586 -25.2841,-39.9111 z"
       style="font-style:normal;font-variant:normal;font-weight:normal;font-stretch:normal;font-family:Flux;-inkscape-font-specification:Flux;stroke-width:1.31434"
       id="path155" /><path
       inkscape:connector-curvature="0"
       d="m 7260.9063,-9701.8981 24.8661,-87.7628 -9.4032,-3.3433 -20.06,71.255 -23.6124,-71.255 -14.0002,5.015 -18.5974,66.24 -23.4034,-71.255 -14.0003,5.015 29.4633,90.4792 12.5375,-4.3881 19.6421,-68.5386 24.0303,72.9267 z"
       style="font-style:normal;font-variant:normal;font-weight:normal;font-stretch:normal;font-family:Flux;-inkscape-font-specification:Flux;stroke-width:1.31434"
       id="path157" /></g></g>

</g><rect
             transform="scale(1,-1)"
             y="-2913.7185"
             x="-4646.8154"
             height="1650"
             width="10719.3"
             id="rect846"
             style="opacity:0.24;fill:none;fill-opacity:1;stroke:none;stroke-width:22.1304;stroke-linecap:round;stroke-linejoin:miter;stroke-miterlimit:4;stroke-dasharray:none;stroke-dashoffset:0;stroke-opacity:1" /></g></g><flowRoot
         xml:space="preserve"
         id="flowRoot165"
         style="font-style:normal;font-weight:normal;font-size:40px;line-height:1.25;font-family:sans-serif;letter-spacing:0px;word-spacing:0px;fill:#000000;fill-opacity:1;stroke:none"><flowRegion
           id="flowRegion167"><rect
             id="rect169"
             width="376.27118"
             height="247.45763"
             x="1291.5254"
             y="433.89832" /></flowRegion><flowPara
           id="flowPara171" /></flowRoot><flowRoot
         xml:space="preserve"
         id="flowRoot173"
         style="font-style:normal;font-weight:normal;font-size:40px;line-height:1.25;font-family:sans-serif;letter-spacing:0px;word-spacing:0px;fill:#000000;fill-opacity:1;stroke:none"><flowRegion
           id="flowRegion175"><rect
             id="rect177"
             width="2237.2881"
             height="200"
             x="-362.71185"
             y="359.32202" /></flowRegion><flowPara
           id="flowPara179" /></flowRoot></g></g></svg>
