<?xml version="1.0" encoding="utf-8" standalone="no"?>
<!DOCTYPE svg PUBLIC "-//W3C//DTD SVG 1.1//EN"
  "http://www.w3.org/Graphics/SVG/1.1/DTD/svg11.dtd">
<!-- Created with matplotlib (https://matplotlib.org/) -->
<svg height="288pt" version="1.1" viewBox="0 0 432 288" width="432pt" xmlns="http://www.w3.org/2000/svg" xmlns:xlink="http://www.w3.org/1999/xlink">
 <defs>
  <style type="text/css">
*{stroke-linecap:butt;stroke-linejoin:round;}
  </style>
 </defs>
 <g id="figure_1">
  <g id="patch_1">
   <path d="M 0 288 
L 432 288 
L 432 0 
L 0 0 
z
" style="fill:#ffffff;"/>
  </g>
  <g id="axes_1">
   <g id="patch_2">
    <path d="M 54 252 
L 388.8 252 
L 388.8 34.56 
L 54 34.56 
z
" style="fill:#ffffff;"/>
   </g>
   <g id="matplotlib.axis_1">
    <g id="xtick_1">
     <g id="line2d_1">
      <defs>
       <path d="M 0 0 
L 0 3.5 
" id="m5e6ffb6c18" style="stroke:#000000;stroke-width:0.8;"/>
      </defs>
      <g>
       <use style="stroke:#000000;stroke-width:0.8;" x="75.137002" xlink:href="#m5e6ffb6c18" y="252"/>
      </g>
     </g>
     <g id="text_1">
      <!-- −6 -->
      <defs>
       <path d="M 10.59375 35.5 
L 73.1875 35.5 
L 73.1875 27.203125 
L 10.59375 27.203125 
z
" id="DejaVuSans-8722"/>
       <path d="M 33.015625 40.375 
Q 26.375 40.375 22.484375 35.828125 
Q 18.609375 31.296875 18.609375 23.390625 
Q 18.609375 15.53125 22.484375 10.953125 
Q 26.375 6.390625 33.015625 6.390625 
Q 39.65625 6.390625 43.53125 10.953125 
Q 47.40625 15.53125 47.40625 23.390625 
Q 47.40625 31.296875 43.53125 35.828125 
Q 39.65625 40.375 33.015625 40.375 
z
M 52.59375 71.296875 
L 52.59375 62.3125 
Q 48.875 64.0625 45.09375 64.984375 
Q 41.3125 65.921875 37.59375 65.921875 
Q 27.828125 65.921875 22.671875 59.328125 
Q 17.53125 52.734375 16.796875 39.40625 
Q 19.671875 43.65625 24.015625 45.921875 
Q 28.375 48.1875 33.59375 48.1875 
Q 44.578125 48.1875 50.953125 41.515625 
Q 57.328125 34.859375 57.328125 23.390625 
Q 57.328125 12.15625 50.6875 5.359375 
Q 44.046875 -1.421875 33.015625 -1.421875 
Q 20.359375 -1.421875 13.671875 8.265625 
Q 6.984375 17.96875 6.984375 36.375 
Q 6.984375 53.65625 15.1875 63.9375 
Q 23.390625 74.21875 37.203125 74.21875 
Q 40.921875 74.21875 44.703125 73.484375 
Q 48.484375 72.75 52.59375 71.296875 
z
" id="DejaVuSans-54"/>
      </defs>
      <g transform="translate(67.765909 266.598437)scale(0.1 -0.1)">
       <use xlink:href="#DejaVuSans-8722"/>
       <use x="83.789062" xlink:href="#DejaVuSans-54"/>
      </g>
     </g>
    </g>
    <g id="xtick_2">
     <g id="line2d_2">
      <g>
       <use style="stroke:#000000;stroke-width:0.8;" x="124.201419" xlink:href="#m5e6ffb6c18" y="252"/>
      </g>
     </g>
     <g id="text_2">
      <!-- −4 -->
      <defs>
       <path d="M 37.796875 64.3125 
L 12.890625 25.390625 
L 37.796875 25.390625 
z
M 35.203125 72.90625 
L 47.609375 72.90625 
L 47.609375 25.390625 
L 58.015625 25.390625 
L 58.015625 17.1875 
L 47.609375 17.1875 
L 47.609375 0 
L 37.796875 0 
L 37.796875 17.1875 
L 4.890625 17.1875 
L 4.890625 26.703125 
z
" id="DejaVuSans-52"/>
      </defs>
      <g transform="translate(116.830325 266.598437)scale(0.1 -0.1)">
       <use xlink:href="#DejaVuSans-8722"/>
       <use x="83.789062" xlink:href="#DejaVuSans-52"/>
      </g>
     </g>
    </g>
    <g id="xtick_3">
     <g id="line2d_3">
      <g>
       <use style="stroke:#000000;stroke-width:0.8;" x="173.265836" xlink:href="#m5e6ffb6c18" y="252"/>
      </g>
     </g>
     <g id="text_3">
      <!-- −2 -->
      <defs>
       <path d="M 19.1875 8.296875 
L 53.609375 8.296875 
L 53.609375 0 
L 7.328125 0 
L 7.328125 8.296875 
Q 12.9375 14.109375 22.625 23.890625 
Q 32.328125 33.6875 34.8125 36.53125 
Q 39.546875 41.84375 41.421875 45.53125 
Q 43.3125 49.21875 43.3125 52.78125 
Q 43.3125 58.59375 39.234375 62.25 
Q 35.15625 65.921875 28.609375 65.921875 
Q 23.96875 65.921875 18.8125 64.3125 
Q 13.671875 62.703125 7.8125 59.421875 
L 7.8125 69.390625 
Q 13.765625 71.78125 18.9375 73 
Q 24.125 74.21875 28.421875 74.21875 
Q 39.75 74.21875 46.484375 68.546875 
Q 53.21875 62.890625 53.21875 53.421875 
Q 53.21875 48.921875 51.53125 44.890625 
Q 49.859375 40.875 45.40625 35.40625 
Q 44.1875 33.984375 37.640625 27.21875 
Q 31.109375 20.453125 19.1875 8.296875 
z
" id="DejaVuSans-50"/>
      </defs>
      <g transform="translate(165.894742 266.598437)scale(0.1 -0.1)">
       <use xlink:href="#DejaVuSans-8722"/>
       <use x="83.789062" xlink:href="#DejaVuSans-50"/>
      </g>
     </g>
    </g>
    <g id="xtick_4">
     <g id="line2d_4">
      <g>
       <use style="stroke:#000000;stroke-width:0.8;" x="222.330253" xlink:href="#m5e6ffb6c18" y="252"/>
      </g>
     </g>
     <g id="text_4">
      <!-- 0 -->
      <defs>
       <path d="M 31.78125 66.40625 
Q 24.171875 66.40625 20.328125 58.90625 
Q 16.5 51.421875 16.5 36.375 
Q 16.5 21.390625 20.328125 13.890625 
Q 24.171875 6.390625 31.78125 6.390625 
Q 39.453125 6.390625 43.28125 13.890625 
Q 47.125 21.390625 47.125 36.375 
Q 47.125 51.421875 43.28125 58.90625 
Q 39.453125 66.40625 31.78125 66.40625 
z
M 31.78125 74.21875 
Q 44.046875 74.21875 50.515625 64.515625 
Q 56.984375 54.828125 56.984375 36.375 
Q 56.984375 17.96875 50.515625 8.265625 
Q 44.046875 -1.421875 31.78125 -1.421875 
Q 19.53125 -1.421875 13.0625 8.265625 
Q 6.59375 17.96875 6.59375 36.375 
Q 6.59375 54.828125 13.0625 64.515625 
Q 19.53125 74.21875 31.78125 74.21875 
z
" id="DejaVuSans-48"/>
      </defs>
      <g transform="translate(219.149003 266.598437)scale(0.1 -0.1)">
       <use xlink:href="#DejaVuSans-48"/>
      </g>
     </g>
    </g>
    <g id="xtick_5">
     <g id="line2d_5">
      <g>
       <use style="stroke:#000000;stroke-width:0.8;" x="271.394669" xlink:href="#m5e6ffb6c18" y="252"/>
      </g>
     </g>
     <g id="text_5">
      <!-- 2 -->
      <g transform="translate(268.213419 266.598437)scale(0.1 -0.1)">
       <use xlink:href="#DejaVuSans-50"/>
      </g>
     </g>
    </g>
    <g id="xtick_6">
     <g id="line2d_6">
      <g>
       <use style="stroke:#000000;stroke-width:0.8;" x="320.459086" xlink:href="#m5e6ffb6c18" y="252"/>
      </g>
     </g>
     <g id="text_6">
      <!-- 4 -->
      <g transform="translate(317.277836 266.598437)scale(0.1 -0.1)">
       <use xlink:href="#DejaVuSans-52"/>
      </g>
     </g>
    </g>
    <g id="xtick_7">
     <g id="line2d_7">
      <g>
       <use style="stroke:#000000;stroke-width:0.8;" x="369.523503" xlink:href="#m5e6ffb6c18" y="252"/>
      </g>
     </g>
     <g id="text_7">
      <!-- 6 -->
      <g transform="translate(366.342253 266.598437)scale(0.1 -0.1)">
       <use xlink:href="#DejaVuSans-54"/>
      </g>
     </g>
    </g>
   </g>
   <g id="matplotlib.axis_2">
    <g id="ytick_1">
     <g id="line2d_8">
      <defs>
       <path d="M 0 0 
L -3.5 0 
" id="m5eddf4b5bd" style="stroke:#000000;stroke-width:0.8;"/>
      </defs>
      <g>
       <use style="stroke:#000000;stroke-width:0.8;" x="54" xlink:href="#m5eddf4b5bd" y="242.116364"/>
      </g>
     </g>
     <g id="text_8">
      <!-- 0 -->
      <g transform="translate(40.6375 245.915582)scale(0.1 -0.1)">
       <use xlink:href="#DejaVuSans-48"/>
      </g>
     </g>
    </g>
    <g id="ytick_2">
     <g id="line2d_9">
      <g>
       <use style="stroke:#000000;stroke-width:0.8;" x="54" xlink:href="#m5eddf4b5bd" y="211.705175"/>
      </g>
     </g>
     <g id="text_9">
      <!-- 10 -->
      <defs>
       <path d="M 12.40625 8.296875 
L 28.515625 8.296875 
L 28.515625 63.921875 
L 10.984375 60.40625 
L 10.984375 69.390625 
L 28.421875 72.90625 
L 38.28125 72.90625 
L 38.28125 8.296875 
L 54.390625 8.296875 
L 54.390625 0 
L 12.40625 0 
z
" id="DejaVuSans-49"/>
      </defs>
      <g transform="translate(34.275 215.504394)scale(0.1 -0.1)">
       <use xlink:href="#DejaVuSans-49"/>
       <use x="63.623047" xlink:href="#DejaVuSans-48"/>
      </g>
     </g>
    </g>
    <g id="ytick_3">
     <g id="line2d_10">
      <g>
       <use style="stroke:#000000;stroke-width:0.8;" x="54" xlink:href="#m5eddf4b5bd" y="181.293986"/>
      </g>
     </g>
     <g id="text_10">
      <!-- 20 -->
      <g transform="translate(34.275 185.093205)scale(0.1 -0.1)">
       <use xlink:href="#DejaVuSans-50"/>
       <use x="63.623047" xlink:href="#DejaVuSans-48"/>
      </g>
     </g>
    </g>
    <g id="ytick_4">
     <g id="line2d_11">
      <g>
       <use style="stroke:#000000;stroke-width:0.8;" x="54" xlink:href="#m5eddf4b5bd" y="150.882797"/>
      </g>
     </g>
     <g id="text_11">
      <!-- 30 -->
      <defs>
       <path d="M 40.578125 39.3125 
Q 47.65625 37.796875 51.625 33 
Q 55.609375 28.21875 55.609375 21.1875 
Q 55.609375 10.40625 48.1875 4.484375 
Q 40.765625 -1.421875 27.09375 -1.421875 
Q 22.515625 -1.421875 17.65625 -0.515625 
Q 12.796875 0.390625 7.625 2.203125 
L 7.625 11.71875 
Q 11.71875 9.328125 16.59375 8.109375 
Q 21.484375 6.890625 26.8125 6.890625 
Q 36.078125 6.890625 40.9375 10.546875 
Q 45.796875 14.203125 45.796875 21.1875 
Q 45.796875 27.640625 41.28125 31.265625 
Q 36.765625 34.90625 28.71875 34.90625 
L 20.21875 34.90625 
L 20.21875 43.015625 
L 29.109375 43.015625 
Q 36.375 43.015625 40.234375 45.921875 
Q 44.09375 48.828125 44.09375 54.296875 
Q 44.09375 59.90625 40.109375 62.90625 
Q 36.140625 65.921875 28.71875 65.921875 
Q 24.65625 65.921875 20.015625 65.03125 
Q 15.375 64.15625 9.8125 62.3125 
L 9.8125 71.09375 
Q 15.4375 72.65625 20.34375 73.4375 
Q 25.25 74.21875 29.59375 74.21875 
Q 40.828125 74.21875 47.359375 69.109375 
Q 53.90625 64.015625 53.90625 55.328125 
Q 53.90625 49.265625 50.4375 45.09375 
Q 46.96875 40.921875 40.578125 39.3125 
z
" id="DejaVuSans-51"/>
      </defs>
      <g transform="translate(34.275 154.682016)scale(0.1 -0.1)">
       <use xlink:href="#DejaVuSans-51"/>
       <use x="63.623047" xlink:href="#DejaVuSans-48"/>
      </g>
     </g>
    </g>
    <g id="ytick_5">
     <g id="line2d_12">
      <g>
       <use style="stroke:#000000;stroke-width:0.8;" x="54" xlink:href="#m5eddf4b5bd" y="120.471608"/>
      </g>
     </g>
     <g id="text_12">
      <!-- 40 -->
      <g transform="translate(34.275 124.270827)scale(0.1 -0.1)">
       <use xlink:href="#DejaVuSans-52"/>
       <use x="63.623047" xlink:href="#DejaVuSans-48"/>
      </g>
     </g>
    </g>
    <g id="ytick_6">
     <g id="line2d_13">
      <g>
       <use style="stroke:#000000;stroke-width:0.8;" x="54" xlink:href="#m5eddf4b5bd" y="90.06042"/>
      </g>
     </g>
     <g id="text_13">
      <!-- 50 -->
      <defs>
       <path d="M 10.796875 72.90625 
L 49.515625 72.90625 
L 49.515625 64.59375 
L 19.828125 64.59375 
L 19.828125 46.734375 
Q 21.96875 47.46875 24.109375 47.828125 
Q 26.265625 48.1875 28.421875 48.1875 
Q 40.625 48.1875 47.75 41.5 
Q 54.890625 34.8125 54.890625 23.390625 
Q 54.890625 11.625 47.5625 5.09375 
Q 40.234375 -1.421875 26.90625 -1.421875 
Q 22.3125 -1.421875 17.546875 -0.640625 
Q 12.796875 0.140625 7.71875 1.703125 
L 7.71875 11.625 
Q 12.109375 9.234375 16.796875 8.0625 
Q 21.484375 6.890625 26.703125 6.890625 
Q 35.15625 6.890625 40.078125 11.328125 
Q 45.015625 15.765625 45.015625 23.390625 
Q 45.015625 31 40.078125 35.4375 
Q 35.15625 39.890625 26.703125 39.890625 
Q 22.75 39.890625 18.8125 39.015625 
Q 14.890625 38.140625 10.796875 36.28125 
z
" id="DejaVuSans-53"/>
      </defs>
      <g transform="translate(34.275 93.859638)scale(0.1 -0.1)">
       <use xlink:href="#DejaVuSans-53"/>
       <use x="63.623047" xlink:href="#DejaVuSans-48"/>
      </g>
     </g>
    </g>
    <g id="ytick_7">
     <g id="line2d_14">
      <g>
       <use style="stroke:#000000;stroke-width:0.8;" x="54" xlink:href="#m5eddf4b5bd" y="59.649231"/>
      </g>
     </g>
     <g id="text_14">
      <!-- 60 -->
      <g transform="translate(34.275 63.44845)scale(0.1 -0.1)">
       <use xlink:href="#DejaVuSans-54"/>
       <use x="63.623047" xlink:href="#DejaVuSans-48"/>
      </g>
     </g>
    </g>
   </g>
   <g id="LineCollection_1">
    <path clip-path="url(#p06d8af095a)" d="M 69.218182 242.116364 
L 69.218182 239.075245 
" style="fill:none;stroke:#000000;stroke-width:1.5;"/>
    <path clip-path="url(#p06d8af095a)" d="M 83.57934 242.116364 
L 83.57934 232.993007 
" style="fill:none;stroke:#000000;stroke-width:1.5;"/>
    <path clip-path="url(#p06d8af095a)" d="M 88.684622 242.116364 
L 88.684622 236.034126 
" style="fill:none;stroke:#000000;stroke-width:1.5;"/>
    <path clip-path="url(#p06d8af095a)" d="M 92.262418 242.116364 
L 92.262418 239.075245 
" style="fill:none;stroke:#000000;stroke-width:1.5;"/>
    <path clip-path="url(#p06d8af095a)" d="M 94.640829 242.116364 
L 94.640829 236.034126 
" style="fill:none;stroke:#000000;stroke-width:1.5;"/>
    <path clip-path="url(#p06d8af095a)" d="M 98.163879 242.116364 
L 98.163879 217.787413 
" style="fill:none;stroke:#000000;stroke-width:1.5;"/>
    <path clip-path="url(#p06d8af095a)" d="M 101.850259 242.116364 
L 101.850259 214.746294 
" style="fill:none;stroke:#000000;stroke-width:1.5;"/>
    <path clip-path="url(#p06d8af095a)" d="M 106.680557 242.116364 
L 106.680557 199.540699 
" style="fill:none;stroke:#000000;stroke-width:1.5;"/>
    <path clip-path="url(#p06d8af095a)" d="M 109.472481 242.116364 
L 109.472481 220.828531 
" style="fill:none;stroke:#000000;stroke-width:1.5;"/>
    <path clip-path="url(#p06d8af095a)" d="M 111.842252 242.116364 
L 111.842252 193.458462 
" style="fill:none;stroke:#000000;stroke-width:1.5;"/>
    <path clip-path="url(#p06d8af095a)" d="M 114.212681 242.116364 
L 114.212681 190.417343 
" style="fill:none;stroke:#000000;stroke-width:1.5;"/>
    <path clip-path="url(#p06d8af095a)" d="M 117.689658 242.116364 
L 117.689658 141.759441 
" style="fill:none;stroke:#000000;stroke-width:1.5;"/>
    <path clip-path="url(#p06d8af095a)" d="M 121.861736 242.116364 
L 121.861736 166.088392 
" style="fill:none;stroke:#000000;stroke-width:1.5;"/>
    <path clip-path="url(#p06d8af095a)" d="M 125.294676 242.116364 
L 125.294676 120.471608 
" style="fill:none;stroke:#000000;stroke-width:1.5;"/>
    <path clip-path="url(#p06d8af095a)" d="M 128.937079 242.116364 
L 128.937079 114.389371 
" style="fill:none;stroke:#000000;stroke-width:1.5;"/>
    <path clip-path="url(#p06d8af095a)" d="M 132.02746 242.116364 
L 132.02746 129.594965 
" style="fill:none;stroke:#000000;stroke-width:1.5;"/>
    <path clip-path="url(#p06d8af095a)" d="M 135.151865 242.116364 
L 135.151865 68.772587 
" style="fill:none;stroke:#000000;stroke-width:1.5;"/>
    <path clip-path="url(#p06d8af095a)" d="M 138.088804 242.116364 
L 138.088804 93.101538 
" style="fill:none;stroke:#000000;stroke-width:1.5;"/>
    <path clip-path="url(#p06d8af095a)" d="M 142.151408 242.116364 
L 142.151408 74.854825 
" style="fill:none;stroke:#000000;stroke-width:1.5;"/>
    <path clip-path="url(#p06d8af095a)" d="M 145.234834 242.116364 
L 145.234834 144.800559 
" style="fill:none;stroke:#000000;stroke-width:1.5;"/>
    <path clip-path="url(#p06d8af095a)" d="M 147.948578 242.116364 
L 147.948578 87.019301 
" style="fill:none;stroke:#000000;stroke-width:1.5;"/>
    <path clip-path="url(#p06d8af095a)" d="M 150.707436 242.116364 
L 150.707436 93.101538 
" style="fill:none;stroke:#000000;stroke-width:1.5;"/>
    <path clip-path="url(#p06d8af095a)" d="M 153.882824 242.116364 
L 153.882824 65.731469 
" style="fill:none;stroke:#000000;stroke-width:1.5;"/>
    <path clip-path="url(#p06d8af095a)" d="M 156.658457 242.116364 
L 156.658457 99.183776 
" style="fill:none;stroke:#000000;stroke-width:1.5;"/>
    <path clip-path="url(#p06d8af095a)" d="M 159.992537 242.116364 
L 159.992537 83.978182 
" style="fill:none;stroke:#000000;stroke-width:1.5;"/>
    <path clip-path="url(#p06d8af095a)" d="M 163.67636 242.116364 
L 163.67636 90.06042 
" style="fill:none;stroke:#000000;stroke-width:1.5;"/>
    <path clip-path="url(#p06d8af095a)" d="M 166.633725 242.116364 
L 166.633725 120.471608 
" style="fill:none;stroke:#000000;stroke-width:1.5;"/>
    <path clip-path="url(#p06d8af095a)" d="M 169.369334 242.116364 
L 169.369334 160.006154 
" style="fill:none;stroke:#000000;stroke-width:1.5;"/>
    <path clip-path="url(#p06d8af095a)" d="M 171.96984 242.116364 
L 171.96984 178.252867 
" style="fill:none;stroke:#000000;stroke-width:1.5;"/>
    <path clip-path="url(#p06d8af095a)" d="M 174.74491 242.116364 
L 174.74491 160.006154 
" style="fill:none;stroke:#000000;stroke-width:1.5;"/>
    <path clip-path="url(#p06d8af095a)" d="M 177.144962 242.116364 
L 177.144962 193.458462 
" style="fill:none;stroke:#000000;stroke-width:1.5;"/>
    <path clip-path="url(#p06d8af095a)" d="M 179.544776 242.116364 
L 179.544776 202.581818 
" style="fill:none;stroke:#000000;stroke-width:1.5;"/>
    <path clip-path="url(#p06d8af095a)" d="M 183.546145 242.116364 
L 183.546145 169.12951 
" style="fill:none;stroke:#000000;stroke-width:1.5;"/>
    <path clip-path="url(#p06d8af095a)" d="M 186.695192 242.116364 
L 186.695192 184.335105 
" style="fill:none;stroke:#000000;stroke-width:1.5;"/>
    <path clip-path="url(#p06d8af095a)" d="M 189.520036 242.116364 
L 189.520036 217.787413 
" style="fill:none;stroke:#000000;stroke-width:1.5;"/>
    <path clip-path="url(#p06d8af095a)" d="M 193.638797 242.116364 
L 193.638797 172.170629 
" style="fill:none;stroke:#000000;stroke-width:1.5;"/>
    <path clip-path="url(#p06d8af095a)" d="M 197.490529 242.116364 
L 197.490529 236.034126 
" style="fill:none;stroke:#000000;stroke-width:1.5;"/>
    <path clip-path="url(#p06d8af095a)" d="M 201.047005 242.116364 
L 201.047005 211.705175 
" style="fill:none;stroke:#000000;stroke-width:1.5;"/>
    <path clip-path="url(#p06d8af095a)" d="M 205.028909 242.116364 
L 205.028909 232.993007 
" style="fill:none;stroke:#000000;stroke-width:1.5;"/>
    <path clip-path="url(#p06d8af095a)" d="M 208.954428 242.116364 
L 208.954428 232.993007 
" style="fill:none;stroke:#000000;stroke-width:1.5;"/>
    <path clip-path="url(#p06d8af095a)" d="M 211.859654 242.116364 
L 211.859654 229.951888 
" style="fill:none;stroke:#000000;stroke-width:1.5;"/>
    <path clip-path="url(#p06d8af095a)" d="M 215.465384 242.116364 
L 215.465384 239.075245 
" style="fill:none;stroke:#000000;stroke-width:1.5;"/>
    <path clip-path="url(#p06d8af095a)" d="M 224.783807 242.116364 
L 224.783807 223.86965 
" style="fill:none;stroke:#000000;stroke-width:1.5;"/>
    <path clip-path="url(#p06d8af095a)" d="M 229.61062 242.116364 
L 229.61062 239.075245 
" style="fill:none;stroke:#000000;stroke-width:1.5;"/>
    <path clip-path="url(#p06d8af095a)" d="M 233.525178 242.116364 
L 233.525178 229.951888 
" style="fill:none;stroke:#000000;stroke-width:1.5;"/>
    <path clip-path="url(#p06d8af095a)" d="M 237.206919 242.116364 
L 237.206919 236.034126 
" style="fill:none;stroke:#000000;stroke-width:1.5;"/>
    <path clip-path="url(#p06d8af095a)" d="M 243.233225 242.116364 
L 243.233225 220.828531 
" style="fill:none;stroke:#000000;stroke-width:1.5;"/>
    <path clip-path="url(#p06d8af095a)" d="M 247.28903 242.116364 
L 247.28903 226.910769 
" style="fill:none;stroke:#000000;stroke-width:1.5;"/>
    <path clip-path="url(#p06d8af095a)" d="M 251.442588 242.116364 
L 251.442588 205.622937 
" style="fill:none;stroke:#000000;stroke-width:1.5;"/>
    <path clip-path="url(#p06d8af095a)" d="M 254.42849 242.116364 
L 254.42849 220.828531 
" style="fill:none;stroke:#000000;stroke-width:1.5;"/>
    <path clip-path="url(#p06d8af095a)" d="M 257.446124 242.116364 
L 257.446124 184.335105 
" style="fill:none;stroke:#000000;stroke-width:1.5;"/>
    <path clip-path="url(#p06d8af095a)" d="M 261.382507 242.116364 
L 261.382507 184.335105 
" style="fill:none;stroke:#000000;stroke-width:1.5;"/>
    <path clip-path="url(#p06d8af095a)" d="M 265.131764 242.116364 
L 265.131764 178.252867 
" style="fill:none;stroke:#000000;stroke-width:1.5;"/>
    <path clip-path="url(#p06d8af095a)" d="M 268.7781 242.116364 
L 268.7781 156.965035 
" style="fill:none;stroke:#000000;stroke-width:1.5;"/>
    <path clip-path="url(#p06d8af095a)" d="M 272.242358 242.116364 
L 272.242358 123.512727 
" style="fill:none;stroke:#000000;stroke-width:1.5;"/>
    <path clip-path="url(#p06d8af095a)" d="M 276.315026 242.116364 
L 276.315026 138.718322 
" style="fill:none;stroke:#000000;stroke-width:1.5;"/>
    <path clip-path="url(#p06d8af095a)" d="M 279.797236 242.116364 
L 279.797236 77.895944 
" style="fill:none;stroke:#000000;stroke-width:1.5;"/>
    <path clip-path="url(#p06d8af095a)" d="M 283.609985 242.116364 
L 283.609985 96.142657 
" style="fill:none;stroke:#000000;stroke-width:1.5;"/>
    <path clip-path="url(#p06d8af095a)" d="M 287.82665 242.116364 
L 287.82665 68.772587 
" style="fill:none;stroke:#000000;stroke-width:1.5;"/>
    <path clip-path="url(#p06d8af095a)" d="M 291.425172 242.116364 
L 291.425172 44.443636 
" style="fill:none;stroke:#000000;stroke-width:1.5;"/>
    <path clip-path="url(#p06d8af095a)" d="M 294.7068 242.116364 
L 294.7068 74.854825 
" style="fill:none;stroke:#000000;stroke-width:1.5;"/>
    <path clip-path="url(#p06d8af095a)" d="M 297.879017 242.116364 
L 297.879017 80.937063 
" style="fill:none;stroke:#000000;stroke-width:1.5;"/>
    <path clip-path="url(#p06d8af095a)" d="M 301.256986 242.116364 
L 301.256986 77.895944 
" style="fill:none;stroke:#000000;stroke-width:1.5;"/>
    <path clip-path="url(#p06d8af095a)" d="M 305.071993 242.116364 
L 305.071993 50.525874 
" style="fill:none;stroke:#000000;stroke-width:1.5;"/>
    <path clip-path="url(#p06d8af095a)" d="M 308.557192 242.116364 
L 308.557192 83.978182 
" style="fill:none;stroke:#000000;stroke-width:1.5;"/>
    <path clip-path="url(#p06d8af095a)" d="M 311.323662 242.116364 
L 311.323662 135.677203 
" style="fill:none;stroke:#000000;stroke-width:1.5;"/>
    <path clip-path="url(#p06d8af095a)" d="M 314.239167 242.116364 
L 314.239167 138.718322 
" style="fill:none;stroke:#000000;stroke-width:1.5;"/>
    <path clip-path="url(#p06d8af095a)" d="M 317.929518 242.116364 
L 317.929518 123.512727 
" style="fill:none;stroke:#000000;stroke-width:1.5;"/>
    <path clip-path="url(#p06d8af095a)" d="M 321.156968 242.116364 
L 321.156968 129.594965 
" style="fill:none;stroke:#000000;stroke-width:1.5;"/>
    <path clip-path="url(#p06d8af095a)" d="M 324.940358 242.116364 
L 324.940358 117.43049 
" style="fill:none;stroke:#000000;stroke-width:1.5;"/>
    <path clip-path="url(#p06d8af095a)" d="M 329.08298 242.116364 
L 329.08298 163.047273 
" style="fill:none;stroke:#000000;stroke-width:1.5;"/>
    <path clip-path="url(#p06d8af095a)" d="M 332.895194 242.116364 
L 332.895194 202.581818 
" style="fill:none;stroke:#000000;stroke-width:1.5;"/>
    <path clip-path="url(#p06d8af095a)" d="M 335.50464 242.116364 
L 335.50464 193.458462 
" style="fill:none;stroke:#000000;stroke-width:1.5;"/>
    <path clip-path="url(#p06d8af095a)" d="M 337.94607 242.116364 
L 337.94607 193.458462 
" style="fill:none;stroke:#000000;stroke-width:1.5;"/>
    <path clip-path="url(#p06d8af095a)" d="M 342.264663 242.116364 
L 342.264663 211.705175 
" style="fill:none;stroke:#000000;stroke-width:1.5;"/>
    <path clip-path="url(#p06d8af095a)" d="M 347.203037 242.116364 
L 347.203037 196.49958 
" style="fill:none;stroke:#000000;stroke-width:1.5;"/>
    <path clip-path="url(#p06d8af095a)" d="M 351.3919 242.116364 
L 351.3919 226.910769 
" style="fill:none;stroke:#000000;stroke-width:1.5;"/>
    <path clip-path="url(#p06d8af095a)" d="M 355.917674 242.116364 
L 355.917674 232.993007 
" style="fill:none;stroke:#000000;stroke-width:1.5;"/>
    <path clip-path="url(#p06d8af095a)" d="M 359.580592 242.116364 
L 359.580592 226.910769 
" style="fill:none;stroke:#000000;stroke-width:1.5;"/>
    <path clip-path="url(#p06d8af095a)" d="M 373.581818 242.116364 
L 373.581818 236.034126 
" style="fill:none;stroke:#000000;stroke-width:1.5;"/>
   </g>
   <g id="patch_3">
    <path d="M 54 252 
L 54 34.56 
" style="fill:none;stroke:#000000;stroke-linecap:square;stroke-linejoin:miter;stroke-width:0.8;"/>
   </g>
   <g id="patch_4">
    <path d="M 388.8 252 
L 388.8 34.56 
" style="fill:none;stroke:#000000;stroke-linecap:square;stroke-linejoin:miter;stroke-width:0.8;"/>
   </g>
   <g id="patch_5">
    <path d="M 54 252 
L 388.8 252 
" style="fill:none;stroke:#000000;stroke-linecap:square;stroke-linejoin:miter;stroke-width:0.8;"/>
   </g>
   <g id="patch_6">
    <path d="M 54 34.56 
L 388.8 34.56 
" style="fill:none;stroke:#000000;stroke-linecap:square;stroke-linejoin:miter;stroke-width:0.8;"/>
   </g>
  </g>
 </g>
 <defs>
  <clipPath id="p06d8af095a">
   <rect height="217.44" width="334.8" x="54" y="34.56"/>
  </clipPath>
 </defs>
</svg>
