<?xml version="1.0" encoding="UTF-8" standalone="no"?>
<!DOCTYPE svg PUBLIC "-//W3C//DTD SVG 1.1//EN"
 "http://www.w3.org/Graphics/SVG/1.1/DTD/svg11.dtd">
<!-- Generated by graphviz version 2.44.1 (20200629.0846)
 -->
<!-- Pages: 1 -->
<svg width="198pt" height="407pt"
 viewBox="0.00 0.00 198.00 407.00" xmlns="http://www.w3.org/2000/svg" xmlns:xlink="http://www.w3.org/1999/xlink">
<g id="graph0" class="graph" transform="scale(1 1) rotate(0) translate(4 403)">
<polygon fill="white" stroke="transparent" points="-4,4 -4,-403 194,-403 194,4 -4,4"/>
<g id="clust1" class="cluster">
<title>cluster_RandomOverSampler</title>
<polygon fill="none" stroke="black" points="8,-64 8,-139 182,-139 182,-64 8,-64"/>
<text text-anchor="middle" x="95" y="-123.8" font-family="Times,serif" font-size="14.00">RandomOverSampler</text>
</g>
<!-- x -->
<g id="node1" class="node">
<title>x</title>
<ellipse fill="none" stroke="black" cx="95" cy="-381" rx="27" ry="18"/>
<text text-anchor="middle" x="95" y="-377.3" font-family="Times,serif" font-size="14.00">x</text>
</g>
<!-- extract_body -->
<g id="node2" class="node">
<title>extract_body</title>
<ellipse fill="none" stroke="black" cx="95" cy="-309" rx="56.59" ry="18"/>
<text text-anchor="middle" x="95" y="-305.3" font-family="Times,serif" font-size="14.00">extract_body</text>
</g>
<!-- x&#45;&gt;extract_body -->
<g id="edge1" class="edge">
<title>x&#45;&gt;extract_body</title>
<path fill="none" stroke="black" d="M95,-362.7C95,-354.98 95,-345.71 95,-337.11"/>
<polygon fill="black" stroke="black" points="98.5,-337.1 95,-327.1 91.5,-337.1 98.5,-337.1"/>
</g>
<!-- Embeddings -->
<g id="node3" class="node">
<title>Embeddings</title>
<ellipse fill="none" stroke="black" cx="95" cy="-237" rx="55.49" ry="18"/>
<text text-anchor="middle" x="95" y="-233.3" font-family="Times,serif" font-size="14.00">Embeddings</text>
</g>
<!-- extract_body&#45;&gt;Embeddings -->
<g id="edge2" class="edge">
<title>extract_body&#45;&gt;Embeddings</title>
<path fill="none" stroke="black" d="M95,-290.7C95,-282.98 95,-273.71 95,-265.11"/>
<polygon fill="black" stroke="black" points="98.5,-265.1 95,-255.1 91.5,-265.1 98.5,-265.1"/>
</g>
<!-- StandardScaler -->
<g id="node4" class="node">
<title>StandardScaler</title>
<ellipse fill="none" stroke="black" cx="95" cy="-165" rx="63.89" ry="18"/>
<text text-anchor="middle" x="95" y="-161.3" font-family="Times,serif" font-size="14.00">StandardScaler</text>
</g>
<!-- Embeddings&#45;&gt;StandardScaler -->
<g id="edge4" class="edge">
<title>Embeddings&#45;&gt;StandardScaler</title>
<path fill="none" stroke="black" d="M95,-218.7C95,-210.98 95,-201.71 95,-193.11"/>
<polygon fill="black" stroke="black" points="98.5,-193.1 95,-183.1 91.5,-193.1 98.5,-193.1"/>
</g>
<!-- LogisticRegression -->
<g id="node5" class="node">
<title>LogisticRegression</title>
<ellipse fill="none" stroke="black" cx="95" cy="-90" rx="78.79" ry="18"/>
<text text-anchor="middle" x="95" y="-86.3" font-family="Times,serif" font-size="14.00">LogisticRegression</text>
</g>
<!-- StandardScaler&#45;&gt;LogisticRegression -->
<g id="edge3" class="edge">
<title>StandardScaler&#45;&gt;LogisticRegression</title>
<path fill="none" stroke="black" d="M95,-146.7C95,-138.25 95,-127.87 95,-118.37"/>
<polygon fill="black" stroke="black" points="98.5,-118.18 95,-108.18 91.5,-118.18 98.5,-118.18"/>
</g>
<!-- y -->
<g id="node6" class="node">
<title>y</title>
<ellipse fill="none" stroke="black" cx="95" cy="-18" rx="27" ry="18"/>
<text text-anchor="middle" x="95" y="-14.3" font-family="Times,serif" font-size="14.00">y</text>
</g>
<!-- LogisticRegression&#45;&gt;y -->
<g id="edge5" class="edge">
<title>LogisticRegression&#45;&gt;y</title>
<path fill="none" stroke="black" d="M95,-71.7C95,-63.98 95,-54.71 95,-46.11"/>
<polygon fill="black" stroke="black" points="98.5,-46.1 95,-36.1 91.5,-46.1 98.5,-46.1"/>
</g>
</g>
</svg>
