<?xml version="1.0" encoding="UTF-8" standalone="no"?>
<!DOCTYPE svg PUBLIC "-//W3C//DTD SVG 1.1//EN"
 "http://www.w3.org/Graphics/SVG/1.1/DTD/svg11.dtd">
<!-- Generated by graphviz version 2.40.1 (20161225.0304)
 -->
<!-- Title: %3 Pages: 1 -->
<svg width="918pt" height="404pt"
 viewBox="0.00 0.00 918.17 404.00" xmlns="http://www.w3.org/2000/svg" xmlns:xlink="http://www.w3.org/1999/xlink">
<g id="graph0" class="graph" transform="scale(1 1) rotate(0) translate(4 400)">
<title>%3</title>
<polygon fill="#ffffff" stroke="transparent" points="-4,4 -4,-400 914.173,-400 914.173,4 -4,4"/>
<!-- x -->
<g id="node1" class="node">
<title>x</title>
<ellipse fill="none" stroke="#000000" cx="540.9827" cy="-378" rx="27" ry="18"/>
<text text-anchor="middle" x="540.9827" y="-374.3" font-family="Times,serif" font-size="14.00" fill="#000000">x</text>
</g>
<!-- add_time_features -->
<g id="node2" class="node">
<title>add_time_features</title>
<ellipse fill="none" stroke="#000000" cx="540.9827" cy="-306" rx="76.0865" ry="18"/>
<text text-anchor="middle" x="540.9827" y="-302.3" font-family="Times,serif" font-size="14.00" fill="#000000">add_time_features</text>
</g>
<!-- x&#45;&gt;add_time_features -->
<g id="edge1" class="edge">
<title>x&#45;&gt;add_time_features</title>
<path fill="none" stroke="#000000" d="M540.9827,-359.8314C540.9827,-352.131 540.9827,-342.9743 540.9827,-334.4166"/>
<polygon fill="#000000" stroke="#000000" points="544.4828,-334.4132 540.9827,-324.4133 537.4828,-334.4133 544.4828,-334.4132"/>
</g>
<!-- [&#39;clouds&#39;, &#39;humidity&#39;, &#39;pressure&#39;, &#39;temperature&#39;, &#39;wind&#39;] -->
<g id="node3" class="node">
<title>[&#39;clouds&#39;, &#39;humidity&#39;, &#39;pressure&#39;, &#39;temperature&#39;, &#39;wind&#39;]</title>
<ellipse fill="none" stroke="#000000" cx="194.9827" cy="-234" rx="194.9654" ry="18"/>
<text text-anchor="middle" x="194.9827" y="-230.3" font-family="Times,serif" font-size="14.00" fill="#000000">[&#39;clouds&#39;, &#39;humidity&#39;, &#39;pressure&#39;, &#39;temperature&#39;, &#39;wind&#39;]</text>
</g>
<!-- add_time_features&#45;&gt;[&#39;clouds&#39;, &#39;humidity&#39;, &#39;pressure&#39;, &#39;temperature&#39;, &#39;wind&#39;] -->
<g id="edge2" class="edge">
<title>add_time_features&#45;&gt;[&#39;clouds&#39;, &#39;humidity&#39;, &#39;pressure&#39;, &#39;temperature&#39;, &#39;wind&#39;]</title>
<path fill="none" stroke="#000000" d="M483.8478,-294.1107C429.5541,-282.8125 347.0823,-265.6508 284.1398,-252.5529"/>
<polygon fill="#000000" stroke="#000000" points="284.7163,-249.098 274.2129,-250.4872 283.2901,-255.9512 284.7163,-249.098"/>
</g>
<!-- target_mean_by_station_and_hour -->
<g id="node4" class="node">
<title>target_mean_by_station_and_hour</title>
<ellipse fill="none" stroke="#000000" cx="540.9827" cy="-234" rx="133.4768" ry="18"/>
<text text-anchor="middle" x="540.9827" y="-230.3" font-family="Times,serif" font-size="14.00" fill="#000000">target_mean_by_station_and_hour</text>
</g>
<!-- add_time_features&#45;&gt;target_mean_by_station_and_hour -->
<g id="edge3" class="edge">
<title>add_time_features&#45;&gt;target_mean_by_station_and_hour</title>
<path fill="none" stroke="#000000" d="M540.9827,-287.8314C540.9827,-280.131 540.9827,-270.9743 540.9827,-262.4166"/>
<polygon fill="#000000" stroke="#000000" points="544.4828,-262.4132 540.9827,-252.4133 537.4828,-262.4133 544.4828,-262.4132"/>
</g>
<!-- target_ewm_0.5_by_station -->
<g id="node5" class="node">
<title>target_ewm_0.5_by_station</title>
<ellipse fill="none" stroke="#000000" cx="800.9827" cy="-234" rx="109.381" ry="18"/>
<text text-anchor="middle" x="800.9827" y="-230.3" font-family="Times,serif" font-size="14.00" fill="#000000">target_ewm_0.5_by_station</text>
</g>
<!-- add_time_features&#45;&gt;target_ewm_0.5_by_station -->
<g id="edge4" class="edge">
<title>add_time_features&#45;&gt;target_ewm_0.5_by_station</title>
<path fill="none" stroke="#000000" d="M590.4987,-292.2879C631.541,-280.9223 690.2284,-264.6704 735.2121,-252.2134"/>
<polygon fill="#000000" stroke="#000000" points="736.1772,-255.5779 744.8804,-249.536 734.309,-248.8318 736.1772,-255.5779"/>
</g>
<!-- StandardScaler -->
<g id="node6" class="node">
<title>StandardScaler</title>
<ellipse fill="none" stroke="#000000" cx="540.9827" cy="-162" rx="63.8893" ry="18"/>
<text text-anchor="middle" x="540.9827" y="-158.3" font-family="Times,serif" font-size="14.00" fill="#000000">StandardScaler</text>
</g>
<!-- [&#39;clouds&#39;, &#39;humidity&#39;, &#39;pressure&#39;, &#39;temperature&#39;, &#39;wind&#39;]&#45;&gt;StandardScaler -->
<g id="edge6" class="edge">
<title>[&#39;clouds&#39;, &#39;humidity&#39;, &#39;pressure&#39;, &#39;temperature&#39;, &#39;wind&#39;]&#45;&gt;StandardScaler</title>
<path fill="none" stroke="#000000" d="M274.3621,-217.4817C336.7547,-204.4983 422.3961,-186.677 479.6098,-174.7712"/>
<polygon fill="#000000" stroke="#000000" points="480.5195,-178.157 489.5967,-172.693 479.0933,-171.3038 480.5195,-178.157"/>
</g>
<!-- target_mean_by_station_and_hour&#45;&gt;StandardScaler -->
<g id="edge7" class="edge">
<title>target_mean_by_station_and_hour&#45;&gt;StandardScaler</title>
<path fill="none" stroke="#000000" d="M540.9827,-215.8314C540.9827,-208.131 540.9827,-198.9743 540.9827,-190.4166"/>
<polygon fill="#000000" stroke="#000000" points="544.4828,-190.4132 540.9827,-180.4133 537.4828,-190.4133 544.4828,-190.4132"/>
</g>
<!-- target_ewm_0.5_by_station&#45;&gt;StandardScaler -->
<g id="edge8" class="edge">
<title>target_ewm_0.5_by_station&#45;&gt;StandardScaler</title>
<path fill="none" stroke="#000000" d="M744.8867,-218.4657C700.9838,-206.308 640.2417,-189.4871 596.4902,-177.3713"/>
<polygon fill="#000000" stroke="#000000" points="597.1629,-173.9259 586.5915,-174.6301 595.2947,-180.672 597.1629,-173.9259"/>
</g>
<!-- LinearRegression -->
<g id="node7" class="node">
<title>LinearRegression</title>
<ellipse fill="none" stroke="#000000" cx="540.9827" cy="-90" rx="72.5877" ry="18"/>
<text text-anchor="middle" x="540.9827" y="-86.3" font-family="Times,serif" font-size="14.00" fill="#000000">LinearRegression</text>
</g>
<!-- StandardScaler&#45;&gt;LinearRegression -->
<g id="edge5" class="edge">
<title>StandardScaler&#45;&gt;LinearRegression</title>
<path fill="none" stroke="#000000" d="M540.9827,-143.8314C540.9827,-136.131 540.9827,-126.9743 540.9827,-118.4166"/>
<polygon fill="#000000" stroke="#000000" points="544.4828,-118.4132 540.9827,-108.4133 537.4828,-118.4133 544.4828,-118.4132"/>
</g>
<!-- y -->
<g id="node8" class="node">
<title>y</title>
<ellipse fill="none" stroke="#000000" cx="540.9827" cy="-18" rx="27" ry="18"/>
<text text-anchor="middle" x="540.9827" y="-14.3" font-family="Times,serif" font-size="14.00" fill="#000000">y</text>
</g>
<!-- LinearRegression&#45;&gt;y -->
<g id="edge9" class="edge">
<title>LinearRegression&#45;&gt;y</title>
<path fill="none" stroke="#000000" d="M540.9827,-71.8314C540.9827,-64.131 540.9827,-54.9743 540.9827,-46.4166"/>
<polygon fill="#000000" stroke="#000000" points="544.4828,-46.4132 540.9827,-36.4133 537.4828,-46.4133 544.4828,-46.4132"/>
</g>
</g>
</svg>
