<?xml version="1.0" encoding="UTF-8" standalone="no"?>
<!DOCTYPE svg PUBLIC "-//W3C//DTD SVG 1.1//EN"
 "http://www.w3.org/Graphics/SVG/1.1/DTD/svg11.dtd">
<!-- Generated by graphviz version 2.40.1 (20161225.0304)
 -->
<!-- Title: %3 Pages: 1 -->
<svg width="174pt" height="332pt"
 viewBox="0.00 0.00 174.39 332.00" xmlns="http://www.w3.org/2000/svg" xmlns:xlink="http://www.w3.org/1999/xlink">
<g id="graph0" class="graph" transform="scale(1 1) rotate(0) translate(4 328)">
<title>%3</title>
<polygon fill="#ffffff" stroke="transparent" points="-4,4 -4,-328 170.3852,-328 170.3852,4 -4,4"/>
<!-- x -->
<g id="node1" class="node">
<title>x</title>
<ellipse fill="none" stroke="#000000" cx="83.1926" cy="-306" rx="27" ry="18"/>
<text text-anchor="middle" x="83.1926" y="-302.3" font-family="Times,serif" font-size="14.00" fill="#000000">x</text>
</g>
<!-- StandardScaler -->
<g id="node2" class="node">
<title>StandardScaler</title>
<ellipse fill="none" stroke="#000000" cx="83.1926" cy="-234" rx="63.8893" ry="18"/>
<text text-anchor="middle" x="83.1926" y="-230.3" font-family="Times,serif" font-size="14.00" fill="#000000">StandardScaler</text>
</g>
<!-- x&#45;&gt;StandardScaler -->
<g id="edge1" class="edge">
<title>x&#45;&gt;StandardScaler</title>
<path fill="none" stroke="#000000" d="M83.1926,-287.8314C83.1926,-280.131 83.1926,-270.9743 83.1926,-262.4166"/>
<polygon fill="#000000" stroke="#000000" points="86.6927,-262.4132 83.1926,-252.4133 79.6927,-262.4133 86.6927,-262.4132"/>
</g>
<!-- PolynomialExtender -->
<g id="node3" class="node">
<title>PolynomialExtender</title>
<ellipse fill="none" stroke="#000000" cx="83.1926" cy="-162" rx="83.3857" ry="18"/>
<text text-anchor="middle" x="83.1926" y="-158.3" font-family="Times,serif" font-size="14.00" fill="#000000">PolynomialExtender</text>
</g>
<!-- StandardScaler&#45;&gt;PolynomialExtender -->
<g id="edge2" class="edge">
<title>StandardScaler&#45;&gt;PolynomialExtender</title>
<path fill="none" stroke="#000000" d="M83.1926,-215.8314C83.1926,-208.131 83.1926,-198.9743 83.1926,-190.4166"/>
<polygon fill="#000000" stroke="#000000" points="86.6927,-190.4132 83.1926,-180.4133 79.6927,-190.4133 86.6927,-190.4132"/>
</g>
<!-- LinearRegression -->
<g id="node4" class="node">
<title>LinearRegression</title>
<ellipse fill="none" stroke="#000000" cx="83.1926" cy="-90" rx="72.5877" ry="18"/>
<text text-anchor="middle" x="83.1926" y="-86.3" font-family="Times,serif" font-size="14.00" fill="#000000">LinearRegression</text>
</g>
<!-- PolynomialExtender&#45;&gt;LinearRegression -->
<g id="edge3" class="edge">
<title>PolynomialExtender&#45;&gt;LinearRegression</title>
<path fill="none" stroke="#000000" d="M83.1926,-143.8314C83.1926,-136.131 83.1926,-126.9743 83.1926,-118.4166"/>
<polygon fill="#000000" stroke="#000000" points="86.6927,-118.4132 83.1926,-108.4133 79.6927,-118.4133 86.6927,-118.4132"/>
</g>
<!-- y -->
<g id="node5" class="node">
<title>y</title>
<ellipse fill="none" stroke="#000000" cx="83.1926" cy="-18" rx="27" ry="18"/>
<text text-anchor="middle" x="83.1926" y="-14.3" font-family="Times,serif" font-size="14.00" fill="#000000">y</text>
</g>
<!-- LinearRegression&#45;&gt;y -->
<g id="edge4" class="edge">
<title>LinearRegression&#45;&gt;y</title>
<path fill="none" stroke="#000000" d="M83.1926,-71.8314C83.1926,-64.131 83.1926,-54.9743 83.1926,-46.4166"/>
<polygon fill="#000000" stroke="#000000" points="86.6927,-46.4132 83.1926,-36.4133 79.6927,-46.4133 86.6927,-46.4132"/>
</g>
</g>
</svg>
