<?xml version="1.0" encoding="UTF-8" standalone="no"?>
<!DOCTYPE svg PUBLIC "-//W3C//DTD SVG 1.1//EN"
 "http://www.w3.org/Graphics/SVG/1.1/DTD/svg11.dtd">
<!-- Generated by graphviz version 2.48.0 (20210717.1556)
 -->
<!-- Pages: 1 -->
<svg width="295pt" height="212pt"
 viewBox="0.00 0.00 295.00 212.00" xmlns="http://www.w3.org/2000/svg" xmlns:xlink="http://www.w3.org/1999/xlink">
<g id="graph0" class="graph" transform="scale(1 1) rotate(0) translate(4 208)">
<polygon fill="white" stroke="transparent" points="-4,4 -4,-208 291,-208 291,4 -4,4"/>
<!-- 0 -->
<g id="node1" class="node">
<title>0</title>
<polygon fill="#fae6d7" stroke="black" stroke-width="1.2" points="188,-204 36,-204 36,-168 188,-168 188,-204"/>
<text text-anchor="middle" x="112" y="-183.2" font-family="trebuchet" font-size="11.00">empty_server_form_handler</text>
</g>
<!-- 1 -->
<g id="node2" class="node">
<title>1</title>
<polygon fill="#68b4eb" stroke="black" stroke-width="1.2" points="108,-132 0,-132 0,-84 108,-84 108,-132"/>
<text text-anchor="middle" x="54" y="-123.2" font-family="trebuchet" font-size="11.00">Class True:</text>
<text text-anchor="middle" x="54" y="-111.2" font-family="trebuchet" font-size="11.00">	P(False) = 0.1</text>
<text text-anchor="middle" x="54" y="-99.2" font-family="trebuchet" font-size="11.00">	P(True) = 0.9</text>
<text text-anchor="middle" x="54" y="-87.2" font-family="trebuchet" font-size="11.00">samples: 503</text>
</g>
<!-- 0&#45;&gt;1 -->
<g id="edge1" class="edge">
<title>0&#45;&gt;1</title>
<path fill="none" stroke="black" stroke-width="0.6" d="M72,-167.91C72,-167.91 72,-142.2 72,-142.2"/>
<polygon fill="black" stroke="black" stroke-width="0.6" points="75.5,-142.2 72,-132.2 68.5,-142.2 75.5,-142.2"/>
<text text-anchor="middle" x="59.5" y="-157.45" font-family="Times,serif" font-size="7.00">≤ 0.5455</text>
</g>
<!-- 2 -->
<g id="node3" class="node">
<title>2</title>
<polygon fill="#eda775" stroke="black" stroke-width="1.2" points="214,-126 126,-126 126,-90 214,-90 214,-126"/>
<text text-anchor="middle" x="170" y="-105.2" font-family="trebuchet" font-size="11.00">popup_window</text>
</g>
<!-- 0&#45;&gt;2 -->
<g id="edge2" class="edge">
<title>0&#45;&gt;2</title>
<path fill="none" stroke="black" stroke-width="0.6" d="M157,-167.91C157,-167.91 157,-136.26 157,-136.26"/>
<polygon fill="black" stroke="black" stroke-width="0.6" points="160.5,-136.26 157,-126.26 153.5,-136.26 160.5,-136.26"/>
<text text-anchor="middle" x="144.5" y="-154.49" font-family="Times,serif" font-size="7.00">&gt; 0.5455</text>
</g>
<!-- 3 -->
<g id="node4" class="node">
<title>3</title>
<polygon fill="#fafdfe" stroke="black" stroke-width="1.2" points="161,-48 53,-48 53,0 161,0 161,-48"/>
<text text-anchor="middle" x="107" y="-39.2" font-family="trebuchet" font-size="11.00">Class True:</text>
<text text-anchor="middle" x="107" y="-27.2" font-family="trebuchet" font-size="11.00">	P(False) = 0.5</text>
<text text-anchor="middle" x="107" y="-15.2" font-family="trebuchet" font-size="11.00">	P(True) = 0.5</text>
<text text-anchor="middle" x="107" y="-3.2" font-family="trebuchet" font-size="11.00">samples: 64</text>
</g>
<!-- 2&#45;&gt;3 -->
<g id="edge3" class="edge">
<title>2&#45;&gt;3</title>
<path fill="none" stroke="black" stroke-width="0.6" d="M143.5,-89.77C143.5,-89.77 143.5,-58.25 143.5,-58.25"/>
<polygon fill="black" stroke="black" stroke-width="0.6" points="147,-58.25 143.5,-48.25 140,-58.25 147,-58.25"/>
<text text-anchor="middle" x="131" y="-76.41" font-family="Times,serif" font-size="7.00">≤ 0.0909</text>
</g>
<!-- 4 -->
<g id="node5" class="node">
<title>4</title>
<polygon fill="#e68742" stroke="black" stroke-width="1.2" points="287,-48 179,-48 179,0 287,0 287,-48"/>
<text text-anchor="middle" x="233" y="-39.2" font-family="trebuchet" font-size="11.00">Class False:</text>
<text text-anchor="middle" x="233" y="-27.2" font-family="trebuchet" font-size="11.00">	P(False) = 1.0</text>
<text text-anchor="middle" x="233" y="-15.2" font-family="trebuchet" font-size="11.00">	P(True) = 0.0</text>
<text text-anchor="middle" x="233" y="-3.2" font-family="trebuchet" font-size="11.00">samples: 256</text>
</g>
<!-- 2&#45;&gt;4 -->
<g id="edge4" class="edge">
<title>2&#45;&gt;4</title>
<path fill="none" stroke="black" stroke-width="0.6" d="M196.5,-89.77C196.5,-89.77 196.5,-58.25 196.5,-58.25"/>
<polygon fill="black" stroke="black" stroke-width="0.6" points="200,-58.25 196.5,-48.25 193,-58.25 200,-58.25"/>
<text text-anchor="middle" x="184" y="-76.41" font-family="Times,serif" font-size="7.00">&gt; 0.0909</text>
</g>
</g>
</svg>
