<?xml version="1.0" encoding="UTF-8" standalone="no"?>
<svg
   xmlns:dc="http://purl.org/dc/elements/1.1/"
   xmlns:cc="http://creativecommons.org/ns#"
   xmlns:rdf="http://www.w3.org/1999/02/22-rdf-syntax-ns#"
   xmlns:svg="http://www.w3.org/2000/svg"
   xmlns="http://www.w3.org/2000/svg"
   xmlns:sodipodi="http://sodipodi.sourceforge.net/DTD/sodipodi-0.dtd"
   xmlns:inkscape="http://www.inkscape.org/namespaces/inkscape"
   version="1.1"
   id="svg2"
   xml:space="preserve"
   width="1451.5688"
   height="220"
   viewBox="0 0 1451.5688 220"
   sodipodi:docname="skmultiflow-logo-wide.svg"
   inkscape:export-filename="/Users/jmontiel/Documents/media/skmultiflow/logo/v2.0/skmultiflow-logo-wide.png"
   inkscape:export-xdpi="96"
   inkscape:export-ydpi="96"
   inkscape:version="1.0beta2 (2b71d25, 2019-12-03)"><metadata
     id="metadata8"><rdf:RDF><cc:Work
         rdf:about=""><dc:format>image/svg+xml</dc:format><dc:type
           rdf:resource="http://purl.org/dc/dcmitype/StillImage" /><dc:title /></cc:Work></rdf:RDF></metadata><defs
     id="defs6"><radialGradient
       fx="2.2737368e-13"
       fy="4.5474735e-13"
       cx="2.2737368e-13"
       cy="4.5474735e-13"
       r="1"
       gradientUnits="userSpaceOnUse"
       gradientTransform="matrix(3.1063977,1.6492457e-7,1.6492492e-7,-3.1063977,6000,6000)"
       spreadMethod="pad"
       id="radialGradient18"><stop
         style="stop-opacity:1;stop-color:#ffffff"
         offset="0"
         id="stop14" /><stop
         style="stop-opacity:1;stop-color:#f2fbfe"
         offset="1"
         id="stop16" /></radialGradient></defs><sodipodi:namedview
     pagecolor="#ffffff"
     bordercolor="#666666"
     borderopacity="1"
     objecttolerance="10"
     gridtolerance="10"
     guidetolerance="10"
     inkscape:pageopacity="0"
     inkscape:pageshadow="2"
     inkscape:window-width="3360"
     inkscape:window-height="1305"
     id="namedview4"
     showgrid="false"
     inkscape:snap-global="true"
     inkscape:zoom="0.417193"
     inkscape:cx="947.73317"
     inkscape:cy="306.54349"
     inkscape:window-x="0"
     inkscape:window-y="23"
     inkscape:window-maximized="1"
     inkscape:current-layer="g4891"
     fit-margin-top="0"
     fit-margin-left="0"
     fit-margin-right="10"
     fit-margin-bottom="0"
     inkscape:document-rotation="0" /><g
     id="g10"
     inkscape:groupmode="layer"
     inkscape:label="ink_ext_XXXXXX"
     transform="matrix(1.3333333,0,0,-1.3333333,619.57538,388.49579)"><g
       id="g12"
       transform="scale(0.1)"><g
         id="g4776"><g
           id="g868"><g
             inkscape:export-ydpi="96"
             inkscape:export-xdpi="96"
             style="opacity:1"
             transform="matrix(1.0063907,0,0,1.0063907,-5579.5181,-7739.0585)"
             id="g4891"><g
   style="opacity:0.86"
   id="g196"
   transform="matrix(0.84664267,0,0,0.84664267,834.98811,901.02576)"
   inkscape:export-xdpi="96"
   inkscape:export-ydpi="96"><path
     d="m 2280.25,10366.975 213.3258,173.818 c 318.3588,310.996 641.2889,489.945 978.1772,475.96 297.3697,-12.342 536.1742,-249.977 531.8371,-547.575 -4.3372,-297.593 -250.0039,-537.7959 -547.5749,-531.8316 -541.0229,10.8347 -920.9236,457.2076 -1105.3097,633.0826 -350.5474,369.365 -702.7436,712.381 -1239.0104,720.201 -427.29369,6.225 -778.73359,-335.109 -784.95899,-762.403 -11.2538,-771.7295 1243.84819,-1125.591 1944.36069,50.642 -314.7401,-319.572 -829.0163,-606.722 -1178.5515,-601.623 -297.59279,4.3371 -536.17419,249.977 -531.83709,547.569 4.3372,297.599 249.9821,536.18 547.57489,531.837 897.6107,-13.082 1194.0172,-1324.0388 2344.3201,-1353.2833 427.2012,-10.8564 778.7336,335.1093 784.959,762.4023 11.0688,759.187 -1151.6687,1250.063 -1957.3122,-98.796"
     style="fill:#3fb9a9;fill-opacity:1;fill-rule:nonzero;stroke:none;stroke-width:0.544185"
     id="path22"
     inkscape:connector-curvature="0" /><path
     d="m 567.65201,10603.7 c 0,0 -164.5179,-481.483 293.5822,-665.9455 355.54839,-143.1695 601.35659,60.1759 866.34729,317.5425 0,0 -982.85719,-549.0441 -1159.92949,348.403"
     style="fill:#f9da06;fill-opacity:1;fill-rule:nonzero;stroke:none;stroke-width:0.544185"
     id="path24"
     inkscape:connector-curvature="0" /><path
     d="m 3109.5111,11095.959 c 0,0 212.2701,307.448 655.367,155.99 552.9949,-189.022 598.1894,-639.591 527.07,-928.814 0,0 -110.6709,870.587 -1182.437,772.824"
     style="fill:#f9da06;fill-opacity:1;fill-rule:nonzero;stroke:none;stroke-width:0.544185"
     id="path26"
     inkscape:connector-curvature="0" /><path
     d="m 2483.8457,9990.2901 c 0,0 1144.0992,-415.7897 1496.2247,94.2909 0,0 -139.0228,-571.949 -758.1416,-486.0168 -438.134,60.8127 -738.0831,391.7259 -738.0831,391.7259"
     style="fill:#f46a17;fill-opacity:1;fill-rule:nonzero;stroke:none;stroke-width:0.544185"
     id="path28"
     inkscape:connector-curvature="0" /><path
     d="m 977.73871,11209.585 c 0,0 294.05559,260.125 697.69359,72.828 403.638,-187.303 545.8879,-577.859 545.8879,-577.859 0,0 -551.2046,462.279 -1243.58149,505.031"
     style="fill:#f46a17;fill-opacity:1;fill-rule:nonzero;stroke:none;stroke-width:0.544185"
     id="path30"
     inkscape:connector-curvature="0" /><path
     d="m 279.96341,10323.57 c 0,0 -275.1941965,845.778 626.9714,1006.78 0,0 -651.4271,-557.321 -626.9714,-1006.78"
     style="fill:#f03697;fill-opacity:1;fill-rule:nonzero;stroke:none;stroke-width:0.544185"
     id="path32"
     inkscape:connector-curvature="0" /><path
     d="m 2490.7133,10461.87 c 0,0 154.222,-568.3468 866.7991,-517.6778 0,0 -649.43,246.0148 -866.7991,517.6778"
     style="fill:#f03697;fill-opacity:1;fill-rule:nonzero;stroke:none;stroke-width:0.544185"
     id="path34"
     inkscape:connector-curvature="0" /><path
     d="m 4092.1126,10552.318 c 0,0 95.1452,-441.725 -159.8053,-757.3031 0,0 572.7707,341.0191 159.8053,757.3031"
     style="fill:#f03697;fill-opacity:1;fill-rule:nonzero;stroke:none;stroke-width:0.544185"
     id="path36"
     inkscape:connector-curvature="0" /><path
     d="m 2023.2316,10500.752 c 0,0 -64.1812,574.892 -823.15,529.665 0,0 545.4362,-167.005 823.15,-529.665"
     style="fill:#f03697;fill-opacity:1;fill-rule:nonzero;stroke:none;stroke-width:0.544185"
     id="path38"
     inkscape:connector-curvature="0" /><path
     d="m 274.45081,10255.101 c 0,0 203.2203,-343.8429 813.88789,-418.6193 0,0 -733.30499,-275.9396 -813.88789,418.6193"
     style="fill:#2c65ad;fill-opacity:1;fill-rule:nonzero;stroke:none;stroke-width:0.544185"
     id="path40"
     inkscape:connector-curvature="0" /><path
     d="m 2643.4932,10737.205 c 0,0 85.9485,420.535 577.2601,522.679 0,0 -344.7355,-252.132 -577.2601,-522.679"
     style="fill:#2c65ad;fill-opacity:1;fill-rule:nonzero;stroke:none;stroke-width:0.544185"
     id="path42"
     inkscape:connector-curvature="0" /><path
     d="m 3610.9772,10899.073 c 0,0 505.6781,-409.575 140.0296,-847.432 0,0 372.3093,177.328 276.1574,525.704 -53.4118,193.513 -278.3396,320.095 -416.187,321.728"
     style="fill:#2c65ad;fill-opacity:1;fill-rule:nonzero;stroke:none;stroke-width:0.544185"
     id="path44"
     inkscape:connector-curvature="0" /><path
     d="m 630.70131,10550.67 c 0,0 -115.2148,558.621 476.42269,574.484 0,0 -368.29329,-126.153 -476.42269,-574.484"
     style="fill:#2c65ad;fill-opacity:1;fill-rule:nonzero;stroke:none;stroke-width:0.544185"
     id="path46"
     inkscape:connector-curvature="0" /><path
     d="m 1124.761,9752.4977 c 0,0 565.7996,196.8098 756.1282,441.4643 0,0 -59.2835,-582.0761 -756.1282,-441.4643"
     style="fill:#f46a17;fill-opacity:1;fill-rule:nonzero;stroke:none;stroke-width:0.544185"
     id="path48"
     inkscape:connector-curvature="0" /><path
     d="m 2191.9995,10379.703 c 0,0 82.8086,-386.36 636.9355,-361.79 0,0 -380.7334,150.587 -636.9355,361.79"
     style="fill:#f9da06;fill-opacity:1;fill-rule:nonzero;stroke:none;stroke-width:0.544185"
     id="path50"
     inkscape:connector-curvature="0" /></g><text
   transform="scale(1,-1)"
   id="text163"
   y="-9387.6836"
   x="4848.061"
   style="font-style:normal;font-weight:normal;font-size:1192.38px;line-height:1.25;font-family:sans-serif;letter-spacing:0px;word-spacing:0px;opacity:0.86;fill:#000000;fill-opacity:1;stroke:none;stroke-width:7.5"
   xml:space="preserve"
   inkscape:export-xdpi="96"
   inkscape:export-ydpi="96"><tspan
     style="font-style:normal;font-variant:normal;font-weight:normal;font-stretch:normal;font-family:Flux;-inkscape-font-specification:Flux;stroke-width:7.5"
     y="-9387.6836"
     x="4848.061"
     id="tspan161"
     sodipodi:role="line">scikit-multiflow</tspan></text>

</g><rect
             transform="scale(1,-1)"
             y="-2913.7185"
             x="-4646.8154"
             height="1650"
             width="10719.3"
             id="rect846"
             style="opacity:0.24;fill:none;fill-opacity:1;stroke:none;stroke-width:22.1304;stroke-linecap:round;stroke-linejoin:miter;stroke-miterlimit:4;stroke-dasharray:none;stroke-dashoffset:0;stroke-opacity:1" /></g></g><flowRoot
         xml:space="preserve"
         id="flowRoot165"
         style="font-style:normal;font-weight:normal;font-size:40px;line-height:1.25;font-family:sans-serif;letter-spacing:0px;word-spacing:0px;fill:#000000;fill-opacity:1;stroke:none"><flowRegion
           id="flowRegion167"><rect
             id="rect169"
             width="376.27118"
             height="247.45763"
             x="1291.5254"
             y="433.89832" /></flowRegion><flowPara
           id="flowPara171" /></flowRoot><flowRoot
         xml:space="preserve"
         id="flowRoot173"
         style="font-style:normal;font-weight:normal;font-size:40px;line-height:1.25;font-family:sans-serif;letter-spacing:0px;word-spacing:0px;fill:#000000;fill-opacity:1;stroke:none"><flowRegion
           id="flowRegion175"><rect
             id="rect177"
             width="2237.2881"
             height="200"
             x="-362.71185"
             y="359.32202" /></flowRegion><flowPara
           id="flowPara179" /></flowRoot></g></g></svg>
