<?xml version="1.0" encoding="UTF-8" standalone="no"?>
<!DOCTYPE svg PUBLIC "-//W3C//DTD SVG 1.1//EN"
 "http://www.w3.org/Graphics/SVG/1.1/DTD/svg11.dtd">
<!-- Generated by graphviz version 2.43.0 (0)
 -->
<!-- Title: %3 Pages: 1 -->
<svg width="267pt" height="212pt"
 viewBox="0.00 0.00 267.00 212.00" xmlns="http://www.w3.org/2000/svg" xmlns:xlink="http://www.w3.org/1999/xlink">
<g id="graph0" class="graph" transform="scale(1 1) rotate(0) translate(4 208)">
<title>%3</title>
<polygon fill="white" stroke="transparent" points="-4,4 -4,-208 263,-208 263,4 -4,4"/>
<!-- 0 -->
<g id="node1" class="node">
<title>0</title>
<polygon fill="#fae6d7" stroke="black" stroke-width="1.2" points="186,-204 18,-204 18,-168 186,-168 186,-204"/>
<text text-anchor="middle" x="102" y="-183.2" font-family="trebuchet" font-size="11.00">empty_server_form_handler</text>
</g>
<!-- 1 -->
<g id="node2" class="node">
<title>1</title>
<polygon fill="#68b4eb" stroke="black" stroke-width="1.2" points="92,-132 0,-132 0,-84 92,-84 92,-132"/>
<text text-anchor="middle" x="46" y="-123.2" font-family="trebuchet" font-size="11.00">True</text>
<text text-anchor="middle" x="46" y="-111.2" font-family="trebuchet" font-size="11.00">P(True) = 0.9</text>
<text text-anchor="middle" x="46" y="-99.2" font-family="trebuchet" font-size="11.00">P(False) = 0.1</text>
<text text-anchor="middle" x="46" y="-87.2" font-family="trebuchet" font-size="11.00">samples: 503</text>
</g>
<!-- 0&#45;&gt;1 -->
<g id="edge1" class="edge">
<title>0&#45;&gt;1</title>
<path fill="none" stroke="black" stroke-width="0.6" d="M55,-167.91C55,-167.91 55,-142.2 55,-142.2"/>
<polygon fill="black" stroke="black" stroke-width="0.6" points="58.5,-142.2 55,-132.2 51.5,-142.2 58.5,-142.2"/>
<text text-anchor="middle" x="42" y="-157.45" font-family="Times,serif" font-size="7.00">&lt;= 0.5</text>
</g>
<!-- 2 -->
<g id="node3" class="node">
<title>2</title>
<polygon fill="#eda775" stroke="black" stroke-width="1.2" points="205.5,-126 110.5,-126 110.5,-90 205.5,-90 205.5,-126"/>
<text text-anchor="middle" x="158" y="-105.2" font-family="trebuchet" font-size="11.00">popup_window</text>
</g>
<!-- 0&#45;&gt;2 -->
<g id="edge2" class="edge">
<title>0&#45;&gt;2</title>
<path fill="none" stroke="black" stroke-width="0.6" d="M148.25,-167.91C148.25,-167.91 148.25,-136.26 148.25,-136.26"/>
<polygon fill="black" stroke="black" stroke-width="0.6" points="151.75,-136.26 148.25,-126.26 144.75,-136.26 151.75,-136.26"/>
<text text-anchor="middle" x="138.25" y="-154.49" font-family="Times,serif" font-size="7.00">&gt; 0.5</text>
</g>
<!-- 3 -->
<g id="node4" class="node">
<title>3</title>
<polygon fill="#fafdfe" stroke="black" stroke-width="1.2" points="149,-48 57,-48 57,0 149,0 149,-48"/>
<text text-anchor="middle" x="103" y="-39.2" font-family="trebuchet" font-size="11.00">True</text>
<text text-anchor="middle" x="103" y="-27.2" font-family="trebuchet" font-size="11.00">P(False) = 0.5</text>
<text text-anchor="middle" x="103" y="-15.2" font-family="trebuchet" font-size="11.00">P(True) = 0.5</text>
<text text-anchor="middle" x="103" y="-3.2" font-family="trebuchet" font-size="11.00">samples: 64</text>
</g>
<!-- 2&#45;&gt;3 -->
<g id="edge3" class="edge">
<title>2&#45;&gt;3</title>
<path fill="none" stroke="black" stroke-width="0.6" d="M129.75,-89.77C129.75,-89.77 129.75,-58.25 129.75,-58.25"/>
<polygon fill="black" stroke="black" stroke-width="0.6" points="133.25,-58.25 129.75,-48.25 126.25,-58.25 133.25,-58.25"/>
<text text-anchor="middle" x="116.75" y="-76.41" font-family="Times,serif" font-size="7.00">&lt;= 0.1</text>
</g>
<!-- 4 -->
<g id="node5" class="node">
<title>4</title>
<polygon fill="#e68742" stroke="black" stroke-width="1.2" points="259,-48 167,-48 167,0 259,0 259,-48"/>
<text text-anchor="middle" x="213" y="-39.2" font-family="trebuchet" font-size="11.00">False</text>
<text text-anchor="middle" x="213" y="-27.2" font-family="trebuchet" font-size="11.00">P(False) = 1.0</text>
<text text-anchor="middle" x="213" y="-15.2" font-family="trebuchet" font-size="11.00">P(True) = 0.0</text>
<text text-anchor="middle" x="213" y="-3.2" font-family="trebuchet" font-size="11.00">samples: 256</text>
</g>
<!-- 2&#45;&gt;4 -->
<g id="edge4" class="edge">
<title>2&#45;&gt;4</title>
<path fill="none" stroke="black" stroke-width="0.6" d="M186.25,-89.77C186.25,-89.77 186.25,-58.25 186.25,-58.25"/>
<polygon fill="black" stroke="black" stroke-width="0.6" points="189.75,-58.25 186.25,-48.25 182.75,-58.25 189.75,-58.25"/>
<text text-anchor="middle" x="176.25" y="-76.41" font-family="Times,serif" font-size="7.00">&gt; 0.1</text>
</g>
</g>
</svg>
