<?xml version="1.0" encoding="UTF-8" standalone="no"?>
<!DOCTYPE svg PUBLIC "-//W3C//DTD SVG 1.1//EN"
 "http://www.w3.org/Graphics/SVG/1.1/DTD/svg11.dtd">
<!-- Generated by graphviz version 8.0.5 (20230430.1635)
 -->
<!-- Pages: 1 -->
<svg width="292pt" height="212pt"
 viewBox="0.00 0.00 292.40 212.00" xmlns="http://www.w3.org/2000/svg" xmlns:xlink="http://www.w3.org/1999/xlink">
<g id="graph0" class="graph" transform="scale(1 1) rotate(0) translate(4 208)">
<polygon fill="white" stroke="none" points="-4,4 -4,-208 288.4,-208 288.4,4 -4,4"/>
<!-- 0 -->
<g id="node1" class="node">
<title>0</title>
<polygon fill="#fae6d7" stroke="black" stroke-width="1.2" points="185.4,-204 36,-204 36,-168 185.4,-168 185.4,-204"/>
<text text-anchor="middle" x="110.7" y="-181.55" font-family="trebuchet" font-size="11.00">empty_server_form_handler</text>
</g>
<!-- 1 -->
<g id="node2" class="node">
<title>1</title>
<polygon fill="#68b4eb" stroke="black" stroke-width="1.2" points="107.4,-132 0,-132 0,-84 107.4,-84 107.4,-132"/>
<text text-anchor="middle" x="53.7" y="-121.55" font-family="trebuchet" font-size="11.00">Class True:</text>
<text text-anchor="middle" x="53.7" y="-109.55" font-family="trebuchet" font-size="11.00">	P(False) = 0.1</text>
<text text-anchor="middle" x="53.7" y="-97.55" font-family="trebuchet" font-size="11.00">	P(True) = 0.9</text>
<text text-anchor="middle" x="53.7" y="-85.55" font-family="trebuchet" font-size="11.00">samples: 503</text>
</g>
<!-- 0&#45;&gt;1 -->
<g id="edge1" class="edge">
<title>0&#45;&gt;1</title>
<path fill="none" stroke="black" stroke-width="0.6" d="M71.7,-167.52C71.7,-167.52 71.7,-142.26 71.7,-142.26"/>
<polygon fill="black" stroke="black" stroke-width="0.6" points="75.2,-142.26 71.7,-132.26 68.2,-142.26 75.2,-142.26"/>
<text text-anchor="middle" x="58.95" y="-157.24" font-family="Times,serif" font-size="7.00">≤ 0.5455</text>
</g>
<!-- 2 -->
<g id="node3" class="node">
<title>2</title>
<polygon fill="#eda775" stroke="black" stroke-width="1.2" points="212.28,-126 125.13,-126 125.13,-90 212.28,-90 212.28,-126"/>
<text text-anchor="middle" x="168.7" y="-103.55" font-family="trebuchet" font-size="11.00">popup_window</text>
</g>
<!-- 0&#45;&gt;2 -->
<g id="edge2" class="edge">
<title>0&#45;&gt;2</title>
<path fill="none" stroke="black" stroke-width="0.6" d="M155.26,-167.52C155.26,-167.52 155.26,-136.35 155.26,-136.35"/>
<polygon fill="black" stroke="black" stroke-width="0.6" points="158.76,-136.35 155.26,-126.35 151.76,-136.35 158.76,-136.35"/>
<text text-anchor="middle" x="142.51" y="-154.28" font-family="Times,serif" font-size="7.00">&gt; 0.5455</text>
</g>
<!-- 3 -->
<g id="node4" class="node">
<title>3</title>
<polygon fill="#fafdfe" stroke="black" stroke-width="1.2" points="159.4,-48 52,-48 52,0 159.4,0 159.4,-48"/>
<text text-anchor="middle" x="105.7" y="-37.55" font-family="trebuchet" font-size="11.00">Class True:</text>
<text text-anchor="middle" x="105.7" y="-25.55" font-family="trebuchet" font-size="11.00">	P(False) = 0.5</text>
<text text-anchor="middle" x="105.7" y="-13.55" font-family="trebuchet" font-size="11.00">	P(True) = 0.5</text>
<text text-anchor="middle" x="105.7" y="-1.55" font-family="trebuchet" font-size="11.00">samples: 64</text>
</g>
<!-- 2&#45;&gt;3 -->
<g id="edge3" class="edge">
<title>2&#45;&gt;3</title>
<path fill="none" stroke="black" stroke-width="0.6" d="M142.26,-89.77C142.26,-89.77 142.26,-58.25 142.26,-58.25"/>
<polygon fill="black" stroke="black" stroke-width="0.6" points="145.76,-58.25 142.26,-48.25 138.76,-58.25 145.76,-58.25"/>
<text text-anchor="middle" x="129.51" y="-76.36" font-family="Times,serif" font-size="7.00">≤ 0.0909</text>
</g>
<!-- 4 -->
<g id="node5" class="node">
<title>4</title>
<polygon fill="#e68742" stroke="black" stroke-width="1.2" points="284.4,-48 177,-48 177,0 284.4,0 284.4,-48"/>
<text text-anchor="middle" x="230.7" y="-37.55" font-family="trebuchet" font-size="11.00">Class False:</text>
<text text-anchor="middle" x="230.7" y="-25.55" font-family="trebuchet" font-size="11.00">	P(False) = 1.0</text>
<text text-anchor="middle" x="230.7" y="-13.55" font-family="trebuchet" font-size="11.00">	P(True) = 0.0</text>
<text text-anchor="middle" x="230.7" y="-1.55" font-family="trebuchet" font-size="11.00">samples: 256</text>
</g>
<!-- 2&#45;&gt;4 -->
<g id="edge4" class="edge">
<title>2&#45;&gt;4</title>
<path fill="none" stroke="black" stroke-width="0.6" d="M194.64,-89.77C194.64,-89.77 194.64,-58.25 194.64,-58.25"/>
<polygon fill="black" stroke="black" stroke-width="0.6" points="198.14,-58.25 194.64,-48.25 191.14,-58.25 198.14,-58.25"/>
<text text-anchor="middle" x="181.89" y="-76.36" font-family="Times,serif" font-size="7.00">&gt; 0.0909</text>
</g>
</g>
</svg>
