<?xml version="1.0" encoding="UTF-8" standalone="no"?>
<!DOCTYPE svg PUBLIC "-//W3C//DTD SVG 1.1//EN"
 "http://www.w3.org/Graphics/SVG/1.1/DTD/svg11.dtd">
<!-- Generated by graphviz version 2.43.0 (0)
 -->
<!-- Title: %3 Pages: 1 -->
<svg width="262pt" height="212pt"
 viewBox="0.00 0.00 262.00 212.00" xmlns="http://www.w3.org/2000/svg" xmlns:xlink="http://www.w3.org/1999/xlink">
<g id="graph0" class="graph" transform="scale(1 1) rotate(0) translate(4 208)">
<title>%3</title>
<polygon fill="white" stroke="transparent" points="-4,4 -4,-208 258,-208 258,4 -4,4"/>
<!-- 0 -->
<g id="node1" class="node">
<title>0</title>
<polygon fill="#fae8db" stroke="black" stroke-width="1.2" points="180.5,-204 12.5,-204 12.5,-168 180.5,-168 180.5,-204"/>
<text text-anchor="middle" x="96.5" y="-183.2" font-family="trebuchet" font-size="11.00">empty_server_form_handler</text>
</g>
<!-- 1 -->
<g id="node2" class="node">
<title>1</title>
<polygon fill="#67b4eb" stroke="black" stroke-width="1.2" points="99,-132 0,-132 0,-84 99,-84 99,-132"/>
<text text-anchor="middle" x="49.5" y="-123.2" font-family="trebuchet" font-size="11.00">True</text>
<text text-anchor="middle" x="49.5" y="-111.2" font-family="trebuchet" font-size="11.00">P(True) = 0.88</text>
<text text-anchor="middle" x="49.5" y="-99.2" font-family="trebuchet" font-size="11.00">P(False) = 0.12</text>
<text text-anchor="middle" x="49.5" y="-87.2" font-family="trebuchet" font-size="11.00">samples: 507</text>
</g>
<!-- 0&#45;&gt;1 -->
<g id="edge1" class="edge">
<title>0&#45;&gt;1</title>
<path fill="none" stroke="black" stroke-width="0.6" d="M55.75,-167.91C55.75,-167.91 55.75,-142.2 55.75,-142.2"/>
<polygon fill="black" stroke="black" stroke-width="0.6" points="59.25,-142.2 55.75,-132.2 52.25,-142.2 59.25,-142.2"/>
<text text-anchor="middle" x="40.25" y="-157.45" font-family="Times,serif" font-size="7.00">&lt;= 0.55</text>
</g>
<!-- 2 -->
<g id="node3" class="node">
<title>2</title>
<polygon fill="#eda978" stroke="black" stroke-width="1.2" points="171.5,-126 117.5,-126 117.5,-90 171.5,-90 171.5,-126"/>
<text text-anchor="middle" x="144.5" y="-105.2" font-family="trebuchet" font-size="11.00">https</text>
</g>
<!-- 0&#45;&gt;2 -->
<g id="edge2" class="edge">
<title>0&#45;&gt;2</title>
<path fill="none" stroke="black" stroke-width="0.6" d="M144.5,-167.91C144.5,-167.91 144.5,-136.26 144.5,-136.26"/>
<polygon fill="black" stroke="black" stroke-width="0.6" points="148,-136.26 144.5,-126.26 141,-136.26 148,-136.26"/>
<text text-anchor="middle" x="132" y="-154.49" font-family="Times,serif" font-size="7.00">&gt; 0.55</text>
</g>
<!-- 3 -->
<g id="node4" class="node">
<title>3</title>
<polygon fill="#f8dcc8" stroke="black" stroke-width="1.2" points="135,-48 36,-48 36,0 135,0 135,-48"/>
<text text-anchor="middle" x="85.5" y="-39.2" font-family="trebuchet" font-size="11.00">False</text>
<text text-anchor="middle" x="85.5" y="-27.2" font-family="trebuchet" font-size="11.00">P(False) = 0.64</text>
<text text-anchor="middle" x="85.5" y="-15.2" font-family="trebuchet" font-size="11.00">P(True) = 0.36</text>
<text text-anchor="middle" x="85.5" y="-3.2" font-family="trebuchet" font-size="11.00">samples: 108</text>
</g>
<!-- 2&#45;&gt;3 -->
<g id="edge3" class="edge">
<title>2&#45;&gt;3</title>
<path fill="none" stroke="black" stroke-width="0.6" d="M126.25,-89.77C126.25,-89.77 126.25,-58.25 126.25,-58.25"/>
<polygon fill="black" stroke="black" stroke-width="0.6" points="129.75,-58.25 126.25,-48.25 122.75,-58.25 129.75,-58.25"/>
<text text-anchor="middle" x="110.75" y="-76.41" font-family="Times,serif" font-size="7.00">&lt;= 0.55</text>
</g>
<!-- 4 -->
<g id="node5" class="node">
<title>4</title>
<polygon fill="#e78945" stroke="black" stroke-width="1.2" points="254,-48 153,-48 153,0 254,0 254,-48"/>
<text text-anchor="middle" x="203.5" y="-39.2" font-family="trebuchet" font-size="11.00">False</text>
<text text-anchor="middle" x="203.5" y="-27.2" font-family="trebuchet" font-size="11.00">P(False) = 0.97</text>
<text text-anchor="middle" x="203.5" y="-15.2" font-family="trebuchet" font-size="11.00">P(True) = 0.031</text>
<text text-anchor="middle" x="203.5" y="-3.2" font-family="trebuchet" font-size="11.00">samples: 317</text>
</g>
<!-- 2&#45;&gt;4 -->
<g id="edge4" class="edge">
<title>2&#45;&gt;4</title>
<path fill="none" stroke="black" stroke-width="0.6" d="M162.25,-89.77C162.25,-89.77 162.25,-58.25 162.25,-58.25"/>
<polygon fill="black" stroke="black" stroke-width="0.6" points="165.75,-58.25 162.25,-48.25 158.75,-58.25 165.75,-58.25"/>
<text text-anchor="middle" x="149.75" y="-76.41" font-family="Times,serif" font-size="7.00">&gt; 0.55</text>
</g>
</g>
</svg>
