<svg version="1.1" viewBox="0.0 0.0 198.5564304461942 177.67191601049868" fill="none" stroke="none" stroke-linecap="square" stroke-miterlimit="10" xmlns:xlink="http://www.w3.org/1999/xlink" xmlns="http://www.w3.org/2000/svg"><clipPath id="p.0"><path d="m0 0l198.55643 0l0 177.67192l-198.55643 0l0 -177.67192z" clip-rule="nonzero"/></clipPath><g clip-path="url(#p.0)"><path fill="#000000" fill-opacity="0.0" d="m0 0l198.55643 0l0 177.67192l-198.55643 0z" fill-rule="evenodd"/><path fill="#000000" fill-opacity="0.0" d="m-38.700787 -14.144357l241.19685 0l0 233.54332l-241.19685 0z" fill-rule="evenodd"/><path fill="#e4b1af" d="m101.84273 168.61353q-21.578117 0 -37.531242 -7.890625q-15.953121 -7.890625 -24.484371 -22.390625q-8.515625 -14.499992 -8.515625 -33.734367q0 -26.640625 10.0625 -47.3125q10.0625 -20.671875 27.281246 -32.0q17.234375 -11.343749 38.265617 -11.343749q19.578125 0 29.734375 10.062499q10.15625 10.062502 10.15625 26.562502q0 11.0625 -3.90625 17.78125q-3.890625 6.703125 -11.140625 6.703125q-5.078125 0 -7.984375 -2.359375q-2.890625 -2.359375 -2.890625 -6.890625q0 -1.625 0.71875 -5.984375q1.09375 -5.4375 1.09375 -8.703125q0 -16.5 -17.59375 -16.5q-11.96875 0 -22.859367 7.796875q-10.875 7.796875 -17.578125 22.9375q-6.703121 15.140625 -6.703121 36.0q0 21.75 12.140621 33.624992q12.15625 11.875 35.906242 11.875q11.78125 0 23.84375 -2.984375q12.0625 -3.0 26.75 -9.15625q2.71875 -1.09375 4.53125 -1.09375q2.90625 0 4.34375 2.1875q1.453125 2.171875 1.453125 5.609375q0 11.0625 -11.96875 16.328125q-12.875 5.609375 -26.75 8.25q-13.859375 2.625 -26.375 2.625z" fill-rule="nonzero"/></g></svg>