<svg version="1.1" viewBox="0.0 0.0 689.007874015748 317.43832020997377" fill="none" stroke="none" stroke-linecap="square" stroke-miterlimit="10" xmlns:xlink="http://www.w3.org/1999/xlink" xmlns="http://www.w3.org/2000/svg"><clipPath id="p.0"><path d="m0 0l689.0079 0l0 317.43832l-689.0079 0l0 -317.43832z" clip-rule="nonzero"/></clipPath><g clip-path="url(#p.0)"><path fill="#000000" fill-opacity="0.0" d="m0 0l689.0079 0l0 317.43832l-689.0079 0z" fill-rule="evenodd"/><path fill="#000000" fill-opacity="0.0" d="m202.12073 -45.884514l766.9921 0l0 342.58267l-766.9921 0z" fill-rule="evenodd"/><path fill="#337dba" d="m256.1676 106.490486q0 -3.0 1.109375 -6.1875q1.109375 -3.1875 3.3125 -5.78125q2.21875 -2.609375 5.53125 -4.296875q3.328125 -1.703125 7.890625 -1.703125q7.546875 0 10.53125 2.9375q3.0 2.921875 3.0 7.34375q0 2.484375 -0.984375 5.484375q-0.96875 2.984375 -2.921875 5.53125q-1.953125 2.53125 -5.078125 4.234375q-3.109375 1.6875 -7.40625 1.6875q-8.078125 0 -11.34375 -2.53125q-3.25 -2.546875 -3.640625 -6.71875zm-14.3125 29.296867q2.203125 -3.640625 5.0625 -5.203125q2.875 -1.5625 5.875 -1.5625q4.9375 0 8.515625 3.1875q3.59375 3.1875 3.59375 8.140625q-0.140625 1.171875 -0.34375 2.34375q-0.1875 1.171875 -0.828125 2.34375q-1.828125 3.375 -3.0 5.71875q-1.171875 2.34375 -2.15625 4.359375q-0.96875 2.015625 -1.890625 3.96875q-0.90625 1.953125 -2.203125 4.6875q-1.5625 3.265625 -3.515625 7.109375q-1.953125 3.828125 -3.71875 7.875q-1.75 4.03125 -2.984375 7.9375q-1.234375 3.90625 -1.234375 7.15625q0 3.515625 1.75 4.625q1.765625 1.109375 5.015625 1.109375q3.640625 0 7.609375 -1.5625q3.984375 -1.5625 8.015625 -4.03125q4.03125 -2.484375 7.9375 -5.671875q3.90625 -3.1875 7.359375 -6.4375q3.453125 -3.265625 6.375 -6.25q2.9375 -3.0 4.890625 -5.34375q2.59375 -2.46875 5.203125 -2.46875q2.34375 0 3.84375 2.078125q1.5 2.078125 1.5 5.34375q0 2.984375 -1.5 6.375q-1.5 3.390625 -4.890625 6.375q-6.640625 6.78125 -13.546875 12.96875q-6.890625 6.171875 -14.125 10.9375q-7.21875 4.75 -14.515625 7.609375q-7.28125 2.859375 -14.703125 2.859375q-10.546875 0 -16.609375 -5.390625q-6.046875 -5.40625 -6.046875 -16.875q0 -5.984375 1.6875 -11.703125q1.703125 -5.734375 4.046875 -11.140625q2.34375 -5.40625 4.9375 -10.421875q2.609375 -5.015625 4.4375 -9.5625q0.640625 -1.703125 2.265625 -5.203125q1.640625 -3.515625 3.453125 -7.171875q2.09375 -4.296875 4.4375 -9.109375zm158.06006 54.15625q-9.765625 7.421875 -19.53125 11.65625q-9.765625 4.234375 -21.609375 4.234375q-3.90625 0 -7.5625 -1.421875q-3.640625 -1.4375 -9.5 -5.09375q-8.59375 11.328125 -17.25 17.1875q-8.65625 5.859375 -18.03125 5.859375q-4.5625 0 -8.734375 -1.625q-4.15625 -1.625 -7.28125 -4.875q-3.125 -3.265625 -5.015625 -8.078125q-1.890625 -4.8125 -1.890625 -11.203125q0 -7.8125 1.75 -16.859375q1.765625 -9.046875 4.234375 -17.640625q2.484375 -8.59375 4.890625 -15.875q2.40625 -7.296875 3.84375 -11.59375q2.609375 -5.46875 6.578125 -7.8749924q3.96875 -2.40625 7.75 -2.40625q1.6875 0 3.4375 0.59375q1.765625 0.578125 3.1875 1.625q1.4375 1.03125 2.34375 2.4687424q0.921875 1.421875 0.921875 3.125q0 1.421875 -0.515625 2.46875q-1.953125 6.25 -4.625 13.609375q-2.671875 7.34375 -5.015625 14.765625q-2.34375 7.421875 -3.96875 14.53125q-1.625 7.09375 -1.625 12.953125q0 0.90625 0.25 2.40625q0.265625 1.5 0.65625 2.875q0.390625 1.359375 1.03125 2.34375q0.65625 0.96875 1.4375 0.96875q3.390625 0 7.546875 -3.78125q4.171875 -3.78125 9.125 -10.421875q4.296875 -4.546875 8.140625 -10.734375q3.84375 -6.1875 7.28125 -12.6875q3.453125 -6.515625 6.640625 -12.828125q3.1875 -6.3125 6.25 -11.328125q3.0625 -5.015625 6.046875 -8.078125q3.0 -3.0624924 6.125 -3.0624924q5.34375 0 7.546875 3.4531174q2.21875 3.453125 2.21875 8.265625q0 5.46875 -1.765625 10.03125q-1.75 4.546875 -4.75 9.4375q-2.984375 4.875 -7.09375 10.8125q-4.09375 5.921875 -8.90625 14.125q2.078125 2.734375 6.5 2.734375q4.6875 0 9.703125 -1.171875q5.015625 -1.171875 9.953125 -3.3125q4.953125 -2.15625 9.828125 -5.21875q4.890625 -3.0625 9.453125 -6.703125q1.953125 -1.171875 3.640625 -1.171875q2.34375 0 3.84375 2.078125q1.5 2.078125 1.5 5.34375q0 3.515625 -2.09375 7.625q-2.078125 4.09375 -6.890625 7.46875zm45.303223 -47.640625q-0.640625 -0.140625 -1.171875 -0.140625q-0.515625 0 -1.15625 0q-4.953125 0 -9.25 1.953125q-4.296875 1.953125 -7.875 5.140625q-3.578125 3.1875 -6.390625 7.234375q-2.796875 4.03125 -5.015625 8.0q-2.203125 3.96875 -3.703125 7.625q-1.5 3.640625 -2.28125 6.109375q4.5625 -2.34375 9.4375 -5.328125q4.890625 -3.0 9.1875 -5.734375q4.296875 -2.734375 7.484375 -4.9375q3.1875 -2.21875 4.5 -3.0q5.84375 -3.65625 8.0625 -6.84375q2.21875 -3.1875 2.21875 -5.53125q0 -1.953125 -1.25 -3.125q-1.234375 -1.171875 -2.796875 -1.421875zm4.6875 -17.968742q10.8125 0 16.140625 5.2031174q5.34375 5.203125 5.34375 14.453125q0 5.46875 -2.859375 11.453125q-2.859375 5.984375 -9.890625 12.171875q-7.03125 6.1875 -18.8125 12.640625q-11.78125 6.4375 -29.5 12.953125q0.65625 3.765625 4.03125 5.921875q3.390625 2.140625 9.0 2.140625q5.984375 0 12.8125 -1.75q6.84375 -1.765625 13.546875 -4.5q6.703125 -2.734375 13.078125 -5.921875q6.390625 -3.1875 11.53125 -6.046875q5.140625 -2.875 8.59375 -4.953125q3.453125 -2.078125 4.625 -2.609375q1.171875 -0.78125 2.140625 -0.90625q0.984375 -0.125 1.765625 -0.125q1.5625 0 2.59375 0.71875q1.046875 0.703125 1.765625 1.6875q0.71875 0.96875 0.96875 2.078125q0.265625 1.109375 0.265625 1.890625q0 1.171875 -0.265625 2.796875q-0.25 1.625 -1.953125 3.71875q-0.640625 0.640625 -4.359375 3.515625q-3.703125 2.859375 -9.5625 6.765625q-5.859375 3.90625 -13.609375 8.265625q-7.75 4.359375 -16.40625 8.015625q-8.65625 3.640625 -18.03125 6.046875q-9.375 2.40625 -18.484375 2.40625q-7.8125 0 -13.875 -3.0q-6.046875 -2.984375 -10.28125 -8.0625q-4.234375 -5.078125 -6.453125 -11.71875q-2.203125 -6.640625 -2.203125 -13.9375q0 -5.59375 2.203125 -12.296875q2.21875 -6.703125 6.375 -13.46875q4.171875 -6.78125 10.21875 -13.21875q6.0625 -6.453125 13.609375 -11.390625q7.5625 -4.953125 16.609375 -7.9374924q9.046875 -3.0 19.328125 -3.0zm78.64746 18.874992q5.078125 -3.125 10.484375 -5.71875q5.40625 -2.609375 10.484375 -4.5q5.078125 -1.890625 9.6875 -3.0q4.625 -1.109375 8.28125 -1.109375q5.859375 0 9.046875 2.8125q3.1875 2.796875 3.1875 9.4375q0 1.421875 -0.140625 3.0625q-0.125 1.625 -0.515625 3.4375q-0.640625 3.390625 -3.90625 7.953125q-3.25 4.546875 -7.609375 9.5q-4.359375 4.9375 -9.375 9.953125q-5.015625 5.015625 -9.25 9.25q-4.234375 4.234375 -7.03125 7.359375q-2.796875 3.125 -2.796875 4.296875q0 1.03125 0.125 1.421875q0.140625 0.390625 1.171875 0.390625q7.03125 -2.984375 15.6875 -7.21875q8.671875 -4.234375 17.265625 -8.65625q8.59375 -4.4375 16.265625 -8.65625q7.6875 -4.234375 13.03125 -7.359375q1.171875 -0.65625 2.40625 -1.109375q1.234375 -0.453125 2.28125 -0.453125q2.34375 0 3.90625 1.5625q1.5625 1.5625 1.5625 4.15625q0 3.0 -2.546875 6.84375q-2.53125 3.84375 -8.53125 8.0q-4.546875 2.875 -10.21875 6.453125q-5.65625 3.578125 -11.84375 7.421875q-6.1875 3.84375 -12.5 7.484375q-6.3125 3.640625 -12.171875 6.515625q-5.859375 2.859375 -11.015625 4.625q-5.140625 1.75 -8.90625 1.75q-8.984375 0 -13.484375 -4.296875q-4.484375 -4.296875 -4.484375 -11.0625q0 -1.046875 0.125 -1.5625q0.921875 -5.734375 3.390625 -11.0625q2.46875 -5.34375 5.59375 -10.15625q3.125 -4.828125 6.515625 -9.1875q3.390625 -4.359375 6.1875 -8.203125q2.796875 -3.84375 4.609375 -7.09375q1.828125 -3.265625 1.828125 -5.984375q0 -0.65625 -0.265625 -1.296875q-0.25 -0.65625 -1.171875 -0.65625q-1.5625 0 -5.140625 1.171875q-3.578125 1.171875 -7.609375 3.125q-4.03125 1.9375 -7.6875 4.484375q-3.640625 2.53125 -5.203125 5.40625q-2.078125 3.640625 -4.8125 9.25q-2.734375 5.59375 -5.671875 11.71875q-2.921875 6.109375 -5.65625 12.109375q-2.734375 5.984375 -4.6875 10.28125q-1.5625 3.765625 -4.109375 6.765625q-2.53125 3.0 -5.53125 5.078125q-3.0 2.078125 -6.125 3.25q-3.125 1.171875 -5.71875 1.171875q-3.0 0 -4.765625 -1.5625q-1.75 -1.5625 -1.75 -5.078125q0 -1.421875 0.453125 -3.5625q0.453125 -2.15625 1.890625 -4.765625q2.34375 -4.421875 4.75 -9.625q2.40625 -5.21875 5.53125 -11.921875q3.125 -6.703125 7.21875 -15.359375q4.109375 -8.671875 9.71875 -19.984375q-1.828125 -1.5625 -3.0625 -3.84375q-1.234375 -2.28125 -1.234375 -5.671875q0 -3.125 1.296875 -5.390625q1.296875 -2.28125 3.515625 -3.71875q2.21875 -1.4375 5.140625 -2.140625q2.9375 -0.71875 6.1875 -0.71875q3.390625 0 6.765625 0.59375q3.390625 0.578125 6.0625 1.75q2.671875 1.171875 4.359375 2.859375q1.6875 1.6875 1.6875 3.90625q0 0.390625 -0.265625 1.046875q-0.25 0.640625 -0.578125 1.421875q-0.328125 0.78125 -0.59375 1.4375q-0.25 0.65625 -0.25 1.046875q0 0.25 0.125 0.25l0.140625 0l0.25 -0.125z" fill-rule="nonzero"/><path fill="#000000" fill-opacity="0.0" d="m52.333332 -6.3070865l766.9921 0l0 313.5118l-766.9921 0z" fill-rule="evenodd"/><path fill="#337dba" d="m192.36458 216.48105q2.921875 0.484375 6.796875 5.34375q3.890625 4.84375 3.890625 8.96875q0 2.671875 -4.125 4.125q-1.46875 0.484375 -4.75 1.8125q-3.265625 1.34375 -5.9375 1.828125q-2.671875 0.484375 -6.0625 0.484375q-5.09375 0 -7.765625 -1.203125q-6.796875 -2.921875 -17.71875 -13.59375q-10.921875 -10.671875 -21.109375 -24.375q-10.187492 -13.71875 -15.046867 -25.609375l-1.453125 0q-6.796875 0 -9.953125 -0.25q-7.265625 26.9375 -12.125 47.078125q-1.9375 8.5 -5.953125 13.109375q-4.0 4.609375 -12.96875 4.609375q-7.53125 0 -11.046875 -2.546875q-3.5156288 -2.546875 -3.5156288 -8.609375q0 -2.671875 0.7187538 -5.109375l29.359375 -113.3125q-12.609375 3.640625 -19.15625 9.953125q-2.671875 -2.921875 -4.25 -7.640625q-1.578125 -4.734375 -1.578125 -9.34375q0 -3.40625 2.0625 -5.46875q2.0625 -2.0625 5.703125 -3.765625q1.21875 -0.71875 8.859375 -4.359375q7.640625 -3.640625 14.671875 -5.578125q2.1875 -4.859375 6.671875 -8.015625q4.5 -3.15625 11.53125 -3.15625q4.125 0 6.796875 1.578125q2.671875 1.578125 3.6406174 4.0q8.96875 -2.90625 21.59375 -2.90625q15.53125 0 27.046875 6.1875q11.53125 6.1875 17.59375 15.90625q6.078125 9.703125 6.078125 19.640625q0 22.078125 -14.203125 35.3125q-14.1875 13.21875 -36.515625 18.796875q5.09375 8.75 13.578125 19.671875q8.5 10.90625 16.140625 18.5625q7.65625 7.640625 10.078125 7.640625l2.421875 0.234375zm-66.48437 -113.796875q-7.03125 28.140625 -11.640625 48.765625q2.90625 0.25 8.25 0.25q11.640617 0 23.281242 -3.515625q11.65625 -3.53125 19.53125 -10.5625q7.890625 -7.03125 7.890625 -17.46875q0 -9.46875 -7.765625 -15.171875q-7.765625 -5.703125 -20.859375 -5.703125q-7.28125 0 -18.687492 3.40625z" fill-rule="nonzero"/></g></svg>