<?xml version="1.0" encoding="UTF-8" standalone="no"?>
<!DOCTYPE svg PUBLIC "-//W3C//DTD SVG 1.1//EN"
 "http://www.w3.org/Graphics/SVG/1.1/DTD/svg11.dtd">
<!-- Generated by graphviz version 2.40.1 (20161225.0304)
 -->
<!-- Title: %3 Pages: 1 -->
<svg width="530pt" height="404pt"
 viewBox="0.00 0.00 530.00 404.00" xmlns="http://www.w3.org/2000/svg" xmlns:xlink="http://www.w3.org/1999/xlink">
<g id="graph0" class="graph" transform="scale(1 1) rotate(0) translate(4 400)">
<title>%3</title>
<polygon fill="#ffffff" stroke="transparent" points="-4,4 -4,-400 526,-400 526,4 -4,4"/>
<!-- x -->
<g id="node1" class="node">
<title>x</title>
<polygon fill="none" stroke="#000000" stroke-width="1.2" points="314.5,-396 260.5,-396 260.5,-360 314.5,-360 314.5,-396"/>
<text text-anchor="middle" x="287.5" y="-375.2" font-family="trebuchet" font-size="11.00" fill="#000000">x</text>
</g>
<!-- (&#39;clouds&#39;, &#39;humidity&#39;, &#39;pressure&#39;, &#39;temperature&#39;, &#39;wind&#39;) -->
<g id="node2" class="node">
<title>(&#39;clouds&#39;, &#39;humidity&#39;, &#39;pressure&#39;, &#39;temperature&#39;, &#39;wind&#39;)</title>
<polygon fill="none" stroke="#000000" stroke-width="1.2" points="305,-252 0,-252 0,-216 305,-216 305,-252"/>
<text text-anchor="middle" x="152.5" y="-231.2" font-family="trebuchet" font-size="11.00" fill="#000000">(&#39;clouds&#39;, &#39;humidity&#39;, &#39;pressure&#39;, &#39;temperature&#39;, &#39;wind&#39;)</text>
</g>
<!-- x&#45;&gt;(&#39;clouds&#39;, &#39;humidity&#39;, &#39;pressure&#39;, &#39;temperature&#39;, &#39;wind&#39;) -->
<g id="edge1" class="edge">
<title>x&#45;&gt;(&#39;clouds&#39;, &#39;humidity&#39;, &#39;pressure&#39;, &#39;temperature&#39;, &#39;wind&#39;)</title>
<path fill="none" stroke="#000000" stroke-width=".6" d="M282.75,-359.7623C282.75,-359.7623 282.75,-262.0896 282.75,-262.0896"/>
<polygon fill="#000000" stroke="#000000" stroke-width=".6" points="286.2501,-262.0896 282.75,-252.0896 279.2501,-262.0897 286.2501,-262.0896"/>
</g>
<!-- get_hour -->
<g id="node3" class="node">
<title>get_hour</title>
<polygon fill="none" stroke="#000000" stroke-width="1.2" points="395.5,-324 341.5,-324 341.5,-288 395.5,-288 395.5,-324"/>
<text text-anchor="middle" x="368.5" y="-303.2" font-family="trebuchet" font-size="11.00" fill="#000000">get_hour</text>
</g>
<!-- x&#45;&gt;get_hour -->
<g id="edge3" class="edge">
<title>x&#45;&gt;get_hour</title>
<path fill="none" stroke="#000000" stroke-width=".6" d="M309.75,-359.8314C309.75,-338.502 309.75,-306 309.75,-306 309.75,-306 331.1889,-306 331.1889,-306"/>
<polygon fill="#000000" stroke="#000000" stroke-width=".6" points="331.189,-309.5001 341.1889,-306 331.1889,-302.5001 331.189,-309.5001"/>
</g>
<!-- StandardScaler -->
<g id="node5" class="node">
<title>StandardScaler</title>
<polygon fill="none" stroke="#000000" stroke-width="1.2" points="331.5,-180 243.5,-180 243.5,-144 331.5,-144 331.5,-180"/>
<text text-anchor="middle" x="287.5" y="-159.2" font-family="trebuchet" font-size="11.00" fill="#000000">StandardScaler</text>
</g>
<!-- (&#39;clouds&#39;, &#39;humidity&#39;, &#39;pressure&#39;, &#39;temperature&#39;, &#39;wind&#39;)&#45;&gt;StandardScaler -->
<g id="edge6" class="edge">
<title>(&#39;clouds&#39;, &#39;humidity&#39;, &#39;pressure&#39;, &#39;temperature&#39;, &#39;wind&#39;)&#45;&gt;StandardScaler</title>
<path fill="none" stroke="#000000" stroke-width=".6" d="M274.25,-215.8314C274.25,-215.8314 274.25,-190.4133 274.25,-190.4133"/>
<polygon fill="#000000" stroke="#000000" stroke-width=".6" points="277.7501,-190.4132 274.25,-180.4133 270.7501,-190.4133 277.7501,-190.4132"/>
</g>
<!-- target_mean_by_station_and_hour -->
<g id="node4" class="node">
<title>target_mean_by_station_and_hour</title>
<polygon fill="none" stroke="#000000" stroke-width="1.2" points="522,-252 323,-252 323,-216 522,-216 522,-252"/>
<text text-anchor="middle" x="422.5" y="-231.2" font-family="trebuchet" font-size="11.00" fill="#000000">target_mean_by_station_and_hour</text>
</g>
<!-- get_hour&#45;&gt;target_mean_by_station_and_hour -->
<g id="edge2" class="edge">
<title>get_hour&#45;&gt;target_mean_by_station_and_hour</title>
<path fill="none" stroke="#000000" stroke-width=".6" d="M368.5,-287.8314C368.5,-287.8314 368.5,-262.4133 368.5,-262.4133"/>
<polygon fill="#000000" stroke="#000000" stroke-width=".6" points="372.0001,-262.4132 368.5,-252.4133 365.0001,-262.4133 372.0001,-262.4132"/>
</g>
<!-- target_mean_by_station_and_hour&#45;&gt;StandardScaler -->
<g id="edge7" class="edge">
<title>target_mean_by_station_and_hour&#45;&gt;StandardScaler</title>
<path fill="none" stroke="#000000" stroke-width=".6" d="M327.25,-215.8314C327.25,-215.8314 327.25,-190.4133 327.25,-190.4133"/>
<polygon fill="#000000" stroke="#000000" stroke-width=".6" points="330.7501,-190.4132 327.25,-180.4133 323.7501,-190.4133 330.7501,-190.4132"/>
</g>
<!-- LinearRegression -->
<g id="node6" class="node">
<title>LinearRegression</title>
<polygon fill="none" stroke="#000000" stroke-width="1.2" points="336,-108 239,-108 239,-72 336,-72 336,-108"/>
<text text-anchor="middle" x="287.5" y="-87.2" font-family="trebuchet" font-size="11.00" fill="#000000">LinearRegression</text>
</g>
<!-- StandardScaler&#45;&gt;LinearRegression -->
<g id="edge5" class="edge">
<title>StandardScaler&#45;&gt;LinearRegression</title>
<path fill="none" stroke="#000000" stroke-width=".6" d="M287.5,-143.8314C287.5,-143.8314 287.5,-118.4133 287.5,-118.4133"/>
<polygon fill="#000000" stroke="#000000" stroke-width=".6" points="291.0001,-118.4132 287.5,-108.4133 284.0001,-118.4133 291.0001,-118.4132"/>
</g>
<!-- y -->
<g id="node7" class="node">
<title>y</title>
<polygon fill="none" stroke="#000000" stroke-width="1.2" points="314.5,-36 260.5,-36 260.5,0 314.5,0 314.5,-36"/>
<text text-anchor="middle" x="287.5" y="-15.2" font-family="trebuchet" font-size="11.00" fill="#000000">y</text>
</g>
<!-- LinearRegression&#45;&gt;y -->
<g id="edge4" class="edge">
<title>LinearRegression&#45;&gt;y</title>
<path fill="none" stroke="#000000" stroke-width=".6" d="M287.5,-71.8314C287.5,-71.8314 287.5,-46.4133 287.5,-46.4133"/>
<polygon fill="#000000" stroke="#000000" stroke-width=".6" points="291.0001,-46.4132 287.5,-36.4133 284.0001,-46.4133 291.0001,-46.4132"/>
</g>
</g>
</svg>
