<?xml version="1.0" encoding="UTF-8" standalone="no"?>
<!DOCTYPE svg PUBLIC "-//W3C//DTD SVG 1.1//EN"
 "http://www.w3.org/Graphics/SVG/1.1/DTD/svg11.dtd">
<!-- Generated by graphviz version 2.42.3 (20191010.1750)
 -->
<!-- Title: %3 Pages: 1 -->
<svg width="577pt" height="404pt"
 viewBox="0.00 0.00 576.70 404.00" xmlns="http://www.w3.org/2000/svg" xmlns:xlink="http://www.w3.org/1999/xlink">
<g id="graph0" class="graph" transform="scale(1 1) rotate(0) translate(4 400)">
<title>%3</title>
<polygon fill="white" stroke="transparent" points="-4,4 -4,-400 572.7,-400 572.7,4 -4,4"/>
<!-- x -->
<g id="node1" class="node">
<title>x</title>
<polygon fill="none" stroke="black" stroke-width="1.2" points="398.13,-396 344.13,-396 344.13,-360 398.13,-360 398.13,-396"/>
<text text-anchor="middle" x="371.13" y="-374.7" font-family="trebuchet" font-size="11.00">x</text>
</g>
<!-- (&#39;clouds&#39;, &#39;humidity&#39;, &#39;pressure&#39;, &#39;temperature&#39;, &#39;wind&#39;) -->
<g id="node2" class="node">
<title>(&#39;clouds&#39;, &#39;humidity&#39;, &#39;pressure&#39;, &#39;temperature&#39;, &#39;wind&#39;)</title>
<polygon fill="none" stroke="black" stroke-width="1.2" points="264.39,-252 -0.13,-252 -0.13,-216 264.39,-216 264.39,-252"/>
<text text-anchor="middle" x="132.13" y="-230.7" font-family="trebuchet" font-size="11.00">(&#39;clouds&#39;, &#39;humidity&#39;, &#39;pressure&#39;, &#39;temperature&#39;, &#39;wind&#39;)</text>
</g>
<!-- x&#45;&gt;(&#39;clouds&#39;, &#39;humidity&#39;, &#39;pressure&#39;, &#39;temperature&#39;, &#39;wind&#39;) -->
<g id="edge1" class="edge">
<title>x&#45;&gt;(&#39;clouds&#39;, &#39;humidity&#39;, &#39;pressure&#39;, &#39;temperature&#39;, &#39;wind&#39;)</title>
<path fill="none" stroke="black" stroke-width="0.6" d="M343.71,-378C280.94,-378 132.13,-378 132.13,-378 132.13,-378 132.13,-262.24 132.13,-262.24"/>
<polygon fill="black" stroke="black" stroke-width="0.6" points="135.63,-262.24 132.13,-252.24 128.63,-262.24 135.63,-262.24"/>
</g>
<!-- add_hour -->
<g id="node3" class="node">
<title>add_hour</title>
<polygon fill="none" stroke="black" stroke-width="1.2" points="401.62,-324 340.64,-324 340.64,-288 401.62,-288 401.62,-324"/>
<text text-anchor="middle" x="371.13" y="-302.7" font-family="trebuchet" font-size="11.00">add_hour</text>
</g>
<!-- x&#45;&gt;add_hour -->
<g id="edge3" class="edge">
<title>x&#45;&gt;add_hour</title>
<path fill="none" stroke="black" stroke-width="0.6" d="M371.13,-359.83C371.13,-359.83 371.13,-334.41 371.13,-334.41"/>
<polygon fill="black" stroke="black" stroke-width="0.6" points="374.63,-334.41 371.13,-324.41 367.63,-334.41 374.63,-334.41"/>
</g>
<!-- target_ewm_0.5_by_station -->
<g id="node5" class="node">
<title>target_ewm_0.5_by_station</title>
<polygon fill="none" stroke="black" stroke-width="1.2" points="568.77,-324 419.49,-324 419.49,-288 568.77,-288 568.77,-324"/>
<text text-anchor="middle" x="494.13" y="-302.7" font-family="trebuchet" font-size="11.00">target_ewm_0.5_by_station</text>
</g>
<!-- x&#45;&gt;target_ewm_0.5_by_station -->
<g id="edge4" class="edge">
<title>x&#45;&gt;target_ewm_0.5_by_station</title>
<path fill="none" stroke="black" stroke-width="0.6" d="M398.43,-378C434.66,-378 494.13,-378 494.13,-378 494.13,-378 494.13,-334.17 494.13,-334.17"/>
<polygon fill="black" stroke="black" stroke-width="0.6" points="497.63,-334.17 494.13,-324.17 490.63,-334.17 497.63,-334.17"/>
</g>
<!-- StandardScaler -->
<g id="node6" class="node">
<title>StandardScaler</title>
<polygon fill="none" stroke="black" stroke-width="1.2" points="418.95,-180 329.31,-180 329.31,-144 418.95,-144 418.95,-180"/>
<text text-anchor="middle" x="374.13" y="-158.7" font-family="trebuchet" font-size="11.00">StandardScaler</text>
</g>
<!-- (&#39;clouds&#39;, &#39;humidity&#39;, &#39;pressure&#39;, &#39;temperature&#39;, &#39;wind&#39;)&#45;&gt;StandardScaler -->
<g id="edge7" class="edge">
<title>(&#39;clouds&#39;, &#39;humidity&#39;, &#39;pressure&#39;, &#39;temperature&#39;, &#39;wind&#39;)&#45;&gt;StandardScaler</title>
<path fill="none" stroke="black" stroke-width="0.6" d="M132.13,-215.83C132.13,-194.5 132.13,-162 132.13,-162 132.13,-162 319.18,-162 319.18,-162"/>
<polygon fill="black" stroke="black" stroke-width="0.6" points="319.18,-165.5 329.18,-162 319.18,-158.5 319.18,-165.5"/>
</g>
<!-- target_mean_by_station_and_hour -->
<g id="node4" class="node">
<title>target_mean_by_station_and_hour</title>
<polygon fill="none" stroke="black" stroke-width="1.2" points="466.26,-252 282,-252 282,-216 466.26,-216 466.26,-252"/>
<text text-anchor="middle" x="374.13" y="-230.7" font-family="trebuchet" font-size="11.00">target_mean_by_station_and_hour</text>
</g>
<!-- add_hour&#45;&gt;target_mean_by_station_and_hour -->
<g id="edge2" class="edge">
<title>add_hour&#45;&gt;target_mean_by_station_and_hour</title>
<path fill="none" stroke="black" stroke-width="0.6" d="M371.13,-287.83C371.13,-287.83 371.13,-262.41 371.13,-262.41"/>
<polygon fill="black" stroke="black" stroke-width="0.6" points="374.63,-262.41 371.13,-252.41 367.63,-262.41 374.63,-262.41"/>
</g>
<!-- target_mean_by_station_and_hour&#45;&gt;StandardScaler -->
<g id="edge8" class="edge">
<title>target_mean_by_station_and_hour&#45;&gt;StandardScaler</title>
<path fill="none" stroke="black" stroke-width="0.6" d="M374.13,-215.83C374.13,-215.83 374.13,-190.41 374.13,-190.41"/>
<polygon fill="black" stroke="black" stroke-width="0.6" points="377.63,-190.41 374.13,-180.41 370.63,-190.41 377.63,-190.41"/>
</g>
<!-- target_ewm_0.5_by_station&#45;&gt;StandardScaler -->
<g id="edge9" class="edge">
<title>target_ewm_0.5_by_station&#45;&gt;StandardScaler</title>
<path fill="none" stroke="black" stroke-width="0.6" d="M517.57,-287.76C517.57,-249.01 517.57,-162 517.57,-162 517.57,-162 429.12,-162 429.12,-162"/>
<polygon fill="black" stroke="black" stroke-width="0.6" points="429.12,-158.5 419.12,-162 429.12,-165.5 429.12,-158.5"/>
</g>
<!-- LinearRegression -->
<g id="node7" class="node">
<title>LinearRegression</title>
<polygon fill="none" stroke="black" stroke-width="1.2" points="424.35,-108 323.91,-108 323.91,-72 424.35,-72 424.35,-108"/>
<text text-anchor="middle" x="374.13" y="-86.7" font-family="trebuchet" font-size="11.00">LinearRegression</text>
</g>
<!-- StandardScaler&#45;&gt;LinearRegression -->
<g id="edge6" class="edge">
<title>StandardScaler&#45;&gt;LinearRegression</title>
<path fill="none" stroke="black" stroke-width="0.6" d="M374.13,-143.83C374.13,-143.83 374.13,-118.41 374.13,-118.41"/>
<polygon fill="black" stroke="black" stroke-width="0.6" points="377.63,-118.41 374.13,-108.41 370.63,-118.41 377.63,-118.41"/>
</g>
<!-- y -->
<g id="node8" class="node">
<title>y</title>
<polygon fill="none" stroke="black" stroke-width="1.2" points="401.13,-36 347.13,-36 347.13,0 401.13,0 401.13,-36"/>
<text text-anchor="middle" x="374.13" y="-14.7" font-family="trebuchet" font-size="11.00">y</text>
</g>
<!-- LinearRegression&#45;&gt;y -->
<g id="edge5" class="edge">
<title>LinearRegression&#45;&gt;y</title>
<path fill="none" stroke="black" stroke-width="0.6" d="M374.13,-71.83C374.13,-71.83 374.13,-46.41 374.13,-46.41"/>
<polygon fill="black" stroke="black" stroke-width="0.6" points="377.63,-46.41 374.13,-36.41 370.63,-46.41 377.63,-46.41"/>
</g>
</g>
</svg>
