<?xml version="1.0" encoding="UTF-8" standalone="no"?>
<svg
   xmlns:dc="http://purl.org/dc/elements/1.1/"
   xmlns:cc="http://creativecommons.org/ns#"
   xmlns:rdf="http://www.w3.org/1999/02/22-rdf-syntax-ns#"
   xmlns:svg="http://www.w3.org/2000/svg"
   xmlns="http://www.w3.org/2000/svg"
   xmlns:sodipodi="http://sodipodi.sourceforge.net/DTD/sodipodi-0.dtd"
   xmlns:inkscape="http://www.inkscape.org/namespaces/inkscape"
   inkscape:version="1.0beta2 (2b71d25, 2019-12-03)"
   sodipodi:docname="River Icon white.svg"
   viewBox="0 0 1122.52 1005.7547"
   height="1005.7547"
   width="1122.52"
   xml:space="preserve"
   id="svg833"
   version="1.1"><metadata
     id="metadata839"><rdf:RDF><cc:Work
         rdf:about=""><dc:format>image/svg+xml</dc:format><dc:type
           rdf:resource="http://purl.org/dc/dcmitype/StillImage" /><dc:title></dc:title></cc:Work></rdf:RDF></metadata><defs
     id="defs837"><linearGradient
       id="linearGradient861"
       spreadMethod="pad"
       gradientTransform="matrix(-584.6698,-337.55927,-337.55927,584.6698,713.28076,312.28772)"
       gradientUnits="userSpaceOnUse"
       y2="0"
       x2="1"
       y1="0"
       x1="0"><stop
         id="stop855"
         offset="0"
         style="stop-opacity:1;stop-color:#009aef" /><stop
         id="stop857"
         offset="0.999574"
         style="stop-opacity:1;stop-color:#003263" /><stop
         id="stop859"
         offset="1"
         style="stop-opacity:1;stop-color:#003263" /></linearGradient><linearGradient
       id="linearGradient883"
       spreadMethod="pad"
       gradientTransform="matrix(-584.66644,-337.55734,-337.55734,584.66644,713.27954,545.93439)"
       gradientUnits="userSpaceOnUse"
       y2="0"
       x2="1"
       y1="0"
       x1="0"><stop
         id="stop877"
         offset="0"
         style="stop-opacity:1;stop-color:#009aef" /><stop
         id="stop879"
         offset="0.999574"
         style="stop-opacity:1;stop-color:#003263" /><stop
         id="stop881"
         offset="1"
         style="stop-opacity:1;stop-color:#003263" /></linearGradient><linearGradient
       id="linearGradient905"
       spreadMethod="pad"
       gradientTransform="matrix(-584.6698,-337.55927,-337.55927,584.6698,713.28076,779.58441)"
       gradientUnits="userSpaceOnUse"
       y2="0"
       x2="1"
       y1="0"
       x1="0"><stop
         id="stop899"
         offset="0"
         style="stop-opacity:1;stop-color:#009aef" /><stop
         id="stop901"
         offset="0.999574"
         style="stop-opacity:1;stop-color:#003263" /><stop
         id="stop903"
         offset="1"
         style="stop-opacity:1;stop-color:#003263" /></linearGradient></defs><sodipodi:namedview
     inkscape:current-layer="g841"
     inkscape:window-maximized="0"
     inkscape:window-y="23"
     inkscape:window-x="0"
     inkscape:cy="502.87735"
     inkscape:cx="457.04254"
     inkscape:zoom="0.82770496"
     showgrid="false"
     id="namedview835"
     inkscape:window-height="1290"
     inkscape:window-width="1720"
     inkscape:pageshadow="2"
     inkscape:pageopacity="0"
     guidetolerance="10"
     gridtolerance="10"
     objecttolerance="10"
     borderopacity="1"
     inkscape:document-rotation="0"
     bordercolor="#666666"
     pagecolor="#ffffff" /><g
     transform="matrix(1.3333333,0,0,-1.3333333,0,1005.7547)"
     inkscape:label="River Icon"
     inkscape:groupmode="layer"
     id="g841"><g
       style="fill:#ffffff"
       id="g843"><g
         style="fill:#ffffff"
         id="g845"><g
           style="fill:#ffffff"
           id="g851"><g
             style="fill:#ffffff"
             id="g853"><path
               inkscape:connector-curvature="0"
               id="path863"
               style="fill:#ffffff;stroke:none"
               d="M 387.045,176.105 C 356.11,143.946 333.76,120.709 286.604,120.709 v 0 c -47.14,0 -69.482,23.229 -100.417,55.389 v 0 c -16.074,16.711 -33.9,35.244 -56.424,50.66 v 0 C 82.408,259.168 18.001,223.696 18.001,166.311 v 0 c 47.14,0 69.49,-23.237 100.425,-55.389 v 0 c 36.099,-37.53 81.021,-84.234 168.178,-84.234 v 0 c 87.165,0 132.095,46.704 168.203,84.226 v 0 c 30.934,32.16 53.283,55.397 100.44,55.397 v 0 c 47.155,0 69.506,-23.237 100.441,-55.397 v 0 C 671.768,94.204 689.6,75.67 712.132,60.253 v 0 C 759.49,27.851 823.89,63.322 823.89,120.704 v 0 0.005 c -47.157,0 -69.506,23.237 -100.442,55.396 v 0 c -36.106,37.523 -81.036,84.226 -168.201,84.226 v 0 c -87.165,0 -132.095,-46.703 -168.202,-84.226" /></g></g></g></g><g
       style="fill:#ffffff"
       id="g865"><g
         style="fill:#ffffff"
         id="g867"><g
           style="fill:#ffffff"
           id="g873"><g
             style="fill:#ffffff"
             id="g875"><path
               inkscape:connector-curvature="0"
               id="path885"
               style="fill:#ffffff;stroke:none"
               d="M 387.045,409.749 C 356.11,377.59 333.76,354.353 286.604,354.353 v 0 c -47.14,0 -69.482,23.237 -100.417,55.389 v 0 c -16.074,16.716 -33.899,35.249 -56.423,50.666 v 0 C 82.409,492.821 18.001,457.349 18.001,399.964 v 0 c 47.14,0 69.49,-23.238 100.425,-55.397 v 0 c 36.099,-37.53 81.021,-84.236 168.178,-84.236 v 0 c 87.165,0 132.103,46.706 168.203,84.236 v 0 c 30.934,32.159 53.283,55.397 100.44,55.397 v 0 c 47.155,0 69.506,-23.238 100.441,-55.397 v 0 c 16.077,-16.716 33.91,-35.251 56.444,-50.67 v 0 c 47.358,-32.402 111.758,3.067 111.758,60.449 v 0 0.007 c -47.157,0 -69.506,23.237 -100.442,55.396 v 0 c -36.098,37.53 -81.036,84.235 -168.201,84.235 v 0 c -87.165,0 -132.102,-46.705 -168.202,-84.235" /></g></g></g></g><path
       inkscape:connector-curvature="0"
       id="path907"
       style="fill:#ffffff;stroke:none"
       d="M 387.045,643.402 C 356.11,611.243 333.76,588.005 286.604,588.005 v 0 c -47.14,0 -69.482,23.23 -100.417,55.389 v 0 c -16.074,16.712 -33.9,35.243 -56.424,50.66 v 0 C 82.408,726.466 18.001,690.993 18.001,633.608 v 0 c 47.14,0 69.49,-23.237 100.425,-55.389 v 0 c 36.099,-37.53 81.021,-84.235 168.178,-84.235 v 0 c 87.165,0 132.095,46.705 168.203,84.227 v 0 c 30.934,32.16 53.283,55.397 100.44,55.397 v 0 c 47.155,0 69.506,-23.237 100.441,-55.397 v 0 c 16.08,-16.712 33.912,-35.244 56.444,-50.661 v 0 C 759.49,495.148 823.89,530.618 823.89,588 v 0 0.005 c -47.157,0 -69.506,23.238 -100.442,55.397 v 0 c -36.106,37.523 -81.036,84.226 -168.201,84.226 v 0 c -87.165,0 -132.095,-46.703 -168.202,-84.226" /></g></svg>
