<?xml version="1.0" encoding="UTF-8" standalone="no"?>
<!DOCTYPE svg PUBLIC "-//W3C//DTD SVG 1.1//EN"
 "http://www.w3.org/Graphics/SVG/1.1/DTD/svg11.dtd">
<!-- Generated by graphviz version 2.44.1 (20200629.0846)
 -->
<!-- Pages: 1 -->
<svg width="167pt" height="335pt"
 viewBox="0.00 0.00 167.00 335.00" xmlns="http://www.w3.org/2000/svg" xmlns:xlink="http://www.w3.org/1999/xlink">
<g id="graph0" class="graph" transform="scale(1 1) rotate(0) translate(4 331)">
<polygon fill="white" stroke="transparent" points="-4,4 -4,-331 163,-331 163,4 -4,4"/>
<g id="clust1" class="cluster">
<title>cluster_RandomUnderSampler</title>
<polygon fill="none" stroke="black" points="8,-64 8,-139 151,-139 151,-64 8,-64"/>
<text text-anchor="middle" x="79.5" y="-123.8" font-family="Times,serif" font-size="14.00">RandomUnderSampler</text>
</g>
<!-- x -->
<g id="node1" class="node">
<title>x</title>
<ellipse fill="none" stroke="black" cx="79" cy="-309" rx="27" ry="18"/>
<text text-anchor="middle" x="79" y="-305.3" font-family="Times,serif" font-size="14.00">x</text>
</g>
<!-- extract_body -->
<g id="node2" class="node">
<title>extract_body</title>
<ellipse fill="none" stroke="black" cx="79" cy="-237" rx="56.59" ry="18"/>
<text text-anchor="middle" x="79" y="-233.3" font-family="Times,serif" font-size="14.00">extract_body</text>
</g>
<!-- x&#45;&gt;extract_body -->
<g id="edge1" class="edge">
<title>x&#45;&gt;extract_body</title>
<path fill="none" stroke="black" d="M79,-290.7C79,-282.98 79,-273.71 79,-265.11"/>
<polygon fill="black" stroke="black" points="82.5,-265.1 79,-255.1 75.5,-265.1 82.5,-265.1"/>
</g>
<!-- TFIDF -->
<g id="node3" class="node">
<title>TFIDF</title>
<ellipse fill="none" stroke="black" cx="79" cy="-165" rx="35.19" ry="18"/>
<text text-anchor="middle" x="79" y="-161.3" font-family="Times,serif" font-size="14.00">TFIDF</text>
</g>
<!-- extract_body&#45;&gt;TFIDF -->
<g id="edge2" class="edge">
<title>extract_body&#45;&gt;TFIDF</title>
<path fill="none" stroke="black" d="M79,-218.7C79,-210.98 79,-201.71 79,-193.11"/>
<polygon fill="black" stroke="black" points="82.5,-193.1 79,-183.1 75.5,-193.1 82.5,-193.1"/>
</g>
<!-- BernoulliNB -->
<g id="node4" class="node">
<title>BernoulliNB</title>
<ellipse fill="none" stroke="black" cx="79" cy="-90" rx="55.79" ry="18"/>
<text text-anchor="middle" x="79" y="-86.3" font-family="Times,serif" font-size="14.00">BernoulliNB</text>
</g>
<!-- TFIDF&#45;&gt;BernoulliNB -->
<g id="edge3" class="edge">
<title>TFIDF&#45;&gt;BernoulliNB</title>
<path fill="none" stroke="black" d="M79,-146.7C79,-138.25 79,-127.87 79,-118.37"/>
<polygon fill="black" stroke="black" points="82.5,-118.18 79,-108.18 75.5,-118.18 82.5,-118.18"/>
</g>
<!-- y -->
<g id="node5" class="node">
<title>y</title>
<ellipse fill="none" stroke="black" cx="79" cy="-18" rx="27" ry="18"/>
<text text-anchor="middle" x="79" y="-14.3" font-family="Times,serif" font-size="14.00">y</text>
</g>
<!-- BernoulliNB&#45;&gt;y -->
<g id="edge4" class="edge">
<title>BernoulliNB&#45;&gt;y</title>
<path fill="none" stroke="black" d="M79,-71.7C79,-63.98 79,-54.71 79,-46.11"/>
<polygon fill="black" stroke="black" points="82.5,-46.1 79,-36.1 75.5,-46.1 82.5,-46.1"/>
</g>
</g>
</svg>
