<?xml version="1.0" encoding="UTF-8" standalone="no"?>
<!DOCTYPE svg PUBLIC "-//W3C//DTD SVG 1.1//EN"
 "http://www.w3.org/Graphics/SVG/1.1/DTD/svg11.dtd">
<!-- Generated by graphviz version 2.43.0 (0)
 -->
<!-- Title: %3 Pages: 1 -->
<svg width="169pt" height="262pt"
 viewBox="0.00 0.00 169.00 262.00" xmlns="http://www.w3.org/2000/svg" xmlns:xlink="http://www.w3.org/1999/xlink">
<g id="graph0" class="graph" transform="scale(1 1) rotate(0) translate(4 258)">
<title>%3</title>
<polygon fill="white" stroke="transparent" points="-4,4 -4,-258 165,-258 165,4 -4,4"/>
<g id="clust1" class="cluster">
<title>cluster_RandomUnderSampler</title>
<polygon fill="none" stroke="black" points="8,-64 8,-138 153,-138 153,-64 8,-64"/>
<text text-anchor="middle" x="80.5" y="-122.8" font-family="Times,serif" font-size="14.00">RandomUnderSampler</text>
</g>
<!-- x -->
<g id="node1" class="node">
<title>x</title>
<polygon fill="none" stroke="black" stroke-width="1.2" points="107,-254 53,-254 53,-218 107,-218 107,-254"/>
<text text-anchor="middle" x="80" y="-232.7" font-family="trebuchet" font-size="11.00">x</text>
</g>
<!-- StandardScaler -->
<g id="node2" class="node">
<title>StandardScaler</title>
<polygon fill="none" stroke="black" stroke-width="1.2" points="124.82,-182 35.18,-182 35.18,-146 124.82,-146 124.82,-182"/>
<text text-anchor="middle" x="80" y="-160.7" font-family="trebuchet" font-size="11.00">StandardScaler</text>
</g>
<!-- x&#45;&gt;StandardScaler -->
<g id="edge1" class="edge">
<title>x&#45;&gt;StandardScaler</title>
<path fill="none" stroke="black" stroke-width="0.6" d="M80,-217.83C80,-217.83 80,-192.41 80,-192.41"/>
<polygon fill="black" stroke="black" stroke-width="0.6" points="83.5,-192.41 80,-182.41 76.5,-192.41 83.5,-192.41"/>
</g>
<!-- LogisticRegression -->
<g id="node3" class="node">
<title>LogisticRegression</title>
<polygon fill="none" stroke="black" stroke-width="1.2" points="133.44,-108 26.56,-108 26.56,-72 133.44,-72 133.44,-108"/>
<text text-anchor="middle" x="80" y="-86.7" font-family="trebuchet" font-size="11.00">LogisticRegression</text>
</g>
<!-- StandardScaler&#45;&gt;LogisticRegression -->
<g id="edge3" class="edge">
<title>StandardScaler&#45;&gt;LogisticRegression</title>
<path fill="none" stroke="black" stroke-width="0.6" d="M80,-145.71C80,-145.71 80,-118.08 80,-118.08"/>
<polygon fill="black" stroke="black" stroke-width="0.6" points="83.5,-118.08 80,-108.08 76.5,-118.08 83.5,-118.08"/>
</g>
<!-- y -->
<g id="node4" class="node">
<title>y</title>
<polygon fill="none" stroke="black" stroke-width="1.2" points="107,-36 53,-36 53,0 107,0 107,-36"/>
<text text-anchor="middle" x="80" y="-14.7" font-family="trebuchet" font-size="11.00">y</text>
</g>
<!-- LogisticRegression&#45;&gt;y -->
<g id="edge2" class="edge">
<title>LogisticRegression&#45;&gt;y</title>
<path fill="none" stroke="black" stroke-width="0.6" d="M80,-71.83C80,-71.83 80,-46.41 80,-46.41"/>
<polygon fill="black" stroke="black" stroke-width="0.6" points="83.5,-46.41 80,-36.41 76.5,-46.41 83.5,-46.41"/>
</g>
</g>
</svg>
