<?xml version="1.0" encoding="UTF-8" standalone="no"?>
<!DOCTYPE svg PUBLIC "-//W3C//DTD SVG 1.1//EN"
 "http://www.w3.org/Graphics/SVG/1.1/DTD/svg11.dtd">
<!-- Generated by graphviz version 2.40.1 (0)
 -->
<!-- Title: %3 Pages: 1 -->
<svg width="855pt" height="404pt"
 viewBox="0.00 0.00 855.17 404.00" xmlns="http://www.w3.org/2000/svg" xmlns:xlink="http://www.w3.org/1999/xlink">
<g id="graph0" class="graph" transform="scale(1 1) rotate(0) translate(4 400)">
<title>%3</title>
<polygon fill="#ffffff" stroke="transparent" points="-4,4 -4,-400 851.1719,-400 851.1719,4 -4,4"/>
<!-- x -->
<g id="node1" class="node">
<title>x</title>
<ellipse fill="none" stroke="#000000" cx="552.1321" cy="-378" rx="27" ry="18"/>
<text text-anchor="middle" x="552.1321" y="-374.3" font-family="Times,serif" font-size="14.00" fill="#000000">x</text>
</g>
<!-- [&#39;clouds&#39;, &#39;humidity&#39;, &#39;pressure&#39;, &#39;temperature&#39;, &#39;wind&#39;] -->
<g id="node2" class="node">
<title>[&#39;clouds&#39;, &#39;humidity&#39;, &#39;pressure&#39;, &#39;temperature&#39;, &#39;wind&#39;]</title>
<ellipse fill="none" stroke="#000000" cx="202.1321" cy="-234" rx="202.2642" ry="18"/>
<text text-anchor="middle" x="202.1321" y="-230.3" font-family="Times,serif" font-size="14.00" fill="#000000">[&#39;clouds&#39;, &#39;humidity&#39;, &#39;pressure&#39;, &#39;temperature&#39;, &#39;wind&#39;]</text>
</g>
<!-- x&#45;&gt;[&#39;clouds&#39;, &#39;humidity&#39;, &#39;pressure&#39;, &#39;temperature&#39;, &#39;wind&#39;] -->
<g id="edge1" class="edge">
<title>x&#45;&gt;[&#39;clouds&#39;, &#39;humidity&#39;, &#39;pressure&#39;, &#39;temperature&#39;, &#39;wind&#39;]</title>
<path fill="none" stroke="#000000" d="M528.8965,-368.4402C473.405,-345.6095 332.0343,-287.4455 254.6743,-255.6174"/>
<polygon fill="#000000" stroke="#000000" points="255.6908,-252.251 245.1112,-251.6829 253.0274,-258.7245 255.6908,-252.251"/>
</g>
<!-- add_hour -->
<g id="node3" class="node">
<title>add_hour</title>
<ellipse fill="none" stroke="#000000" cx="552.1321" cy="-306" rx="46.5926" ry="18"/>
<text text-anchor="middle" x="552.1321" y="-302.3" font-family="Times,serif" font-size="14.00" fill="#000000">add_hour</text>
</g>
<!-- x&#45;&gt;add_hour -->
<g id="edge2" class="edge">
<title>x&#45;&gt;add_hour</title>
<path fill="none" stroke="#000000" d="M552.1321,-359.8314C552.1321,-352.131 552.1321,-342.9743 552.1321,-334.4166"/>
<polygon fill="#000000" stroke="#000000" points="555.6322,-334.4132 552.1321,-324.4133 548.6322,-334.4133 555.6322,-334.4132"/>
</g>
<!-- target_ewm_0.5_by_station -->
<g id="node5" class="node">
<title>target_ewm_0.5_by_station</title>
<ellipse fill="none" stroke="#000000" cx="732.1321" cy="-306" rx="115.0796" ry="18"/>
<text text-anchor="middle" x="732.1321" y="-302.3" font-family="Times,serif" font-size="14.00" fill="#000000">target_ewm_0.5_by_station</text>
</g>
<!-- x&#45;&gt;target_ewm_0.5_by_station -->
<g id="edge4" class="edge">
<title>x&#45;&gt;target_ewm_0.5_by_station</title>
<path fill="none" stroke="#000000" d="M575.2954,-368.7347C601.7668,-358.1461 645.911,-340.4884 680.6334,-326.5995"/>
<polygon fill="#000000" stroke="#000000" points="682.1697,-329.7546 690.1546,-322.791 679.5699,-323.2553 682.1697,-329.7546"/>
</g>
<!-- StandardScaler -->
<g id="node6" class="node">
<title>StandardScaler</title>
<ellipse fill="none" stroke="#000000" cx="563.1321" cy="-162" rx="66.0889" ry="18"/>
<text text-anchor="middle" x="563.1321" y="-158.3" font-family="Times,serif" font-size="14.00" fill="#000000">StandardScaler</text>
</g>
<!-- [&#39;clouds&#39;, &#39;humidity&#39;, &#39;pressure&#39;, &#39;temperature&#39;, &#39;wind&#39;]&#45;&gt;StandardScaler -->
<g id="edge6" class="edge">
<title>[&#39;clouds&#39;, &#39;humidity&#39;, &#39;pressure&#39;, &#39;temperature&#39;, &#39;wind&#39;]&#45;&gt;StandardScaler</title>
<path fill="none" stroke="#000000" d="M284.9528,-217.4817C350.1851,-204.4714 439.7745,-186.6032 499.4688,-174.6974"/>
<polygon fill="#000000" stroke="#000000" points="500.3961,-178.0815 509.5183,-172.693 499.0269,-171.2167 500.3961,-178.0815"/>
</g>
<!-- target_mean_by_station_and_hour -->
<g id="node4" class="node">
<title>target_mean_by_station_and_hour</title>
<ellipse fill="none" stroke="#000000" cx="563.1321" cy="-234" rx="141.075" ry="18"/>
<text text-anchor="middle" x="563.1321" y="-230.3" font-family="Times,serif" font-size="14.00" fill="#000000">target_mean_by_station_and_hour</text>
</g>
<!-- add_hour&#45;&gt;target_mean_by_station_and_hour -->
<g id="edge3" class="edge">
<title>add_hour&#45;&gt;target_mean_by_station_and_hour</title>
<path fill="none" stroke="#000000" d="M554.9078,-287.8314C556.0843,-280.131 557.4832,-270.9743 558.7906,-262.4166"/>
<polygon fill="#000000" stroke="#000000" points="562.2684,-262.8272 560.3189,-252.4133 555.3487,-261.7699 562.2684,-262.8272"/>
</g>
<!-- target_mean_by_station_and_hour&#45;&gt;StandardScaler -->
<g id="edge7" class="edge">
<title>target_mean_by_station_and_hour&#45;&gt;StandardScaler</title>
<path fill="none" stroke="#000000" d="M563.1321,-215.8314C563.1321,-208.131 563.1321,-198.9743 563.1321,-190.4166"/>
<polygon fill="#000000" stroke="#000000" points="566.6322,-190.4132 563.1321,-180.4133 559.6322,-190.4133 566.6322,-190.4132"/>
</g>
<!-- target_ewm_0.5_by_station&#45;&gt;StandardScaler -->
<g id="edge5" class="edge">
<title>target_ewm_0.5_by_station&#45;&gt;StandardScaler</title>
<path fill="none" stroke="#000000" d="M733.1947,-287.8618C733.3644,-267.8966 730.5449,-235.9882 713.1321,-216 692.966,-192.8513 662.1145,-179.6248 633.6233,-172.0681"/>
<polygon fill="#000000" stroke="#000000" points="634.2115,-168.6087 623.6655,-169.6247 632.5433,-175.407 634.2115,-168.6087"/>
</g>
<!-- LinearRegression -->
<g id="node7" class="node">
<title>LinearRegression</title>
<ellipse fill="none" stroke="#000000" cx="563.1321" cy="-90" rx="75.2868" ry="18"/>
<text text-anchor="middle" x="563.1321" y="-86.3" font-family="Times,serif" font-size="14.00" fill="#000000">LinearRegression</text>
</g>
<!-- StandardScaler&#45;&gt;LinearRegression -->
<g id="edge8" class="edge">
<title>StandardScaler&#45;&gt;LinearRegression</title>
<path fill="none" stroke="#000000" d="M563.1321,-143.8314C563.1321,-136.131 563.1321,-126.9743 563.1321,-118.4166"/>
<polygon fill="#000000" stroke="#000000" points="566.6322,-118.4132 563.1321,-108.4133 559.6322,-118.4133 566.6322,-118.4132"/>
</g>
<!-- y -->
<g id="node8" class="node">
<title>y</title>
<ellipse fill="none" stroke="#000000" cx="563.1321" cy="-18" rx="27" ry="18"/>
<text text-anchor="middle" x="563.1321" y="-14.3" font-family="Times,serif" font-size="14.00" fill="#000000">y</text>
</g>
<!-- LinearRegression&#45;&gt;y -->
<g id="edge9" class="edge">
<title>LinearRegression&#45;&gt;y</title>
<path fill="none" stroke="#000000" d="M563.1321,-71.8314C563.1321,-64.131 563.1321,-54.9743 563.1321,-46.4166"/>
<polygon fill="#000000" stroke="#000000" points="566.6322,-46.4132 563.1321,-36.4133 559.6322,-46.4133 566.6322,-46.4132"/>
</g>
</g>
</svg>
