<?xml version="1.0" encoding="UTF-8" standalone="no"?>
<!DOCTYPE svg PUBLIC "-//W3C//DTD SVG 1.1//EN"
 "http://www.w3.org/Graphics/SVG/1.1/DTD/svg11.dtd">
<!-- Generated by graphviz version 2.42.3 (20191010.1750)
 -->
<!-- Title: %3 Pages: 1 -->
<svg width="1122pt" height="444pt"
 viewBox="0.00 0.00 1122.15 444.00" xmlns="http://www.w3.org/2000/svg" xmlns:xlink="http://www.w3.org/1999/xlink">
<g id="graph0" class="graph" transform="scale(1 1) rotate(0) translate(4 440)">
<title>%3</title>
<polygon fill="white" stroke="transparent" points="-4,4 -4,-440 1118.15,-440 1118.15,4 -4,4"/>
<!-- 0 -->
<g id="node1" class="node">
<title>0</title>
<polygon fill="#fcf0e8" stroke="black" stroke-width="1.2" points="760.76,-436 648.86,-436 648.86,-392 760.76,-392 760.76,-436"/>
<text text-anchor="middle" x="704.81" y="-427.2" font-family="trebuchet" font-size="11.00">nswprice &lt; 0.11478 </text>
<text text-anchor="middle" x="704.81" y="-416.2" font-family="trebuchet" font-size="11.00"> P(False) = 0.559</text>
<text text-anchor="middle" x="704.81" y="-405.2" font-family="trebuchet" font-size="11.00">P(True) = 0.441 </text>
<text text-anchor="middle" x="704.81" y="-394.2" font-family="trebuchet" font-size="11.00"> samples: 1200</text>
</g>
<!-- 1 -->
<g id="node2" class="node">
<title>1</title>
<polygon fill="#f6d4bb" stroke="black" stroke-width="1.2" points="699.07,-356 586.55,-356 586.55,-312 699.07,-312 699.07,-356"/>
<text text-anchor="middle" x="642.81" y="-347.2" font-family="trebuchet" font-size="11.00">nswprice &lt; 0.06725 </text>
<text text-anchor="middle" x="642.81" y="-336.2" font-family="trebuchet" font-size="11.00"> P(False) = 0.672</text>
<text text-anchor="middle" x="642.81" y="-325.2" font-family="trebuchet" font-size="11.00">P(True) = 0.328 </text>
<text text-anchor="middle" x="642.81" y="-314.2" font-family="trebuchet" font-size="11.00"> samples: 1200</text>
</g>
<!-- 0&#45;&gt;1 -->
<g id="edge1" class="edge">
<title>0&#45;&gt;1</title>
<path fill="none" stroke="black" stroke-width="0.6" d="M674.02,-391.72C674.02,-391.72 674.02,-366.16 674.02,-366.16"/>
<polygon fill="black" stroke="black" stroke-width="0.6" points="677.52,-366.16 674.02,-356.16 670.52,-366.16 677.52,-366.16"/>
</g>
<!-- 26 -->
<g id="node27" class="node">
<title>26</title>
<polygon fill="#49a5e7" stroke="black" stroke-width="1.2" points="815.99,-356 717.63,-356 717.63,-312 815.99,-312 815.99,-356"/>
<text text-anchor="middle" x="766.81" y="-347.2" font-family="trebuchet" font-size="11.00">day &lt; 3.57143 </text>
<text text-anchor="middle" x="766.81" y="-336.2" font-family="trebuchet" font-size="11.00"> P(True) = 0.961</text>
<text text-anchor="middle" x="766.81" y="-325.2" font-family="trebuchet" font-size="11.00">P(False) = 0.039 </text>
<text text-anchor="middle" x="766.81" y="-314.2" font-family="trebuchet" font-size="11.00"> samples: 1200</text>
</g>
<!-- 0&#45;&gt;26 -->
<g id="edge26" class="edge">
<title>0&#45;&gt;26</title>
<path fill="none" stroke="black" stroke-width="0.6" d="M739.13,-391.72C739.13,-391.72 739.13,-366.16 739.13,-366.16"/>
<polygon fill="black" stroke="black" stroke-width="0.6" points="742.63,-366.16 739.13,-356.16 735.63,-366.16 742.63,-366.16"/>
</g>
<!-- 2 -->
<g id="node3" class="node">
<title>2</title>
<polygon fill="#ea975c" stroke="black" stroke-width="1.2" points="526.07,-276 413.55,-276 413.55,-232 526.07,-232 526.07,-276"/>
<text text-anchor="middle" x="469.81" y="-267.2" font-family="trebuchet" font-size="11.00">nswprice &lt; 0.04625 </text>
<text text-anchor="middle" x="469.81" y="-256.2" font-family="trebuchet" font-size="11.00"> P(False) = 0.911</text>
<text text-anchor="middle" x="469.81" y="-245.2" font-family="trebuchet" font-size="11.00">P(True) = 0.089 </text>
<text text-anchor="middle" x="469.81" y="-234.2" font-family="trebuchet" font-size="11.00"> samples: 1200</text>
</g>
<!-- 1&#45;&gt;2 -->
<g id="edge2" class="edge">
<title>1&#45;&gt;2</title>
<path fill="none" stroke="black" stroke-width="0.6" d="M586.17,-334C535.71,-334 469.81,-334 469.81,-334 469.81,-334 469.81,-286.28 469.81,-286.28"/>
<polygon fill="black" stroke="black" stroke-width="0.6" points="473.31,-286.28 469.81,-276.28 466.31,-286.28 473.31,-286.28"/>
</g>
<!-- 15 -->
<g id="node16" class="node">
<title>15</title>
<polygon fill="#a7d4f3" stroke="black" stroke-width="1.2" points="700.07,-276 587.55,-276 587.55,-232 700.07,-232 700.07,-276"/>
<text text-anchor="middle" x="643.81" y="-267.2" font-family="trebuchet" font-size="11.00">nswprice &lt; 0.08108 </text>
<text text-anchor="middle" x="643.81" y="-256.2" font-family="trebuchet" font-size="11.00"> P(True) = 0.722</text>
<text text-anchor="middle" x="643.81" y="-245.2" font-family="trebuchet" font-size="11.00">P(False) = 0.278 </text>
<text text-anchor="middle" x="643.81" y="-234.2" font-family="trebuchet" font-size="11.00"> samples: 1200</text>
</g>
<!-- 1&#45;&gt;15 -->
<g id="edge15" class="edge">
<title>1&#45;&gt;15</title>
<path fill="none" stroke="black" stroke-width="0.6" d="M643.31,-311.72C643.31,-311.72 643.31,-286.16 643.31,-286.16"/>
<polygon fill="black" stroke="black" stroke-width="0.6" points="646.81,-286.16 643.31,-276.16 639.81,-286.16 646.81,-286.16"/>
</g>
<!-- 3 -->
<g id="node4" class="node">
<title>3</title>
<polygon fill="#e6843e" stroke="black" stroke-width="1.2" points="323.07,-196 210.55,-196 210.55,-152 323.07,-152 323.07,-196"/>
<text text-anchor="middle" x="266.81" y="-187.2" font-family="trebuchet" font-size="11.00">nswprice &lt; 0.04448 </text>
<text text-anchor="middle" x="266.81" y="-176.2" font-family="trebuchet" font-size="11.00"> P(False) = 0.988</text>
<text text-anchor="middle" x="266.81" y="-165.2" font-family="trebuchet" font-size="11.00">P(True) = 0.013 </text>
<text text-anchor="middle" x="266.81" y="-154.2" font-family="trebuchet" font-size="11.00"> samples: 1200</text>
</g>
<!-- 2&#45;&gt;3 -->
<g id="edge3" class="edge">
<title>2&#45;&gt;3</title>
<path fill="none" stroke="black" stroke-width="0.6" d="M413.54,-254C353.46,-254 266.81,-254 266.81,-254 266.81,-254 266.81,-206.28 266.81,-206.28"/>
<polygon fill="black" stroke="black" stroke-width="0.6" points="270.31,-206.28 266.81,-196.28 263.31,-206.28 270.31,-206.28"/>
</g>
<!-- 8 -->
<g id="node9" class="node">
<title>8</title>
<polygon fill="#f1bc95" stroke="black" stroke-width="1.2" points="526.07,-196 413.55,-196 413.55,-152 526.07,-152 526.07,-196"/>
<text text-anchor="middle" x="469.81" y="-187.2" font-family="trebuchet" font-size="11.00">nswprice &lt; 0.05389 </text>
<text text-anchor="middle" x="469.81" y="-176.2" font-family="trebuchet" font-size="11.00"> P(False) = 0.767</text>
<text text-anchor="middle" x="469.81" y="-165.2" font-family="trebuchet" font-size="11.00">P(True) = 0.233 </text>
<text text-anchor="middle" x="469.81" y="-154.2" font-family="trebuchet" font-size="11.00"> samples: 1200</text>
</g>
<!-- 2&#45;&gt;8 -->
<g id="edge8" class="edge">
<title>2&#45;&gt;8</title>
<path fill="none" stroke="black" stroke-width="0.6" d="M469.81,-231.72C469.81,-231.72 469.81,-206.16 469.81,-206.16"/>
<polygon fill="black" stroke="black" stroke-width="0.6" points="473.31,-206.16 469.81,-196.16 466.31,-206.16 473.31,-206.16"/>
</g>
<!-- 4 -->
<g id="node5" class="node">
<title>4</title>
<polygon fill="#efb285" stroke="black" stroke-width="1.2" points="200.74,-116 100.88,-116 100.88,-72 200.74,-72 200.74,-116"/>
<text text-anchor="middle" x="150.81" y="-107.2" font-family="trebuchet" font-size="11.00">period &lt; 0.32258 </text>
<text text-anchor="middle" x="150.81" y="-96.2" font-family="trebuchet" font-size="11.00"> P(False) = 0.807</text>
<text text-anchor="middle" x="150.81" y="-85.2" font-family="trebuchet" font-size="11.00">P(True) = 0.193 </text>
<text text-anchor="middle" x="150.81" y="-74.2" font-family="trebuchet" font-size="11.00"> samples: 1200</text>
</g>
<!-- 3&#45;&gt;4 -->
<g id="edge4" class="edge">
<title>3&#45;&gt;4</title>
<path fill="none" stroke="black" stroke-width="0.6" d="M214.72,-151.72C214.72,-128.04 214.72,-94 214.72,-94 214.72,-94 210.85,-94 210.85,-94"/>
<polygon fill="black" stroke="black" stroke-width="0.6" points="210.85,-90.5 200.85,-94 210.85,-97.5 210.85,-90.5"/>
</g>
<!-- 7 -->
<g id="node8" class="node">
<title>7</title>
<polygon fill="#f7d8c1" stroke="black" stroke-width="1.2" points="314.44,-112 219.19,-112 219.19,-76 314.44,-76 314.44,-112"/>
<text text-anchor="middle" x="266.81" y="-101.7" font-family="trebuchet" font-size="11.00">P(False) = 0.655</text>
<text text-anchor="middle" x="266.81" y="-90.7" font-family="trebuchet" font-size="11.00">P(True) = 0.345 </text>
<text text-anchor="middle" x="266.81" y="-79.7" font-family="trebuchet" font-size="11.00"> samples: 827</text>
</g>
<!-- 3&#45;&gt;7 -->
<g id="edge7" class="edge">
<title>3&#45;&gt;7</title>
<path fill="none" stroke="black" stroke-width="0.6" d="M266.81,-151.72C266.81,-151.72 266.81,-122.13 266.81,-122.13"/>
<polygon fill="black" stroke="black" stroke-width="0.6" points="270.31,-122.13 266.81,-112.13 263.31,-122.13 270.31,-122.13"/>
</g>
<!-- 5 -->
<g id="node6" class="node">
<title>5</title>
<polygon fill="#eda673" stroke="black" stroke-width="1.2" points="95.44,-36 0.19,-36 0.19,0 95.44,0 95.44,-36"/>
<text text-anchor="middle" x="47.81" y="-25.7" font-family="trebuchet" font-size="11.00">P(False) = 0.853</text>
<text text-anchor="middle" x="47.81" y="-14.7" font-family="trebuchet" font-size="11.00">P(True) = 0.147 </text>
<text text-anchor="middle" x="47.81" y="-3.7" font-family="trebuchet" font-size="11.00"> samples: 6197</text>
</g>
<!-- 4&#45;&gt;5 -->
<g id="edge5" class="edge">
<title>4&#45;&gt;5</title>
<path fill="none" stroke="black" stroke-width="0.6" d="M107.42,-71.61C107.42,-49.19 107.42,-18 107.42,-18 107.42,-18 105.65,-18 105.65,-18"/>
<polygon fill="black" stroke="black" stroke-width="0.6" points="105.65,-14.5 95.65,-18 105.65,-21.5 105.65,-14.5"/>
</g>
<!-- 6 -->
<g id="node7" class="node">
<title>6</title>
<polygon fill="#f7d9c3" stroke="black" stroke-width="1.2" points="209.44,-36 114.19,-36 114.19,0 209.44,0 209.44,-36"/>
<text text-anchor="middle" x="161.81" y="-25.7" font-family="trebuchet" font-size="11.00">P(False) = 0.651</text>
<text text-anchor="middle" x="161.81" y="-14.7" font-family="trebuchet" font-size="11.00">P(True) = 0.349 </text>
<text text-anchor="middle" x="161.81" y="-3.7" font-family="trebuchet" font-size="11.00"> samples: 9840</text>
</g>
<!-- 4&#45;&gt;6 -->
<g id="edge6" class="edge">
<title>4&#45;&gt;6</title>
<path fill="none" stroke="black" stroke-width="0.6" d="M157.39,-71.61C157.39,-71.61 157.39,-46.4 157.39,-46.4"/>
<polygon fill="black" stroke="black" stroke-width="0.6" points="160.89,-46.4 157.39,-36.4 153.89,-46.4 160.89,-46.4"/>
</g>
<!-- 9 -->
<g id="node10" class="node">
<title>9</title>
<polygon fill="#eca26c" stroke="black" stroke-width="1.2" points="430.99,-116 332.63,-116 332.63,-72 430.99,-72 430.99,-116"/>
<text text-anchor="middle" x="381.81" y="-107.2" font-family="trebuchet" font-size="11.00">date &lt; 0.03580 </text>
<text text-anchor="middle" x="381.81" y="-96.2" font-family="trebuchet" font-size="11.00"> P(False) = 0.871</text>
<text text-anchor="middle" x="381.81" y="-85.2" font-family="trebuchet" font-size="11.00">P(True) = 0.129 </text>
<text text-anchor="middle" x="381.81" y="-74.2" font-family="trebuchet" font-size="11.00"> samples: 1200</text>
</g>
<!-- 8&#45;&gt;9 -->
<g id="edge9" class="edge">
<title>8&#45;&gt;9</title>
<path fill="none" stroke="black" stroke-width="0.6" d="M422.29,-151.72C422.29,-151.72 422.29,-126.16 422.29,-126.16"/>
<polygon fill="black" stroke="black" stroke-width="0.6" points="425.79,-126.16 422.29,-116.16 418.79,-126.16 425.79,-126.16"/>
</g>
<!-- 12 -->
<g id="node13" class="node">
<title>12</title>
<polygon fill="#eba06a" stroke="black" stroke-width="1.2" points="547.99,-116 449.63,-116 449.63,-72 547.99,-72 547.99,-116"/>
<text text-anchor="middle" x="498.81" y="-107.2" font-family="trebuchet" font-size="11.00">date &lt; 0.03537 </text>
<text text-anchor="middle" x="498.81" y="-96.2" font-family="trebuchet" font-size="11.00"> P(False) = 0.877</text>
<text text-anchor="middle" x="498.81" y="-85.2" font-family="trebuchet" font-size="11.00">P(True) = 0.122 </text>
<text text-anchor="middle" x="498.81" y="-74.2" font-family="trebuchet" font-size="11.00"> samples: 1200</text>
</g>
<!-- 8&#45;&gt;12 -->
<g id="edge12" class="edge">
<title>8&#45;&gt;12</title>
<path fill="none" stroke="black" stroke-width="0.6" d="M487.83,-151.72C487.83,-151.72 487.83,-126.16 487.83,-126.16"/>
<polygon fill="black" stroke="black" stroke-width="0.6" points="491.33,-126.16 487.83,-116.16 484.33,-126.16 491.33,-126.16"/>
</g>
<!-- 10 -->
<g id="node11" class="node">
<title>10</title>
<polygon fill="#ffffff" stroke="black" stroke-width="1.2" points="320.06,-36 249.57,-36 249.57,0 320.06,0 320.06,-36"/>
<text text-anchor="middle" x="284.81" y="-20.2" font-family="trebuchet" font-size="11.00"> </text>
<text text-anchor="middle" x="284.81" y="-9.2" font-family="trebuchet" font-size="11.00"> samples: 0</text>
</g>
<!-- 9&#45;&gt;10 -->
<g id="edge10" class="edge">
<title>9&#45;&gt;10</title>
<path fill="none" stroke="black" stroke-width="0.6" d="M332.43,-94C329.57,-94 327.83,-94 327.83,-94 327.83,-94 327.83,-18 327.83,-18 327.83,-18 327.04,-18 327.04,-18"/>
<polygon fill="black" stroke="black" stroke-width="0.6" points="329.94,-14.5 319.94,-18 329.94,-21.5 329.94,-14.5"/>
</g>
<!-- 11 -->
<g id="node12" class="node">
<title>11</title>
<polygon fill="#f7d6bf" stroke="black" stroke-width="1.2" points="433.44,-36 338.19,-36 338.19,0 433.44,0 433.44,-36"/>
<text text-anchor="middle" x="385.81" y="-25.7" font-family="trebuchet" font-size="11.00">P(False) = 0.661</text>
<text text-anchor="middle" x="385.81" y="-14.7" font-family="trebuchet" font-size="11.00">P(True) = 0.339 </text>
<text text-anchor="middle" x="385.81" y="-3.7" font-family="trebuchet" font-size="11.00"> samples: 2627</text>
</g>
<!-- 9&#45;&gt;11 -->
<g id="edge11" class="edge">
<title>9&#45;&gt;11</title>
<path fill="none" stroke="black" stroke-width="0.6" d="M384.58,-71.61C384.58,-71.61 384.58,-46.4 384.58,-46.4"/>
<polygon fill="black" stroke="black" stroke-width="0.6" points="388.08,-46.4 384.58,-36.4 381.08,-46.4 388.08,-46.4"/>
</g>
<!-- 13 -->
<g id="node14" class="node">
<title>13</title>
<polygon fill="#ffffff" stroke="black" stroke-width="1.2" points="530.06,-36 459.57,-36 459.57,0 530.06,0 530.06,-36"/>
<text text-anchor="middle" x="494.81" y="-20.2" font-family="trebuchet" font-size="11.00"> </text>
<text text-anchor="middle" x="494.81" y="-9.2" font-family="trebuchet" font-size="11.00"> samples: 0</text>
</g>
<!-- 12&#45;&gt;13 -->
<g id="edge13" class="edge">
<title>12&#45;&gt;13</title>
<path fill="none" stroke="black" stroke-width="0.6" d="M494.81,-71.61C494.81,-71.61 494.81,-46.4 494.81,-46.4"/>
<polygon fill="black" stroke="black" stroke-width="0.6" points="498.31,-46.4 494.81,-36.4 491.31,-46.4 498.31,-46.4"/>
</g>
<!-- 14 -->
<g id="node15" class="node">
<title>14</title>
<polygon fill="#fcf2eb" stroke="black" stroke-width="1.2" points="643.44,-36 548.19,-36 548.19,0 643.44,0 643.44,-36"/>
<text text-anchor="middle" x="595.81" y="-25.7" font-family="trebuchet" font-size="11.00">P(False) = 0.551</text>
<text text-anchor="middle" x="595.81" y="-14.7" font-family="trebuchet" font-size="11.00">P(True) = 0.449 </text>
<text text-anchor="middle" x="595.81" y="-3.7" font-family="trebuchet" font-size="11.00"> samples: 3678</text>
</g>
<!-- 12&#45;&gt;14 -->
<g id="edge14" class="edge">
<title>12&#45;&gt;14</title>
<path fill="none" stroke="black" stroke-width="0.6" d="M538.97,-71.61C538.97,-49.19 538.97,-18 538.97,-18 538.97,-18 539.88,-18 539.88,-18"/>
<polygon fill="black" stroke="black" stroke-width="0.6" points="538.1,-21.5 548.1,-18 538.1,-14.5 538.1,-21.5"/>
</g>
<!-- 16 -->
<g id="node17" class="node">
<title>16</title>
<polygon fill="#c8e4f8" stroke="black" stroke-width="1.2" points="693.74,-196 593.88,-196 593.88,-152 693.74,-152 693.74,-196"/>
<text text-anchor="middle" x="643.81" y="-187.2" font-family="trebuchet" font-size="11.00">period &lt; 0.22581 </text>
<text text-anchor="middle" x="643.81" y="-176.2" font-family="trebuchet" font-size="11.00"> P(True) = 0.639</text>
<text text-anchor="middle" x="643.81" y="-165.2" font-family="trebuchet" font-size="11.00">P(False) = 0.361 </text>
<text text-anchor="middle" x="643.81" y="-154.2" font-family="trebuchet" font-size="11.00"> samples: 1200</text>
</g>
<!-- 15&#45;&gt;16 -->
<g id="edge16" class="edge">
<title>15&#45;&gt;16</title>
<path fill="none" stroke="black" stroke-width="0.6" d="M643.81,-231.72C643.81,-231.72 643.81,-206.16 643.81,-206.16"/>
<polygon fill="black" stroke="black" stroke-width="0.6" points="647.31,-206.16 643.81,-196.16 640.31,-206.16 647.31,-206.16"/>
</g>
<!-- 21 -->
<g id="node22" class="node">
<title>21</title>
<polygon fill="#4fa8e8" stroke="black" stroke-width="1.2" points="913.74,-196 813.88,-196 813.88,-152 913.74,-152 913.74,-196"/>
<text text-anchor="middle" x="863.81" y="-187.2" font-family="trebuchet" font-size="11.00">period &lt; 0.19355 </text>
<text text-anchor="middle" x="863.81" y="-176.2" font-family="trebuchet" font-size="11.00"> P(True) = 0.944</text>
<text text-anchor="middle" x="863.81" y="-165.2" font-family="trebuchet" font-size="11.00">P(False) = 0.056 </text>
<text text-anchor="middle" x="863.81" y="-154.2" font-family="trebuchet" font-size="11.00"> samples: 1200</text>
</g>
<!-- 15&#45;&gt;21 -->
<g id="edge21" class="edge">
<title>15&#45;&gt;21</title>
<path fill="none" stroke="black" stroke-width="0.6" d="M700.33,-254C705.49,-254 708.83,-254 708.83,-254 708.83,-254 708.83,-174 708.83,-174 708.83,-174 803.49,-174 803.49,-174"/>
<polygon fill="black" stroke="black" stroke-width="0.6" points="803.49,-177.5 813.49,-174 803.49,-170.5 803.49,-177.5"/>
</g>
<!-- 17 -->
<g id="node18" class="node">
<title>17</title>
<polygon fill="#f8fbfe" stroke="black" stroke-width="1.2" points="664.99,-112 566.63,-112 566.63,-76 664.99,-76 664.99,-112"/>
<text text-anchor="middle" x="615.81" y="-101.7" font-family="trebuchet" font-size="11.00">P(True) = 0.518</text>
<text text-anchor="middle" x="615.81" y="-90.7" font-family="trebuchet" font-size="11.00">P(False) = 0.482 </text>
<text text-anchor="middle" x="615.81" y="-79.7" font-family="trebuchet" font-size="11.00"> samples: 581</text>
</g>
<!-- 16&#45;&gt;17 -->
<g id="edge17" class="edge">
<title>16&#45;&gt;17</title>
<path fill="none" stroke="black" stroke-width="0.6" d="M629.5,-151.72C629.5,-151.72 629.5,-122.13 629.5,-122.13"/>
<polygon fill="black" stroke="black" stroke-width="0.6" points="633,-122.13 629.5,-112.13 626,-122.13 633,-122.13"/>
</g>
<!-- 18 -->
<g id="node19" class="node">
<title>18</title>
<polygon fill="#b7dcf6" stroke="black" stroke-width="1.2" points="796.07,-116 683.55,-116 683.55,-72 796.07,-72 796.07,-116"/>
<text text-anchor="middle" x="739.81" y="-107.2" font-family="trebuchet" font-size="11.00">nswprice &lt; 0.07482 </text>
<text text-anchor="middle" x="739.81" y="-96.2" font-family="trebuchet" font-size="11.00"> P(True) = 0.681</text>
<text text-anchor="middle" x="739.81" y="-85.2" font-family="trebuchet" font-size="11.00">P(False) = 0.319 </text>
<text text-anchor="middle" x="739.81" y="-74.2" font-family="trebuchet" font-size="11.00"> samples: 1200</text>
</g>
<!-- 16&#45;&gt;18 -->
<g id="edge18" class="edge">
<title>16&#45;&gt;18</title>
<path fill="none" stroke="black" stroke-width="0.6" d="M688.61,-151.72C688.61,-151.72 688.61,-126.16 688.61,-126.16"/>
<polygon fill="black" stroke="black" stroke-width="0.6" points="692.11,-126.16 688.61,-116.16 685.11,-126.16 692.11,-126.16"/>
</g>
<!-- 19 -->
<g id="node20" class="node">
<title>19</title>
<polygon fill="#a2d1f3" stroke="black" stroke-width="1.2" points="774.99,-36 676.63,-36 676.63,0 774.99,0 774.99,-36"/>
<text text-anchor="middle" x="725.81" y="-25.7" font-family="trebuchet" font-size="11.00">P(True) = 0.734</text>
<text text-anchor="middle" x="725.81" y="-14.7" font-family="trebuchet" font-size="11.00">P(False) = 0.266 </text>
<text text-anchor="middle" x="725.81" y="-3.7" font-family="trebuchet" font-size="11.00"> samples: 1067</text>
</g>
<!-- 18&#45;&gt;19 -->
<g id="edge19" class="edge">
<title>18&#45;&gt;19</title>
<path fill="none" stroke="black" stroke-width="0.6" d="M729.29,-71.61C729.29,-71.61 729.29,-46.4 729.29,-46.4"/>
<polygon fill="black" stroke="black" stroke-width="0.6" points="732.79,-46.4 729.29,-36.4 725.79,-46.4 732.79,-46.4"/>
</g>
<!-- 20 -->
<g id="node21" class="node">
<title>20</title>
<polygon fill="#85c3ef" stroke="black" stroke-width="1.2" points="891.99,-36 793.63,-36 793.63,0 891.99,0 891.99,-36"/>
<text text-anchor="middle" x="842.81" y="-25.7" font-family="trebuchet" font-size="11.00">P(True) = 0.807</text>
<text text-anchor="middle" x="842.81" y="-14.7" font-family="trebuchet" font-size="11.00">P(False) = 0.193 </text>
<text text-anchor="middle" x="842.81" y="-3.7" font-family="trebuchet" font-size="11.00"> samples: 891</text>
</g>
<!-- 18&#45;&gt;20 -->
<g id="edge20" class="edge">
<title>18&#45;&gt;20</title>
<path fill="none" stroke="black" stroke-width="0.6" d="M784.31,-71.61C784.31,-49.19 784.31,-18 784.31,-18 784.31,-18 785.23,-18 785.23,-18"/>
<polygon fill="black" stroke="black" stroke-width="0.6" points="783.45,-21.5 793.45,-18 783.45,-14.5 783.45,-21.5"/>
</g>
<!-- 22 -->
<g id="node23" class="node">
<title>22</title>
<polygon fill="#89c5f0" stroke="black" stroke-width="1.2" points="912.99,-112 814.63,-112 814.63,-76 912.99,-76 912.99,-112"/>
<text text-anchor="middle" x="863.81" y="-101.7" font-family="trebuchet" font-size="11.00">P(True) = 0.798</text>
<text text-anchor="middle" x="863.81" y="-90.7" font-family="trebuchet" font-size="11.00">P(False) = 0.202 </text>
<text text-anchor="middle" x="863.81" y="-79.7" font-family="trebuchet" font-size="11.00"> samples: 188</text>
</g>
<!-- 21&#45;&gt;22 -->
<g id="edge22" class="edge">
<title>21&#45;&gt;22</title>
<path fill="none" stroke="black" stroke-width="0.6" d="M863.81,-151.72C863.81,-151.72 863.81,-122.13 863.81,-122.13"/>
<polygon fill="black" stroke="black" stroke-width="0.6" points="867.31,-122.13 863.81,-112.13 860.31,-122.13 867.31,-122.13"/>
</g>
<!-- 23 -->
<g id="node24" class="node">
<title>23</title>
<polygon fill="#52aae8" stroke="black" stroke-width="1.2" points="1029.99,-116 931.63,-116 931.63,-72 1029.99,-72 1029.99,-116"/>
<text text-anchor="middle" x="980.81" y="-107.2" font-family="trebuchet" font-size="11.00">date &lt; 0.42898 </text>
<text text-anchor="middle" x="980.81" y="-96.2" font-family="trebuchet" font-size="11.00"> P(True) = 0.936</text>
<text text-anchor="middle" x="980.81" y="-85.2" font-family="trebuchet" font-size="11.00">P(False) = 0.064 </text>
<text text-anchor="middle" x="980.81" y="-74.2" font-family="trebuchet" font-size="11.00"> samples: 1200</text>
</g>
<!-- 21&#45;&gt;23 -->
<g id="edge23" class="edge">
<title>21&#45;&gt;23</title>
<path fill="none" stroke="black" stroke-width="0.6" d="M913.77,-174C945.57,-174 980.81,-174 980.81,-174 980.81,-174 980.81,-126.28 980.81,-126.28"/>
<polygon fill="black" stroke="black" stroke-width="0.6" points="984.31,-126.28 980.81,-116.28 977.31,-126.28 984.31,-126.28"/>
</g>
<!-- 24 -->
<g id="node25" class="node">
<title>24</title>
<polygon fill="#ffffff" stroke="black" stroke-width="1.2" points="998.06,-36 927.57,-36 927.57,0 998.06,0 998.06,-36"/>
<text text-anchor="middle" x="962.81" y="-20.2" font-family="trebuchet" font-size="11.00"> </text>
<text text-anchor="middle" x="962.81" y="-9.2" font-family="trebuchet" font-size="11.00"> samples: 0</text>
</g>
<!-- 23&#45;&gt;24 -->
<g id="edge24" class="edge">
<title>23&#45;&gt;24</title>
<path fill="none" stroke="black" stroke-width="0.6" d="M964.7,-71.61C964.7,-71.61 964.7,-46.4 964.7,-46.4"/>
<polygon fill="black" stroke="black" stroke-width="0.6" points="968.2,-46.4 964.7,-36.4 961.2,-46.4 968.2,-46.4"/>
</g>
<!-- 25 -->
<g id="node26" class="node">
<title>25</title>
<polygon fill="#5eb0ea" stroke="black" stroke-width="1.2" points="1113.99,-36 1015.63,-36 1015.63,0 1113.99,0 1113.99,-36"/>
<text text-anchor="middle" x="1064.81" y="-25.7" font-family="trebuchet" font-size="11.00">P(True) = 0.906</text>
<text text-anchor="middle" x="1064.81" y="-14.7" font-family="trebuchet" font-size="11.00">P(False) = 0.094 </text>
<text text-anchor="middle" x="1064.81" y="-3.7" font-family="trebuchet" font-size="11.00"> samples: 2361</text>
</g>
<!-- 23&#45;&gt;25 -->
<g id="edge25" class="edge">
<title>23&#45;&gt;25</title>
<path fill="none" stroke="black" stroke-width="0.6" d="M1022.81,-71.61C1022.81,-71.61 1022.81,-46.4 1022.81,-46.4"/>
<polygon fill="black" stroke="black" stroke-width="0.6" points="1026.31,-46.4 1022.81,-36.4 1019.31,-46.4 1026.31,-46.4"/>
</g>
<!-- 27 -->
<g id="node28" class="node">
<title>27</title>
<polygon fill="#399de5" stroke="black" stroke-width="1.2" points="812.81,-272 718.82,-272 718.82,-236 812.81,-236 812.81,-272"/>
<text text-anchor="middle" x="765.81" y="-256.2" font-family="trebuchet" font-size="11.00">P(True) = 1.000 </text>
<text text-anchor="middle" x="765.81" y="-245.2" font-family="trebuchet" font-size="11.00"> samples: 93</text>
</g>
<!-- 26&#45;&gt;27 -->
<g id="edge27" class="edge">
<title>26&#45;&gt;27</title>
<path fill="none" stroke="black" stroke-width="0.6" d="M765.81,-311.72C765.81,-311.72 765.81,-282.13 765.81,-282.13"/>
<polygon fill="black" stroke="black" stroke-width="0.6" points="769.31,-282.13 765.81,-272.13 762.31,-282.13 769.31,-282.13"/>
</g>
<!-- 28 -->
<g id="node29" class="node">
<title>28</title>
<polygon fill="#399de5" stroke="black" stroke-width="1.2" points="924.81,-272 830.82,-272 830.82,-236 924.81,-236 924.81,-272"/>
<text text-anchor="middle" x="877.81" y="-256.2" font-family="trebuchet" font-size="11.00">P(True) = 1.000 </text>
<text text-anchor="middle" x="877.81" y="-245.2" font-family="trebuchet" font-size="11.00"> samples: 162</text>
</g>
<!-- 26&#45;&gt;28 -->
<g id="edge28" class="edge">
<title>26&#45;&gt;28</title>
<path fill="none" stroke="black" stroke-width="0.6" d="M816.14,-334C845.79,-334 877.81,-334 877.81,-334 877.81,-334 877.81,-282.15 877.81,-282.15"/>
<polygon fill="black" stroke="black" stroke-width="0.6" points="881.31,-282.15 877.81,-272.15 874.31,-282.15 881.31,-282.15"/>
</g>
</g>
</svg>
