<?xml version="1.0" encoding="UTF-8" standalone="no"?>
<!DOCTYPE svg PUBLIC "-//W3C//DTD SVG 1.1//EN"
 "http://www.w3.org/Graphics/SVG/1.1/DTD/svg11.dtd">
<!-- Generated by graphviz version 2.40.1 (0)
 -->
<!-- Title: %3 Pages: 1 -->
<svg width="500pt" height="476pt"
 viewBox="0.00 0.00 500.23 476.00" xmlns="http://www.w3.org/2000/svg" xmlns:xlink="http://www.w3.org/1999/xlink">
<g id="graph0" class="graph" transform="scale(1 1) rotate(0) translate(4 472)">
<title>%3</title>
<polygon fill="#ffffff" stroke="transparent" points="-4,4 -4,-472 496.229,-472 496.229,4 -4,4"/>
<!-- input -->
<g id="node1" class="node">
<title>input</title>
<ellipse fill="none" stroke="#000000" cx="292.7353" cy="-450" rx="30.5947" ry="18"/>
<text text-anchor="middle" x="292.7353" y="-446.3" font-family="Times,serif" font-size="14.00" fill="#000000">input</text>
</g>
<!-- Whitelister([&#39;text&#39;]) -->
<g id="node2" class="node">
<title>Whitelister([&#39;text&#39;])</title>
<ellipse fill="none" stroke="#000000" cx="292.7353" cy="-378" rx="79.0865" ry="18"/>
<text text-anchor="middle" x="292.7353" y="-374.3" font-family="Times,serif" font-size="14.00" fill="#000000">Whitelister([&#39;text&#39;])</text>
</g>
<!-- input&#45;&gt;Whitelister([&#39;text&#39;]) -->
<g id="edge1" class="edge">
<title>input&#45;&gt;Whitelister([&#39;text&#39;])</title>
<path fill="none" stroke="#000000" d="M292.7353,-431.8314C292.7353,-424.131 292.7353,-414.9743 292.7353,-406.4166"/>
<polygon fill="#000000" stroke="#000000" points="296.2354,-406.4132 292.7353,-396.4133 289.2354,-406.4133 296.2354,-406.4132"/>
</g>
<!-- TFIDFVectorizer -->
<g id="node3" class="node">
<title>TFIDFVectorizer</title>
<ellipse fill="none" stroke="#000000" cx="203.7353" cy="-306" rx="74.187" ry="18"/>
<text text-anchor="middle" x="203.7353" y="-302.3" font-family="Times,serif" font-size="14.00" fill="#000000">TFIDFVectorizer</text>
</g>
<!-- Whitelister([&#39;text&#39;])&#45;&gt;TFIDFVectorizer -->
<g id="edge2" class="edge">
<title>Whitelister([&#39;text&#39;])&#45;&gt;TFIDFVectorizer</title>
<path fill="none" stroke="#000000" d="M271.1909,-360.5708C259.7122,-351.2847 245.4274,-339.7285 232.9622,-329.6442"/>
<polygon fill="#000000" stroke="#000000" points="235.0571,-326.8371 225.0813,-323.2687 230.6545,-332.2793 235.0571,-326.8371"/>
</g>
<!-- CountVectorizer -->
<g id="node4" class="node">
<title>CountVectorizer</title>
<ellipse fill="none" stroke="#000000" cx="420.7353" cy="-234" rx="71.4873" ry="18"/>
<text text-anchor="middle" x="420.7353" y="-230.3" font-family="Times,serif" font-size="14.00" fill="#000000">CountVectorizer</text>
</g>
<!-- Whitelister([&#39;text&#39;])&#45;&gt;CountVectorizer -->
<g id="edge3" class="edge">
<title>Whitelister([&#39;text&#39;])&#45;&gt;CountVectorizer</title>
<path fill="none" stroke="#000000" d="M308.4306,-360.3428C330.8861,-335.0804 372.3094,-288.4791 398.0852,-259.4813"/>
<polygon fill="#000000" stroke="#000000" points="400.8839,-261.6011 404.9116,-251.8017 395.652,-256.9505 400.8839,-261.6011"/>
</g>
<!-- Whitelister([&#39;b&#39;, &#39;a&#39;]) | PolynomialExtender -->
<g id="node5" class="node">
<title>Whitelister([&#39;b&#39;, &#39;a&#39;]) | PolynomialExtender</title>
<ellipse fill="none" stroke="#000000" cx="165.7353" cy="-234" rx="165.9709" ry="18"/>
<text text-anchor="middle" x="165.7353" y="-230.3" font-family="Times,serif" font-size="14.00" fill="#000000">Whitelister([&#39;b&#39;, &#39;a&#39;]) | PolynomialExtender</text>
</g>
<!-- TFIDFVectorizer&#45;&gt;Whitelister([&#39;b&#39;, &#39;a&#39;]) | PolynomialExtender -->
<g id="edge4" class="edge">
<title>TFIDFVectorizer&#45;&gt;Whitelister([&#39;b&#39;, &#39;a&#39;]) | PolynomialExtender</title>
<path fill="none" stroke="#000000" d="M194.1463,-287.8314C189.9035,-279.7925 184.8232,-270.1666 180.1393,-261.2918"/>
<polygon fill="#000000" stroke="#000000" points="183.2164,-259.6235 175.4534,-252.4133 177.0257,-262.8908 183.2164,-259.6235"/>
</g>
<!-- StandardScaler -->
<g id="node6" class="node">
<title>StandardScaler</title>
<ellipse fill="none" stroke="#000000" cx="292.7353" cy="-162" rx="66.0889" ry="18"/>
<text text-anchor="middle" x="292.7353" y="-158.3" font-family="Times,serif" font-size="14.00" fill="#000000">StandardScaler</text>
</g>
<!-- CountVectorizer&#45;&gt;StandardScaler -->
<g id="edge6" class="edge">
<title>CountVectorizer&#45;&gt;StandardScaler</title>
<path fill="none" stroke="#000000" d="M391.3695,-217.4817C373.4012,-207.3746 350.2207,-194.3355 330.8469,-183.4378"/>
<polygon fill="#000000" stroke="#000000" points="332.3961,-180.2935 321.9644,-178.4414 328.9643,-186.3946 332.3961,-180.2935"/>
</g>
<!-- Whitelister([&#39;b&#39;, &#39;a&#39;]) | PolynomialExtender&#45;&gt;StandardScaler -->
<g id="edge5" class="edge">
<title>Whitelister([&#39;b&#39;, &#39;a&#39;]) | PolynomialExtender&#45;&gt;StandardScaler</title>
<path fill="none" stroke="#000000" d="M197.1286,-216.2022C214.6771,-206.2534 236.6652,-193.7878 255.1289,-183.3202"/>
<polygon fill="#000000" stroke="#000000" points="256.9018,-186.3385 263.8748,-178.3618 253.4494,-180.249 256.9018,-186.3385"/>
</g>
<!-- LinearRegression -->
<g id="node7" class="node">
<title>LinearRegression</title>
<ellipse fill="none" stroke="#000000" cx="292.7353" cy="-90" rx="75.2868" ry="18"/>
<text text-anchor="middle" x="292.7353" y="-86.3" font-family="Times,serif" font-size="14.00" fill="#000000">LinearRegression</text>
</g>
<!-- StandardScaler&#45;&gt;LinearRegression -->
<g id="edge7" class="edge">
<title>StandardScaler&#45;&gt;LinearRegression</title>
<path fill="none" stroke="#000000" d="M292.7353,-143.8314C292.7353,-136.131 292.7353,-126.9743 292.7353,-118.4166"/>
<polygon fill="#000000" stroke="#000000" points="296.2354,-118.4132 292.7353,-108.4133 289.2354,-118.4133 296.2354,-118.4132"/>
</g>
<!-- output -->
<g id="node8" class="node">
<title>output</title>
<ellipse fill="none" stroke="#000000" cx="292.7353" cy="-18" rx="35.194" ry="18"/>
<text text-anchor="middle" x="292.7353" y="-14.3" font-family="Times,serif" font-size="14.00" fill="#000000">output</text>
</g>
<!-- LinearRegression&#45;&gt;output -->
<g id="edge8" class="edge">
<title>LinearRegression&#45;&gt;output</title>
<path fill="none" stroke="#000000" d="M292.7353,-71.8314C292.7353,-64.131 292.7353,-54.9743 292.7353,-46.4166"/>
<polygon fill="#000000" stroke="#000000" points="296.2354,-46.4132 292.7353,-36.4133 289.2354,-46.4133 296.2354,-46.4132"/>
</g>
</g>
</svg>
