<svg version="1.1" viewBox="0.0 0.0 666.8477690288714 288.09448818897636" fill="none" stroke="none" stroke-linecap="square" stroke-miterlimit="10" xmlns:xlink="http://www.w3.org/1999/xlink" xmlns="http://www.w3.org/2000/svg"><clipPath id="p.0"><path d="m0 0l666.8478 0l0 288.09448l-666.8478 0l0 -288.09448z" clip-rule="nonzero"/></clipPath><g clip-path="url(#p.0)"><path fill="#000000" fill-opacity="0.0" d="m0 0l666.8478 0l0 288.09448l-666.8478 0z" fill-rule="evenodd"/><path fill="#000000" fill-opacity="0.0" d="m209.78215 -55.425198l766.9921 0l0 342.58267l-766.9921 0z" fill-rule="evenodd"/><path fill="#286bc8" d="m263.82904 96.94981q0 -3.0 1.109375 -6.1875q1.109375 -3.1875 3.3125 -5.78125q2.21875 -2.609375 5.53125 -4.296875q3.328125 -1.703125 7.890625 -1.703125q7.546875 0 10.53125 2.9375q3.0 2.921875 3.0 7.34375q0 2.484375 -0.984375 5.484375q-0.96875 2.984375 -2.921875 5.53125q-1.953125 2.53125 -5.078125 4.234375q-3.109375 1.6875 -7.40625 1.6875q-8.078125 0 -11.34375 -2.53125q-3.25 -2.546875 -3.640625 -6.71875zm-14.312515 29.296875q2.203125 -3.640625 5.0625 -5.203125q2.8750153 -1.5625 5.8750153 -1.5625q4.9375 0 8.515625 3.1875q3.59375 3.1875 3.59375 8.140617q-0.140625 1.171875 -0.34375 2.34375q-0.1875 1.171875 -0.828125 2.34375q-1.828125 3.375 -3.0 5.71875q-1.171875 2.34375 -2.15625 4.359375q-0.96875 2.015625 -1.890625 3.96875q-0.90625 1.953125 -2.203125 4.6875q-1.5625 3.265625 -3.515625 7.109375q-1.953125 3.828125 -3.7187653 7.875q-1.75 4.03125 -2.984375 7.9375q-1.234375 3.90625 -1.234375 7.15625q0 3.515625 1.75 4.625q1.765625 1.109375 5.0156403 1.109375q3.640625 0 7.609375 -1.5625q3.984375 -1.5625 8.015625 -4.03125q4.03125 -2.484375 7.9375 -5.671875q3.90625 -3.1875 7.359375 -6.4375q3.453125 -3.265625 6.375 -6.25q2.9375 -3.0 4.890625 -5.34375q2.59375 -2.46875 5.203125 -2.46875q2.34375 0 3.84375 2.078125q1.5 2.078125 1.5 5.34375q0 2.984375 -1.5 6.375q-1.5 3.390625 -4.890625 6.375q-6.640625 6.78125 -13.546875 12.96875q-6.890625 6.171875 -14.125 10.9375q-7.21875 4.75 -14.515625 7.609375q-7.2812653 2.859375 -14.70314 2.859375q-10.546875 0 -16.609375 -5.390625q-6.046875 -5.40625 -6.046875 -16.875q0 -5.984375 1.6875 -11.703125q1.703125 -5.734375 4.046875 -11.140625q2.34375 -5.40625 4.9375 -10.421875q2.609375 -5.015625 4.4375 -9.5625q0.640625 -1.703125 2.265625 -5.203125q1.640625 -3.515625 3.453125 -7.171875q2.09375 -4.296875 4.4375 -9.109367zm158.06007 54.156242q-9.765625 7.421875 -19.53125 11.65625q-9.765625 4.234375 -21.609375 4.234375q-3.90625 0 -7.5625 -1.421875q-3.640625 -1.4375 -9.5 -5.09375q-8.59375 11.328125 -17.25 17.1875q-8.65625 5.859375 -18.03125 5.859375q-4.5625 0 -8.734375 -1.625q-4.15625 -1.625 -7.28125 -4.875q-3.125 -3.265625 -5.015625 -8.078125q-1.890625 -4.8125 -1.890625 -11.203125q0 -7.8125 1.75 -16.859375q1.765625 -9.046875 4.234375 -17.640625q2.484375 -8.59375 4.890625 -15.875q2.40625 -7.296875 3.84375 -11.593742q2.609375 -5.46875 6.578125 -7.875q3.96875 -2.40625 7.75 -2.40625q1.6875 0 3.4375 0.59375q1.765625 0.578125 3.1875 1.625q1.4375 1.03125 2.34375 2.46875q0.921875 1.421875 0.921875 3.125q0 1.421875 -0.515625 2.46875q-1.953125 6.2499924 -4.625 13.609367q-2.671875 7.34375 -5.015625 14.765625q-2.34375 7.421875 -3.96875 14.53125q-1.625 7.09375 -1.625 12.953125q0 0.90625 0.25 2.40625q0.265625 1.5 0.65625 2.875q0.390625 1.359375 1.03125 2.34375q0.65625 0.96875 1.4375 0.96875q3.390625 0 7.546875 -3.78125q4.171875 -3.78125 9.125 -10.421875q4.296875 -4.546875 8.140625 -10.734375q3.84375 -6.1875 7.28125 -12.6875q3.453125 -6.515625 6.640625 -12.828125q3.1875 -6.3125 6.25 -11.328117q3.0625 -5.015625 6.046875 -8.078125q3.0 -3.0625 6.125 -3.0625q5.34375 0 7.546875 3.453125q2.21875 3.453125 2.21875 8.265617q0 5.46875 -1.765625 10.03125q-1.75 4.546875 -4.75 9.4375q-2.984375 4.875 -7.09375 10.8125q-4.09375 5.921875 -8.90625 14.125q2.078125 2.734375 6.5 2.734375q4.6875 0 9.703125 -1.171875q5.015625 -1.171875 9.953125 -3.3125q4.953125 -2.15625 9.828125 -5.21875q4.890625 -3.0625 9.453125 -6.703125q1.953125 -1.171875 3.640625 -1.171875q2.34375 0 3.84375 2.078125q1.5 2.078125 1.5 5.34375q0 3.515625 -2.09375 7.625q-2.078125 4.09375 -6.890625 7.46875zm45.303223 -47.640625q-0.640625 -0.140625 -1.171875 -0.140625q-0.515625 0 -1.15625 0q-4.953125 0 -9.25 1.953125q-4.296875 1.953125 -7.875 5.140625q-3.578125 3.1875 -6.390625 7.234375q-2.796875 4.03125 -5.015625 8.0q-2.203125 3.96875 -3.703125 7.625q-1.5 3.640625 -2.28125 6.109375q4.5625 -2.34375 9.4375 -5.328125q4.890625 -3.0 9.1875 -5.734375q4.296875 -2.734375 7.484375 -4.9375q3.1875 -2.21875 4.5 -3.0q5.84375 -3.65625 8.0625 -6.84375q2.21875 -3.1875 2.21875 -5.53125q0 -1.953125 -1.25 -3.125q-1.234375 -1.171875 -2.796875 -1.421875zm4.6875 -17.968742q10.8125 0 16.140625 5.203125q5.34375 5.203125 5.34375 14.453117q0 5.46875 -2.859375 11.453125q-2.859375 5.984375 -9.890625 12.171875q-7.03125 6.1875 -18.8125 12.640625q-11.78125 6.4375 -29.5 12.953125q0.65625 3.765625 4.03125 5.921875q3.390625 2.140625 9.0 2.140625q5.984375 0 12.8125 -1.75q6.84375 -1.765625 13.546875 -4.5q6.703125 -2.734375 13.078125 -5.921875q6.390625 -3.1875 11.53125 -6.046875q5.140625 -2.875 8.59375 -4.953125q3.453125 -2.078125 4.625 -2.609375q1.171875 -0.78125 2.140625 -0.90625q0.984375 -0.125 1.765625 -0.125q1.5625 0 2.59375 0.71875q1.046875 0.703125 1.765625 1.6875q0.71875 0.96875 0.96875 2.078125q0.265625 1.109375 0.265625 1.890625q0 1.171875 -0.265625 2.796875q-0.25 1.625 -1.953125 3.71875q-0.640625 0.640625 -4.359375 3.515625q-3.703125 2.859375 -9.5625 6.765625q-5.859375 3.90625 -13.609375 8.265625q-7.75 4.359375 -16.40625 8.015625q-8.65625 3.640625 -18.03125 6.046875q-9.375 2.40625 -18.484375 2.40625q-7.8125 0 -13.875 -3.0q-6.046875 -2.984375 -10.28125 -8.0625q-4.234375 -5.078125 -6.453125 -11.71875q-2.203125 -6.640625 -2.203125 -13.9375q0 -5.59375 2.203125 -12.296875q2.21875 -6.703125 6.375 -13.46875q4.171875 -6.78125 10.21875 -13.21875q6.0625 -6.453125 13.609375 -11.390617q7.5625 -4.953125 16.609375 -7.9375q9.046875 -3.0 19.328125 -3.0z" fill-rule="nonzero"/><path fill="#000000" fill-opacity="0.0" d="m100.614174 0l190.92914 0l0 273.10236l-190.92914 0z" fill-rule="evenodd"/><path fill="#286bc8" d="m222.64542 193.42874q2.515625 0.40625 5.859375 4.59375q3.359375 4.1875 3.359375 7.75q0 2.296875 -3.5625 3.5625q-1.25 0.421875 -4.078125 1.5625q-2.828125 1.15625 -5.140625 1.578125q-2.296875 0.421875 -5.21875 0.421875q-4.40625 0 -6.703125 -1.046875q-5.859375 -2.515625 -15.28125 -11.71875q-9.421875 -9.21875 -18.21875 -21.046875q-8.78125 -11.828125 -12.96875 -22.078125l-1.265625 0q-5.859375 0 -8.578125 -0.21875q-6.28125 23.234375 -10.46875 40.609375q-1.671875 7.328125 -5.125 11.3125q-3.453125 3.96875 -11.203117 3.96875q-6.484375 0 -9.515625 -2.203125q-3.03125 -2.1875 -3.03125 -7.421875q0 -2.296875 0.625 -4.390625l25.328117 -97.765625q-10.890617 3.140625 -16.546867 8.578125q-2.296875 -2.5 -3.65625 -6.578125q-1.359375 -4.09375 -1.359375 -8.0625q0 -2.9375 1.78125 -4.71875q1.78125 -1.78125 4.921875 -3.234375q1.046875 -0.640625 7.6406174 -3.78125q6.59375 -3.140625 12.65625 -4.8125q1.890625 -4.1875 5.75 -6.90625q3.875 -2.71875 9.953125 -2.71875q3.5625 0 5.859375 1.359375q2.296875 1.359375 3.140625 3.453125q7.75 -2.515625 18.625 -2.515625q13.40625 0 23.34375 5.34375q9.9375 5.34375 15.171875 13.71875q5.234375 8.359375 5.234375 16.953125q0 19.046875 -12.25 30.453125q-12.234375 11.40625 -31.5 16.21875q4.40625 7.53125 11.71875 16.953125q7.328125 9.421875 13.921875 16.015625q6.59375 6.59375 8.6875 6.59375l2.09375 0.21875zm-57.34375 -98.1875q-6.078125 24.28125 -10.046875 42.078125q2.5 0.21875 7.109375 0.21875q10.046875 0 20.09375 -3.03125q10.046875 -3.046875 16.84375 -9.109375q6.8125 -6.078125 6.8125 -15.078125q0 -8.15625 -6.703125 -13.078125q-6.6875 -4.921875 -18.0 -4.921875q-6.28125 0 -16.109375 2.921875z" fill-rule="nonzero"/><path fill="#000000" fill-opacity="0.0" d="m472.5853 15.766404l190.92917 0l0 252.0945l-190.92917 0z" fill-rule="evenodd"/><path fill="#286bc8" d="m507.69467 201.78952q-0.1875 1.15625 -0.859375 4.515625q-0.671875 3.359375 -3.265625 4.703125q-2.59375 1.34375 -8.15625 1.34375q-6.34375 0 -9.21875 -1.34375q-2.875 -1.34375 -2.875 -5.765625l9.203125 -36.671875q7.6875 -31.671875 10.1875 -40.3125l-4.8125 -5.765625q-0.5625 -0.578125 -0.5625 -1.34375q0 -1.921875 4.21875 -3.171875q4.21875 -1.25 11.7187805 -1.25q6.71875 0 9.015625 3.75q2.3125 3.75 2.875 9.703125l-1.34375 4.984375q6.15625 -7.484375 14.3125 -12.375q8.15625 -4.90625 14.5 -4.90625q8.25 0 12.859375 2.890625q4.609375 2.875 4.609375 7.484375q0 4.03125 -2.796875 8.359375q-2.78125 4.3125 -7.0 7.296875q-4.21875 2.96875 -8.25 3.34375q-3.84375 0 -5.1875 -0.953125q-1.34375 -0.96875 -1.34375 -2.875l1.15625 -6.34375q-15.359375 4.21875 -27.84375 20.359375l-11.1406555 44.34375z" fill-rule="nonzero"/></g></svg>